<svg width="200" height="61" viewBox="0 0 200 61" fill="none" xmlns="http://www.w3.org/2000/svg">
<path d="M192.28 60.8213H7.72797C3.45879 60.8213 0 57.3625 0 53.0933V7.72798C0 3.45879 3.45879 0 7.72797 0H192.272C196.541 0 200 3.45879 200 7.72798V53.0933C200.008 57.3625 196.55 60.8213 192.28 60.8213Z" fill="#010101"/>
<path d="M62.1914 17.4109H56.6774L55.466 20.0844H54.7224L59.0919 10.5769H59.7853L64.1631 20.0844H63.4112L62.1914 17.4109ZM61.9324 16.8261L59.4344 11.3372L56.9531 16.8261H61.9324Z" fill="white"/>
<path d="M71.0054 12.9997L67.7972 20.0844H67.1038L63.9124 12.9997H64.6308L67.4547 19.3408L70.3036 12.9997H71.0054Z" fill="white"/>
<path d="M76.6782 13.6179C77.1461 14.0691 77.3884 14.7207 77.3884 15.5896V20.0844H76.7367V18.8228C76.5111 19.2406 76.177 19.5664 75.7425 19.792C75.3081 20.0259 74.7901 20.1345 74.1802 20.1345C73.3949 20.1345 72.7683 19.9507 72.3172 19.5747C71.8576 19.2071 71.6321 18.7142 71.6321 18.1043C71.6321 17.5195 71.8409 17.0349 72.267 16.6757C72.6848 16.3081 73.3615 16.1243 74.2805 16.1243H76.7117V15.5562C76.7117 14.8962 76.5362 14.3949 76.177 14.0524C75.8177 13.7098 75.2997 13.5344 74.6063 13.5344C74.1384 13.5344 73.6873 13.6179 73.2529 13.7767C72.8268 13.9438 72.4592 14.161 72.1584 14.4283L71.8159 13.9354C72.1668 13.6179 72.5929 13.3756 73.0941 13.1918C73.5954 13.0164 74.1134 12.9245 74.6564 12.9245C75.5337 12.9412 76.2104 13.1668 76.6782 13.6179ZM75.7759 19.1737C76.1853 18.898 76.4944 18.5053 76.7033 17.9957V16.6673H74.2888C73.5954 16.6673 73.0858 16.7927 72.7767 17.0517C72.4675 17.3023 72.3088 17.6532 72.3088 18.096C72.3088 18.5555 72.4842 18.9231 72.8268 19.1904C73.1693 19.4578 73.6539 19.5914 74.2805 19.5914C74.8653 19.5831 75.3666 19.4494 75.7759 19.1737Z" fill="white"/>
<path d="M80.1286 11.1199C80.02 11.0197 79.9615 10.886 79.9615 10.7356C79.9615 10.5852 80.02 10.4515 80.1286 10.3429C80.2372 10.2343 80.3709 10.1758 80.5213 10.1758C80.6717 10.1758 80.8054 10.226 80.914 10.3346C81.0226 10.4348 81.0811 10.5685 81.0811 10.7189C81.0811 10.8693 81.0226 11.0029 80.914 11.1116C80.8054 11.2202 80.6717 11.2786 80.5213 11.2786C80.3709 11.2703 80.2372 11.2202 80.1286 11.1199ZM80.1871 12.9997H80.8638V20.0844H80.1871V12.9997Z" fill="white"/>
<path d="M83.7295 10.0088H84.4062V20.0844H83.7295V10.0088Z" fill="white"/>
<path d="M91.683 13.6179C92.1509 14.0691 92.3931 14.7207 92.3931 15.5896V20.0844H91.7415V18.8228C91.5159 19.2406 91.1817 19.5664 90.7473 19.792C90.3128 20.0259 89.7949 20.1345 89.185 20.1345C88.3997 20.1345 87.7731 19.9507 87.3219 19.5747C86.8624 19.2071 86.6368 18.7142 86.6368 18.1043C86.6368 17.5195 86.8457 17.0349 87.2718 16.6757C87.6895 16.3081 88.3662 16.1243 89.2852 16.1243H91.7164V15.5562C91.7164 14.8962 91.541 14.3949 91.1817 14.0524C90.8225 13.7098 90.3045 13.5344 89.6111 13.5344C89.1432 13.5344 88.6921 13.6179 88.2576 13.7767C87.8315 13.9438 87.4639 14.161 87.1632 14.4283L86.8206 13.9354C87.1715 13.6179 87.5976 13.3756 88.0989 13.1918C88.6002 13.0164 89.1181 12.9245 89.6612 12.9245C90.5384 12.9412 91.2151 13.1668 91.683 13.6179ZM90.7807 19.1737C91.1901 18.898 91.4992 18.5053 91.7081 17.9957V16.6673H89.2936C88.6002 16.6673 88.0905 16.7927 87.7814 17.0517C87.4723 17.3023 87.3136 17.6532 87.3136 18.096C87.3136 18.5555 87.489 18.9231 87.8315 19.1904C88.1741 19.4578 88.6586 19.5914 89.2852 19.5914C89.8701 19.5831 90.3713 19.4494 90.7807 19.1737Z" fill="white"/>
<path d="M100.539 13.4007C101.074 13.7015 101.491 14.1276 101.792 14.679C102.093 15.2304 102.243 15.8486 102.243 16.5421C102.243 17.2355 102.093 17.8621 101.792 18.4051C101.491 18.9482 101.074 19.3743 100.539 19.6834C100.004 19.9925 99.411 20.1429 98.7426 20.1429C98.1077 20.1429 97.5396 19.9925 97.0216 19.6917C96.512 19.391 96.1109 18.9649 95.8352 18.4218V20.0928H95.1836V10.0088H95.8603V14.6122C96.1444 14.0858 96.537 13.6764 97.0383 13.384C97.5479 13.0916 98.1077 12.9412 98.7343 12.9412C99.411 12.9412 100.004 13.0916 100.539 13.4007ZM100.171 19.1487C100.606 18.898 100.948 18.5388 101.199 18.0877C101.45 17.6365 101.575 17.1185 101.575 16.5421C101.575 15.9656 101.45 15.4476 101.199 14.9965C100.948 14.5453 100.606 14.1944 100.171 13.9354C99.7368 13.6848 99.2439 13.5511 98.7009 13.5511C98.1578 13.5511 97.6733 13.6764 97.2388 13.9354C96.8127 14.1861 96.4702 14.5453 96.2196 14.9965C95.9689 15.4476 95.8436 15.9656 95.8436 16.5421C95.8436 17.1185 95.9689 17.6365 96.2196 18.0877C96.4702 18.5388 96.8044 18.8897 97.2388 19.1487C97.6649 19.3993 98.1578 19.533 98.7009 19.533C99.2523 19.5246 99.7368 19.3993 100.171 19.1487Z" fill="white"/>
<path d="M104.357 10.0088H105.034V20.0844H104.357V10.0088Z" fill="white"/>
<path d="M113.889 16.7008H107.791C107.807 17.2522 107.949 17.7451 108.208 18.1712C108.467 18.5973 108.827 18.9314 109.278 19.1654C109.729 19.3993 110.23 19.5163 110.79 19.5163C111.249 19.5163 111.675 19.4327 112.077 19.2656C112.469 19.0985 112.795 18.8479 113.062 18.5221L113.455 18.9732C113.146 19.3408 112.762 19.6332 112.294 19.8254C111.826 20.0259 111.325 20.1261 110.782 20.1261C110.071 20.1261 109.445 19.9758 108.893 19.6666C108.342 19.3575 107.908 18.9314 107.598 18.3884C107.289 17.8453 107.131 17.2271 107.131 16.5253C107.131 15.8402 107.281 15.222 107.573 14.6706C107.866 14.1192 108.275 13.6931 108.785 13.384C109.303 13.0749 109.879 12.9245 110.523 12.9245C111.166 12.9245 111.742 13.0749 112.252 13.3756C112.762 13.6764 113.163 14.1025 113.463 14.6455C113.756 15.1886 113.906 15.8068 113.906 16.4919L113.889 16.7008ZM109.177 13.8769C108.776 14.1025 108.459 14.4116 108.217 14.8126C107.974 15.2137 107.841 15.6732 107.799 16.1744H113.229C113.204 15.6648 113.062 15.2137 112.82 14.8126C112.578 14.4116 112.252 14.1025 111.859 13.8769C111.458 13.6513 111.015 13.5344 110.514 13.5344C110.021 13.5427 109.57 13.6513 109.177 13.8769Z" fill="white"/>
<path d="M120.448 19.675C119.913 19.3659 119.487 18.9398 119.178 18.3884C118.869 17.837 118.718 17.2271 118.718 16.5337C118.718 15.8486 118.869 15.2304 119.178 14.679C119.487 14.1276 119.905 13.7015 120.448 13.3924C120.982 13.0832 121.592 12.9329 122.261 12.9329C122.929 12.9329 123.531 13.0832 124.074 13.3924C124.608 13.7015 125.034 14.1276 125.344 14.679C125.653 15.2304 125.803 15.8486 125.803 16.5337C125.803 17.2188 125.653 17.837 125.344 18.3884C125.034 18.9398 124.608 19.3659 124.074 19.675C123.539 19.9841 122.929 20.1345 122.261 20.1345C121.592 20.1429 120.991 19.9841 120.448 19.675ZM123.723 19.1487C124.149 18.898 124.491 18.5388 124.742 18.0876C124.993 17.6365 125.118 17.1185 125.118 16.542C125.118 15.9656 124.993 15.4476 124.742 14.9964C124.491 14.5453 124.157 14.1944 123.723 13.9354C123.297 13.6848 122.804 13.5511 122.261 13.5511C121.718 13.5511 121.233 13.6764 120.799 13.9354C120.373 14.186 120.03 14.5453 119.779 14.9964C119.529 15.4476 119.403 15.9656 119.403 16.542C119.403 17.1185 119.529 17.6365 119.779 18.0876C120.03 18.5388 120.364 18.8897 120.799 19.1487C121.225 19.3993 121.718 19.533 122.261 19.533C122.804 19.5246 123.297 19.3993 123.723 19.1487Z" fill="white"/>
<path d="M133.481 13.7182C133.999 14.2362 134.258 14.9797 134.258 15.9488V20.0927H133.581V16.0073C133.581 15.2136 133.381 14.6038 132.98 14.186C132.579 13.7683 132.011 13.5594 131.292 13.5594C130.457 13.5594 129.805 13.8101 129.32 14.303C128.844 14.8043 128.602 15.4726 128.602 16.3164V20.0927H127.925V13.008H128.577V14.5453C128.819 14.044 129.187 13.6597 129.671 13.3756C130.156 13.0916 130.724 12.9579 131.392 12.9579C132.261 12.9412 132.963 13.2002 133.481 13.7182Z" fill="white"/>
<path d="M144.058 19.6332C143.882 19.8003 143.673 19.9173 143.414 20.0092C143.155 20.0927 142.888 20.1345 142.604 20.1345C141.986 20.1345 141.51 19.9674 141.175 19.6249C140.841 19.2823 140.674 18.8145 140.674 18.2046V13.5762H139.371V12.9913H140.674V11.4457H141.351V12.9913H143.607V13.5762H141.351V18.1377C141.351 18.5973 141.459 18.9481 141.685 19.1904C141.911 19.4327 142.236 19.5497 142.671 19.5497C143.114 19.5497 143.481 19.416 143.774 19.157L144.058 19.6332Z" fill="white"/>
<path d="M151.51 13.7182C152.028 14.2362 152.287 14.9798 152.287 15.9489V20.0928H151.61V16.0074C151.61 15.2137 151.41 14.6038 151.009 14.1861C150.608 13.7683 150.04 13.5595 149.321 13.5595C148.486 13.5595 147.834 13.8101 147.35 14.303C146.873 14.8043 146.631 15.4727 146.631 16.3165V20.0928H145.954V10.0088H146.631V14.4785C146.873 13.9856 147.241 13.6096 147.717 13.3423C148.193 13.0749 148.761 12.9412 149.413 12.9412C150.29 12.9412 150.992 13.2002 151.51 13.7182Z" fill="white"/>
<path d="M161.084 16.7008H154.986C155.002 17.2522 155.144 17.7451 155.403 18.1712C155.662 18.5973 156.022 18.9314 156.473 19.1654C156.924 19.3993 157.425 19.5163 157.985 19.5163C158.444 19.5163 158.87 19.4327 159.271 19.2656C159.664 19.0985 159.99 18.8479 160.257 18.5221L160.65 18.9732C160.341 19.3408 159.957 19.6332 159.489 19.8254C159.021 20.0259 158.52 20.1261 157.977 20.1261C157.266 20.1261 156.64 19.9758 156.088 19.6666C155.537 19.3575 155.103 18.9314 154.793 18.3884C154.484 17.8453 154.326 17.2271 154.326 16.5253C154.326 15.8402 154.476 15.222 154.768 14.6706C155.061 14.1192 155.47 13.6931 155.98 13.384C156.498 13.0749 157.074 12.9245 157.718 12.9245C158.361 12.9245 158.937 13.0749 159.447 13.3756C159.957 13.6764 160.358 14.1025 160.658 14.6455C160.951 15.1886 161.101 15.8068 161.101 16.4919L161.084 16.7008ZM156.372 13.8769C155.971 14.1025 155.654 14.4116 155.412 14.8126C155.169 15.2137 155.036 15.6732 154.994 16.1744H160.424C160.399 15.6648 160.257 15.2137 160.015 14.8126C159.773 14.4116 159.447 14.1025 159.054 13.8769C158.653 13.6513 158.21 13.5344 157.709 13.5344C157.216 13.5427 156.773 13.6513 156.372 13.8769Z" fill="white"/>
<path d="M65.55 36.7434H68.3404V43.0678C67.5217 43.7194 66.5692 44.2207 65.4831 44.5633C64.397 44.9141 63.2775 45.0812 62.1246 45.0812C60.5038 45.0812 59.0501 44.7303 57.7468 44.0286C56.4435 43.3268 55.4242 42.3576 54.689 41.1128C53.9455 39.8763 53.5779 38.4728 53.5779 36.9188C53.5779 35.3649 53.9455 33.9613 54.689 32.7248C55.4326 31.4884 56.4519 30.5109 57.7635 29.8091C59.0752 29.1073 60.5456 28.7564 62.1747 28.7564C63.5031 28.7564 64.7145 28.9736 65.8006 29.4164C66.8867 29.8592 67.8057 30.4942 68.5409 31.3463L66.6778 33.1593C65.4664 31.9479 64.0127 31.3463 62.3001 31.3463C61.1805 31.3463 60.1863 31.5803 59.3175 32.0481C58.4486 32.516 57.7635 33.176 57.279 34.0198C56.786 34.8636 56.5438 35.8327 56.5438 36.9188C56.5438 37.9798 56.786 38.9323 57.279 39.7761C57.7719 40.6199 58.4486 41.2883 59.3175 41.7728C60.1863 42.2574 61.1722 42.4997 62.275 42.4997C63.5115 42.4997 64.6059 42.224 65.5416 41.6809V36.7434H65.55Z" fill="white"/>
<path d="M74.0716 44.2207C73.0857 43.6944 72.3255 42.9508 71.7657 42.0067C71.2143 41.0627 70.9386 39.9933 70.9386 38.7986C70.9386 37.6039 71.2143 36.5429 71.7657 35.5988C72.3171 34.6631 73.0857 33.9279 74.0716 33.4015C75.0574 32.8752 76.1602 32.6078 77.38 32.6078C78.6164 32.6078 79.7276 32.8752 80.7134 33.4015C81.6993 33.9279 82.4595 34.6631 83.0193 35.5988C83.5707 36.5345 83.8464 37.6039 83.8464 38.7986C83.8464 39.9933 83.5707 41.0627 83.0193 42.0067C82.4679 42.9508 81.6993 43.686 80.7134 44.2207C79.7276 44.747 78.6164 45.0144 77.38 45.0144C76.1602 45.0144 75.0574 44.7554 74.0716 44.2207ZM79.9699 41.5472C80.6466 40.8538 80.9891 39.9348 80.9891 38.8069C80.9891 37.6707 80.6466 36.7601 79.9699 36.0666C79.2932 35.3732 78.4243 35.0223 77.3883 35.0223C76.3524 35.0223 75.4835 35.3732 74.8151 36.0666C74.1384 36.7601 73.8042 37.6791 73.8042 38.8069C73.8042 39.9432 74.1384 40.8538 74.8151 41.5472C75.4918 42.2407 76.344 42.5916 77.3883 42.5916C78.4326 42.5916 79.2932 42.2407 79.9699 41.5472Z" fill="white"/>
<path d="M88.7005 44.2207C87.7146 43.6944 86.9544 42.9508 86.3946 42.0067C85.8432 41.0627 85.5675 39.9933 85.5675 38.7986C85.5675 37.6039 85.8432 36.5429 86.3946 35.5988C86.946 34.6631 87.7146 33.9279 88.7005 33.4015C89.6863 32.8752 90.7891 32.6078 92.0089 32.6078C93.2454 32.6078 94.3565 32.8752 95.3423 33.4015C96.3282 33.9279 97.0885 34.6631 97.6482 35.5988C98.1996 36.5345 98.4753 37.6039 98.4753 38.7986C98.4753 39.9933 98.1996 41.0627 97.6482 42.0067C97.0968 42.9508 96.3282 43.686 95.3423 44.2207C94.3565 44.747 93.2454 45.0144 92.0089 45.0144C90.7891 45.0144 89.6863 44.7554 88.7005 44.2207ZM94.5988 41.5472C95.2755 40.8538 95.6181 39.9348 95.6181 38.8069C95.6181 37.6707 95.2755 36.7601 94.5988 36.0666C93.9221 35.3732 93.0532 35.0223 92.0172 35.0223C90.9729 35.0223 90.1124 35.3732 89.444 36.0666C88.7673 36.7601 88.4331 37.6791 88.4331 38.8069C88.4331 39.9432 88.7673 40.8538 89.444 41.5472C90.1207 42.2407 90.9729 42.5916 92.0172 42.5916C93.0532 42.5916 93.9137 42.2407 94.5988 41.5472Z" fill="white"/>
<path d="M113.213 32.7499V43.026C113.213 47.2868 111.032 49.4172 106.68 49.4172C105.518 49.4172 104.415 49.2669 103.371 48.9745C102.327 48.682 101.466 48.256 100.79 47.6962L102.059 45.5658C102.586 46.0002 103.254 46.3595 104.065 46.6185C104.875 46.8858 105.694 47.0111 106.529 47.0111C107.857 47.0111 108.835 46.7104 109.453 46.1005C110.071 45.499 110.381 44.5716 110.381 43.3351V42.7002C109.896 43.2265 109.303 43.6275 108.609 43.9032C107.916 44.1789 107.147 44.3126 106.32 44.3126C105.167 44.3126 104.131 44.0703 103.204 43.5774C102.277 43.0845 101.541 42.3911 101.007 41.5055C100.472 40.6115 100.205 39.5923 100.205 38.4477C100.205 37.2948 100.472 36.2839 101.007 35.3983C101.541 34.5127 102.277 33.8276 103.204 33.3431C104.131 32.8585 105.176 32.6162 106.32 32.6162C107.197 32.6162 107.991 32.7582 108.71 33.0506C109.428 33.3347 110.03 33.7775 110.514 34.3623V32.7499H113.213ZM109.395 40.9457C110.08 40.3024 110.431 39.467 110.431 38.4393C110.431 37.4284 110.088 36.6013 109.395 35.9664C108.71 35.3314 107.824 35.014 106.755 35.014C105.669 35.014 104.775 35.3314 104.09 35.9664C103.405 36.6013 103.054 37.4284 103.054 38.4393C103.054 39.467 103.396 40.3024 104.09 40.9457C104.775 41.589 105.669 41.9065 106.755 41.9065C107.824 41.9148 108.71 41.589 109.395 40.9457Z" fill="white"/>
<path d="M116.931 28.0295H119.763V44.8556H116.931V28.0295Z" fill="white"/>
<path d="M134.826 39.7092H125.327C125.494 40.6032 125.928 41.305 126.63 41.8313C127.332 42.3493 128.209 42.6166 129.253 42.6166C130.582 42.6166 131.676 42.1822 132.545 41.305L134.066 43.0511C133.523 43.7027 132.829 44.1956 132.002 44.5215C131.167 44.8557 130.231 45.0227 129.187 45.0227C127.858 45.0227 126.68 44.7554 125.669 44.2291C124.658 43.7027 123.873 42.9592 123.322 42.0151C122.77 41.071 122.495 40.0016 122.495 38.8069C122.495 37.629 122.762 36.5679 123.297 35.6239C123.831 34.6798 124.575 33.9446 125.527 33.4099C126.48 32.8836 127.549 32.6162 128.744 32.6162C129.922 32.6162 130.975 32.8752 131.91 33.4015C132.838 33.9195 133.564 34.6547 134.091 35.5988C134.609 36.5429 134.876 37.6373 134.876 38.8738C134.868 39.0659 134.859 39.35 134.826 39.7092ZM126.446 35.6823C125.82 36.217 125.435 36.9355 125.302 37.8295H132.169C132.052 36.9522 131.676 36.2421 131.058 35.699C130.44 35.156 129.663 34.8803 128.744 34.8803C127.842 34.8803 127.073 35.1476 126.446 35.6823Z" fill="white"/>
<path d="M154.25 29.6671C155.27 30.1182 156.055 30.7699 156.598 31.6137C157.141 32.4575 157.417 33.4684 157.417 34.6297C157.417 35.7826 157.141 36.7768 156.598 37.6373C156.055 38.4895 155.27 39.1495 154.25 39.6007C153.231 40.0518 152.028 40.2774 150.658 40.2774H147.074V44.8557H144.125V28.982H150.658C152.028 28.982 153.231 29.2159 154.25 29.6671ZM153.44 36.969C154.108 36.4259 154.434 35.6489 154.434 34.6297C154.434 33.6188 154.1 32.8418 153.44 32.2904C152.772 31.7474 151.802 31.4717 150.516 31.4717H147.065V37.7794H150.516C151.802 37.7877 152.78 37.512 153.44 36.969Z" fill="white"/>
<path d="M160.316 28.0295H163.148V44.8556H160.316V28.0295Z" fill="white"/>
<path d="M175.588 33.8945C176.532 34.7466 177.008 36.0416 177.008 37.7626V44.864H174.335V43.3936C173.984 43.9199 173.491 44.3293 172.848 44.605C172.204 44.8807 171.427 45.0227 170.525 45.0227C169.623 45.0227 168.821 44.864 168.144 44.5549C167.467 44.2458 166.941 43.8113 166.565 43.2599C166.197 42.7085 166.005 42.0819 166.005 41.3885C166.005 40.3024 166.406 39.4252 167.217 38.7652C168.027 38.1052 169.297 37.7793 171.035 37.7793H174.168V37.5955C174.168 36.7517 173.917 36.1001 173.407 35.6489C172.898 35.1978 172.146 34.9722 171.152 34.9722C170.475 34.9722 169.798 35.0808 169.147 35.2897C168.487 35.4985 167.935 35.7993 167.476 36.1753L166.364 34.1117C166.999 33.6271 167.76 33.2595 168.654 33.0005C169.548 32.7415 170.492 32.6162 171.486 32.6162C173.282 32.6162 174.644 33.0423 175.588 33.8945ZM173.006 42.4662C173.558 42.1404 173.95 41.6726 174.176 41.071V39.6675H171.252C169.623 39.6675 168.804 40.2022 168.804 41.2799C168.804 41.7979 169.005 42.1989 169.414 42.508C169.823 42.8088 170.391 42.9592 171.118 42.9592C171.82 42.9508 172.447 42.7921 173.006 42.4662Z" fill="white"/>
<path d="M191.746 32.7499L186.073 45.8331C185.547 47.1448 184.903 48.0722 184.143 48.6152C183.383 49.1499 182.472 49.4172 181.403 49.4172C180.801 49.4172 180.2 49.317 179.615 49.1248C179.022 48.9243 178.545 48.657 178.161 48.3061L179.297 46.2174C179.573 46.4764 179.891 46.6769 180.258 46.8273C180.626 46.9777 181.002 47.0529 181.378 47.0529C181.879 47.0529 182.288 46.9276 182.614 46.6686C182.94 46.4096 183.241 45.9835 183.508 45.3736L183.709 44.8974L178.437 32.7499H181.386L185.196 41.706L189.03 32.7499H191.746Z" fill="white"/>
<path d="M48.1224 29.6336L40.503 25.2391L34.2371 31.2962L39.9683 36.8353L48.1307 32.1233C48.5819 31.8643 48.8492 31.3965 48.8492 30.8785C48.8408 30.3605 48.5735 29.8926 48.1224 29.6336Z" fill="white"/>
<path d="M39.2165 24.4872L30.8285 19.6499L12.4485 10.2343L33.2096 30.302L39.2165 24.4872Z" fill="white"/>
<path d="M12.7573 52.0657L30.8617 42.0903L38.6732 37.5789L33.2093 32.2988L12.7573 52.0657Z" fill="white"/>
<path d="M11.2203 11.0447L11.2036 51.5644L32.1736 31.2962L11.2203 11.0447Z" fill="white"/>
</svg>
