<svg width="245" height="184" viewBox="0 0 245 184" fill="none" xmlns="http://www.w3.org/2000/svg">
<path d="M225 1H5C2.79086 1 1 2.79086 1 5V179C1 181.209 2.79086 183 5 183H225C227.209 183 229 181.209 229 179V5C229 2.79086 227.209 1 225 1Z" fill="white"/>
<path fill-rule="evenodd" clip-rule="evenodd" d="M5 2C3.34315 2 2 3.34315 2 5V179C2 180.657 3.34315 182 5 182H225C226.657 182 228 180.657 228 179V5C228 3.34315 226.657 2 225 2H5ZM0 5C0 2.23858 2.23858 0 5 0H225C227.761 0 230 2.23858 230 5V179C230 181.761 227.761 184 225 184H5C2.23858 184 0 181.761 0 179V5Z" fill="#D7D7D7"/>
<path fill-rule="evenodd" clip-rule="evenodd" d="M212.547 87.9658H16.6211C16.2592 87.9658 15.9658 88.2592 15.9658 88.6211V106.313C15.9658 106.675 16.2592 106.969 16.6211 106.969H212.547C212.909 106.969 213.202 106.675 213.202 106.313V88.6211C213.202 88.2592 212.909 87.9658 212.547 87.9658ZM16.6211 86C15.1735 86 14 87.1735 14 88.6211V106.313C14 107.761 15.1735 108.935 16.6211 108.935H212.547C213.995 108.935 215.168 107.761 215.168 106.313V88.6211C215.168 87.1735 213.995 86 212.547 86H16.6211Z" fill="#E7E7E7"/>
<path d="M210 88.5127H17V106.513H210V88.5127Z" fill="#FE4D4D"/>
<path d="M19.91 101.513V91.6988H21.968V94.1068L21.87 95.3528C22.1313 95.1195 22.4347 94.9048 22.78 94.7088C23.1253 94.5035 23.536 94.4008 24.012 94.4008C24.768 94.4008 25.314 94.6481 25.65 95.1428C25.9953 95.6375 26.168 96.3235 26.168 97.2008V101.513H24.11V97.4668C24.11 96.9628 24.04 96.6175 23.9 96.4308C23.7693 96.2441 23.5547 96.1508 23.256 96.1508C22.9947 96.1508 22.7707 96.2115 22.584 96.3328C22.3973 96.4448 22.192 96.6081 21.968 96.8228V101.513H19.91ZM30.582 101.681C30.1527 101.681 29.784 101.615 29.476 101.485C29.1774 101.354 28.93 101.172 28.734 100.939C28.5474 100.705 28.4074 100.425 28.314 100.099C28.23 99.7628 28.188 99.3941 28.188 98.9928V96.1788H27.236V94.6528L28.3 94.5688L28.538 92.7208H30.246V94.5688H31.912V96.1788H30.246V98.9648C30.246 99.3568 30.3254 99.6415 30.484 99.8188C30.652 99.9868 30.8714 100.071 31.142 100.071C31.254 100.071 31.366 100.057 31.478 100.029C31.5994 100.001 31.7067 99.9681 31.8 99.9308L32.122 101.429C31.9354 101.485 31.716 101.541 31.464 101.597C31.212 101.653 30.918 101.681 30.582 101.681ZM35.668 101.681C35.2387 101.681 34.87 101.615 34.562 101.485C34.2633 101.354 34.016 101.172 33.82 100.939C33.6333 100.705 33.4933 100.425 33.4 100.099C33.316 99.7628 33.274 99.3941 33.274 98.9928V96.1788H32.322V94.6528L33.386 94.5688L33.624 92.7208H35.332V94.5688H36.998V96.1788H35.332V98.9648C35.332 99.3568 35.4113 99.6415 35.57 99.8188C35.738 99.9868 35.9573 100.071 36.228 100.071C36.34 100.071 36.452 100.057 36.564 100.029C36.6853 100.001 36.7927 99.9681 36.886 99.9308L37.208 101.429C37.0213 101.485 36.802 101.541 36.55 101.597C36.298 101.653 36.004 101.681 35.668 101.681ZM38.3534 104.089V94.5688H40.0334L40.1734 95.2548H40.2294C40.5 95.0121 40.8034 94.8115 41.1394 94.6528C41.4847 94.4848 41.8394 94.4008 42.2034 94.4008C42.6234 94.4008 43.0014 94.4848 43.3374 94.6528C43.6734 94.8208 43.958 95.0588 44.1914 95.3668C44.4247 95.6748 44.602 96.0481 44.7234 96.4868C44.854 96.9161 44.9194 97.3968 44.9194 97.9288C44.9194 98.5261 44.8354 99.0581 44.6674 99.5248C44.5087 99.9821 44.2894 100.374 44.0094 100.701C43.7387 101.018 43.426 101.261 43.0714 101.429C42.726 101.597 42.3667 101.681 41.9934 101.681C41.6947 101.681 41.4054 101.62 41.1254 101.499C40.8454 101.368 40.584 101.186 40.3414 100.953L40.4114 102.059V104.089H38.3534ZM41.5174 100.001C41.872 100.001 42.1754 99.8421 42.4274 99.5248C42.6794 99.1981 42.8054 98.6755 42.8054 97.9568C42.8054 96.7061 42.404 96.0808 41.6014 96.0808C41.2 96.0808 40.8034 96.2908 40.4114 96.7108V99.5528C40.598 99.7208 40.7847 99.8375 40.9714 99.9028C41.158 99.9681 41.34 100.001 41.5174 100.001ZM48.3544 101.681C47.8971 101.681 47.4257 101.592 46.9404 101.415C46.4644 101.237 46.0491 101.004 45.6944 100.715L46.6184 99.4268C46.9357 99.6695 47.2391 99.8515 47.5284 99.9728C47.8177 100.094 48.1117 100.155 48.4104 100.155C48.7184 100.155 48.9424 100.103 49.0824 100.001C49.2224 99.8981 49.2924 99.7535 49.2924 99.5668C49.2924 99.4548 49.2504 99.3568 49.1664 99.2728C49.0917 99.1795 48.9844 99.0955 48.8444 99.0208C48.7137 98.9461 48.5644 98.8808 48.3964 98.8248C48.2284 98.7595 48.0557 98.6895 47.8784 98.6148C47.6637 98.5308 47.4491 98.4328 47.2344 98.3208C47.0197 98.2088 46.8237 98.0735 46.6464 97.9148C46.4691 97.7468 46.3244 97.5555 46.2124 97.3408C46.1004 97.1168 46.0444 96.8601 46.0444 96.5708C46.0444 96.2535 46.1051 95.9595 46.2264 95.6888C46.3571 95.4181 46.5391 95.1895 46.7724 95.0028C47.0057 94.8161 47.2857 94.6715 47.6124 94.5688C47.9391 94.4568 48.3031 94.4008 48.7044 94.4008C49.2364 94.4008 49.7031 94.4941 50.1044 94.6808C50.5057 94.8581 50.8557 95.0588 51.1544 95.2828L50.2304 96.5148C49.9784 96.3281 49.7311 96.1835 49.4884 96.0808C49.2457 95.9781 49.0031 95.9268 48.7604 95.9268C48.2377 95.9268 47.9764 96.1088 47.9764 96.4728C47.9764 96.5848 48.0137 96.6828 48.0884 96.7668C48.1631 96.8415 48.2611 96.9115 48.3824 96.9768C48.5131 97.0421 48.6577 97.1075 48.8164 97.1728C48.9844 97.2288 49.1571 97.2895 49.3344 97.3548C49.5584 97.4388 49.7777 97.5368 49.9924 97.6488C50.2164 97.7515 50.4171 97.8821 50.5944 98.0408C50.7811 98.1995 50.9304 98.3955 51.0424 98.6288C51.1544 98.8528 51.2104 99.1235 51.2104 99.4408C51.2104 99.7581 51.1497 100.052 51.0284 100.323C50.9071 100.593 50.7251 100.831 50.4824 101.037C50.2397 101.233 49.9411 101.391 49.5864 101.513C49.2317 101.625 48.8211 101.681 48.3544 101.681ZM53.7074 97.1448C53.3528 97.1448 53.0541 97.0235 52.8114 96.7808C52.5781 96.5288 52.4614 96.2208 52.4614 95.8568C52.4614 95.4835 52.5781 95.1755 52.8114 94.9328C53.0541 94.6808 53.3528 94.5548 53.7074 94.5548C54.0621 94.5548 54.3561 94.6808 54.5894 94.9328C54.8321 95.1755 54.9534 95.4835 54.9534 95.8568C54.9534 96.2208 54.8321 96.5288 54.5894 96.7808C54.3561 97.0235 54.0621 97.1448 53.7074 97.1448ZM53.7074 101.681C53.3528 101.681 53.0541 101.559 52.8114 101.317C52.5781 101.065 52.4614 100.757 52.4614 100.393C52.4614 100.019 52.5781 99.7115 52.8114 99.4688C53.0541 99.2168 53.3528 99.0908 53.7074 99.0908C54.0621 99.0908 54.3561 99.2168 54.5894 99.4688C54.8321 99.7115 54.9534 100.019 54.9534 100.393C54.9534 100.757 54.8321 101.065 54.5894 101.317C54.3561 101.559 54.0621 101.681 53.7074 101.681ZM55.9867 103.753L58.8007 91.5728H60.1447L57.3307 103.753H55.9867ZM60.7308 103.753L63.5448 91.5728H64.8888L62.0748 103.753H60.7308ZM67.365 101.513L65.629 94.5688H67.673L68.345 97.7888C68.401 98.1341 68.4523 98.4748 68.499 98.8108C68.5456 99.1468 68.597 99.4921 68.653 99.8468H68.709C68.7743 99.4921 68.835 99.1421 68.891 98.7968C68.9563 98.4515 69.031 98.1155 69.115 97.7888L69.885 94.5688H71.663L72.447 97.7888C72.531 98.1341 72.6056 98.4748 72.671 98.8108C72.7363 99.1468 72.8063 99.4921 72.881 99.8468H72.937C73.0023 99.4921 73.0536 99.1468 73.091 98.8108C73.1376 98.4748 73.1936 98.1341 73.259 97.7888L73.917 94.5688H75.821L74.155 101.513H71.747L71.117 98.7408C71.0423 98.4141 70.977 98.0875 70.921 97.7608C70.865 97.4341 70.8043 97.0841 70.739 96.7108H70.683C70.6176 97.0841 70.557 97.4341 70.501 97.7608C70.4543 98.0875 70.3983 98.4141 70.333 98.7408L69.717 101.513H67.365ZM78.2341 101.513L76.4981 94.5688H78.5421L79.2141 97.7888C79.2701 98.1341 79.3214 98.4748 79.3681 98.8108C79.4148 99.1468 79.4661 99.4921 79.5221 99.8468H79.5781C79.6434 99.4921 79.7041 99.1421 79.7601 98.7968C79.8254 98.4515 79.9001 98.1155 79.9841 97.7888L80.7541 94.5688H82.5321L83.3161 97.7888C83.4001 98.1341 83.4748 98.4748 83.5401 98.8108C83.6054 99.1468 83.6754 99.4921 83.7501 99.8468H83.8061C83.8714 99.4921 83.9228 99.1468 83.9601 98.8108C84.0068 98.4748 84.0628 98.1341 84.1281 97.7888L84.7861 94.5688H86.6901L85.0241 101.513H82.6161L81.9861 98.7408C81.9114 98.4141 81.8461 98.0875 81.7901 97.7608C81.7341 97.4341 81.6734 97.0841 81.6081 96.7108H81.5521C81.4868 97.0841 81.4261 97.4341 81.3701 97.7608C81.3234 98.0875 81.2674 98.4141 81.2021 98.7408L80.5861 101.513H78.2341ZM89.1033 101.513L87.3673 94.5688H89.4113L90.0833 97.7888C90.1393 98.1341 90.1906 98.4748 90.2373 98.8108C90.2839 99.1468 90.3353 99.4921 90.3913 99.8468H90.4473C90.5126 99.4921 90.5733 99.1421 90.6292 98.7968C90.6946 98.4515 90.7692 98.1155 90.8533 97.7888L91.6233 94.5688H93.4013L94.1853 97.7888C94.2693 98.1341 94.3439 98.4748 94.4093 98.8108C94.4746 99.1468 94.5446 99.4921 94.6193 99.8468H94.6753C94.7406 99.4921 94.7919 99.1468 94.8293 98.8108C94.8759 98.4748 94.9319 98.1341 94.9973 97.7888L95.6553 94.5688H97.5593L95.8933 101.513H93.4853L92.8553 98.7408C92.7806 98.4141 92.7153 98.0875 92.6593 97.7608C92.6033 97.4341 92.5426 97.0841 92.4773 96.7108H92.4213C92.3559 97.0841 92.2953 97.4341 92.2393 97.7608C92.1926 98.0875 92.1366 98.4141 92.0713 98.7408L91.4553 101.513H89.1033ZM98.8383 101.681C98.4836 101.681 98.1849 101.559 97.9423 101.317C97.7089 101.065 97.5923 100.757 97.5923 100.393C97.5923 100.019 97.7089 99.7115 97.9423 99.4688C98.1849 99.2168 98.4836 99.0908 98.8383 99.0908C99.1929 99.0908 99.4869 99.2168 99.7203 99.4688C99.9629 99.7115 100.084 100.019 100.084 100.393C100.084 100.757 99.9629 101.065 99.7203 101.317C99.4869 101.559 99.1929 101.681 98.8383 101.681ZM102.342 104.229C102.127 104.229 101.945 104.215 101.796 104.187C101.647 104.168 101.502 104.135 101.362 104.089L101.726 102.521C101.791 102.539 101.866 102.558 101.95 102.577C102.034 102.595 102.113 102.605 102.188 102.605C102.533 102.605 102.799 102.521 102.986 102.353C103.173 102.185 103.313 101.965 103.406 101.695L103.504 101.331L100.83 94.5688H102.902L103.896 97.5508C103.999 97.8681 104.092 98.1901 104.176 98.5168C104.26 98.8435 104.349 99.1795 104.442 99.5248H104.498C104.573 99.1981 104.647 98.8715 104.722 98.5448C104.806 98.2088 104.89 97.8775 104.974 97.5508L105.814 94.5688H107.788L105.38 101.583C105.212 102.021 105.035 102.404 104.848 102.731C104.671 103.067 104.461 103.342 104.218 103.557C103.985 103.781 103.714 103.949 103.406 104.061C103.107 104.173 102.753 104.229 102.342 104.229ZM111.746 101.681C111.307 101.681 110.882 101.601 110.472 101.443C110.061 101.275 109.697 101.037 109.38 100.729C109.072 100.421 108.824 100.043 108.638 99.5948C108.451 99.1375 108.358 98.6195 108.358 98.0408C108.358 97.4621 108.451 96.9488 108.638 96.5008C108.824 96.0435 109.072 95.6608 109.38 95.3528C109.697 95.0448 110.061 94.8115 110.472 94.6528C110.882 94.4848 111.307 94.4008 111.746 94.4008C112.184 94.4008 112.604 94.4848 113.006 94.6528C113.416 94.8115 113.776 95.0448 114.084 95.3528C114.401 95.6608 114.653 96.0435 114.84 96.5008C115.026 96.9488 115.12 97.4621 115.12 98.0408C115.12 98.6195 115.026 99.1375 114.84 99.5948C114.653 100.043 114.401 100.421 114.084 100.729C113.776 101.037 113.416 101.275 113.006 101.443C112.604 101.601 112.184 101.681 111.746 101.681ZM111.746 100.015C112.166 100.015 112.483 99.8375 112.698 99.4828C112.912 99.1281 113.02 98.6475 113.02 98.0408C113.02 97.4341 112.912 96.9535 112.698 96.5988C112.483 96.2441 112.166 96.0668 111.746 96.0668C111.316 96.0668 110.994 96.2441 110.78 96.5988C110.574 96.9535 110.472 97.4341 110.472 98.0408C110.472 98.6475 110.574 99.1281 110.78 99.4828C110.994 99.8375 111.316 100.015 111.746 100.015ZM118.615 101.681C117.859 101.681 117.308 101.433 116.963 100.939C116.627 100.444 116.459 99.7581 116.459 98.8808V94.5688H118.517V98.6148C118.517 99.1188 118.587 99.4641 118.727 99.6508C118.867 99.8375 119.086 99.9308 119.385 99.9308C119.646 99.9308 119.866 99.8701 120.043 99.7488C120.22 99.6275 120.412 99.4315 120.617 99.1608V94.5688H122.675V101.513H120.995L120.841 100.547H120.799C120.5 100.901 120.178 101.181 119.833 101.387C119.497 101.583 119.091 101.681 118.615 101.681ZM127.16 101.681C126.731 101.681 126.362 101.615 126.054 101.485C125.756 101.354 125.508 101.172 125.312 100.939C125.126 100.705 124.986 100.425 124.892 100.099C124.808 99.7628 124.766 99.3941 124.766 98.9928V96.1788H123.814V94.6528L124.878 94.5688L125.116 92.7208H126.824V94.5688H128.49V96.1788H126.824V98.9648C126.824 99.3568 126.904 99.6415 127.062 99.8188C127.23 99.9868 127.45 100.071 127.72 100.071C127.832 100.071 127.944 100.057 128.056 100.029C128.178 100.001 128.285 99.9681 128.378 99.9308L128.7 101.429C128.514 101.485 128.294 101.541 128.042 101.597C127.79 101.653 127.496 101.681 127.16 101.681ZM131.932 101.681C131.176 101.681 130.625 101.433 130.28 100.939C129.944 100.444 129.776 99.7581 129.776 98.8808V94.5688H131.834V98.6148C131.834 99.1188 131.904 99.4641 132.044 99.6508C132.184 99.8375 132.403 99.9308 132.702 99.9308C132.963 99.9308 133.182 99.8701 133.36 99.7488C133.537 99.6275 133.728 99.4315 133.934 99.1608V94.5688H135.992V101.513H134.312L134.158 100.547H134.116C133.817 100.901 133.495 101.181 133.15 101.387C132.814 101.583 132.408 101.681 131.932 101.681ZM141.443 101.681C141.135 101.681 140.822 101.606 140.505 101.457C140.197 101.298 139.907 101.069 139.637 100.771H139.581L139.413 101.513H137.803V91.6988H139.861V94.1068L139.805 95.1708C140.075 94.9281 140.365 94.7415 140.673 94.6108C140.99 94.4708 141.312 94.4008 141.639 94.4008C142.059 94.4008 142.437 94.4848 142.773 94.6528C143.109 94.8208 143.393 95.0588 143.627 95.3668C143.869 95.6655 144.051 96.0341 144.173 96.4728C144.303 96.9021 144.369 97.3828 144.369 97.9148C144.369 98.5121 144.285 99.0441 144.117 99.5108C143.958 99.9775 143.739 100.374 143.459 100.701C143.188 101.018 142.875 101.261 142.521 101.429C142.175 101.597 141.816 101.681 141.443 101.681ZM140.967 100.001C141.321 100.001 141.625 99.8421 141.877 99.5248C142.129 99.1981 142.255 98.6755 142.255 97.9568C142.255 96.7061 141.853 96.0808 141.051 96.0808C140.64 96.0808 140.243 96.2908 139.861 96.7108V99.5528C140.047 99.7208 140.234 99.8375 140.421 99.9028C140.607 99.9681 140.789 100.001 140.967 100.001ZM148.936 101.681C148.441 101.681 147.979 101.601 147.55 101.443C147.121 101.275 146.747 101.037 146.43 100.729C146.113 100.411 145.865 100.029 145.688 99.5808C145.511 99.1328 145.422 98.6195 145.422 98.0408C145.422 97.4808 145.515 96.9768 145.702 96.5288C145.889 96.0715 146.131 95.6888 146.43 95.3808C146.738 95.0635 147.088 94.8208 147.48 94.6528C147.872 94.4848 148.278 94.4008 148.698 94.4008C149.193 94.4008 149.622 94.4848 149.986 94.6528C150.359 94.8208 150.667 95.0541 150.91 95.3528C151.162 95.6515 151.349 96.0061 151.47 96.4168C151.591 96.8181 151.652 97.2568 151.652 97.7328C151.652 97.9195 151.643 98.0968 151.624 98.2648C151.605 98.4328 151.587 98.5588 151.568 98.6428H147.41C147.503 99.1468 147.709 99.5201 148.026 99.7628C148.353 99.9961 148.749 100.113 149.216 100.113C149.711 100.113 150.21 99.9588 150.714 99.6508L151.4 100.897C151.045 101.139 150.649 101.331 150.21 101.471C149.781 101.611 149.356 101.681 148.936 101.681ZM147.396 97.2848H149.902C149.902 96.8928 149.813 96.5755 149.636 96.3328C149.459 96.0901 149.16 95.9688 148.74 95.9688C148.413 95.9688 148.124 96.0761 147.872 96.2908C147.629 96.5055 147.471 96.8368 147.396 97.2848ZM154.264 101.681C153.909 101.681 153.611 101.559 153.368 101.317C153.135 101.065 153.018 100.757 153.018 100.393C153.018 100.019 153.135 99.7115 153.368 99.4688C153.611 99.2168 153.909 99.0908 154.264 99.0908C154.619 99.0908 154.913 99.2168 155.146 99.4688C155.389 99.7115 155.51 100.019 155.51 100.393C155.51 100.757 155.389 101.065 155.146 101.317C154.913 101.559 154.619 101.681 154.264 101.681ZM160.159 101.681C159.673 101.681 159.221 101.601 158.801 101.443C158.39 101.275 158.031 101.037 157.723 100.729C157.415 100.421 157.172 100.043 156.995 99.5948C156.817 99.1375 156.729 98.6195 156.729 98.0408C156.729 97.4621 156.827 96.9488 157.023 96.5008C157.219 96.0435 157.48 95.6608 157.807 95.3528C158.143 95.0448 158.53 94.8115 158.969 94.6528C159.407 94.4848 159.865 94.4008 160.341 94.4008C160.77 94.4008 161.148 94.4708 161.475 94.6108C161.811 94.7508 162.109 94.9281 162.371 95.1428L161.405 96.4728C161.078 96.2021 160.765 96.0668 160.467 96.0668C159.963 96.0668 159.566 96.2441 159.277 96.5988C158.987 96.9535 158.843 97.4341 158.843 98.0408C158.843 98.6475 158.987 99.1281 159.277 99.4828C159.575 99.8375 159.949 100.015 160.397 100.015C160.621 100.015 160.835 99.9681 161.041 99.8748C161.255 99.7721 161.456 99.6508 161.643 99.5108L162.455 100.855C162.109 101.153 161.736 101.368 161.335 101.499C160.933 101.62 160.541 101.681 160.159 101.681ZM166.255 101.681C165.817 101.681 165.392 101.601 164.981 101.443C164.571 101.275 164.207 101.037 163.889 100.729C163.581 100.421 163.334 100.043 163.147 99.5948C162.961 99.1375 162.867 98.6195 162.867 98.0408C162.867 97.4621 162.961 96.9488 163.147 96.5008C163.334 96.0435 163.581 95.6608 163.889 95.3528C164.207 95.0448 164.571 94.8115 164.981 94.6528C165.392 94.4848 165.817 94.4008 166.255 94.4008C166.694 94.4008 167.114 94.4848 167.515 94.6528C167.926 94.8115 168.285 95.0448 168.593 95.3528C168.911 95.6608 169.163 96.0435 169.349 96.5008C169.536 96.9488 169.629 97.4621 169.629 98.0408C169.629 98.6195 169.536 99.1375 169.349 99.5948C169.163 100.043 168.911 100.421 168.593 100.729C168.285 101.037 167.926 101.275 167.515 101.443C167.114 101.601 166.694 101.681 166.255 101.681ZM166.255 100.015C166.675 100.015 166.993 99.8375 167.207 99.4828C167.422 99.1281 167.529 98.6475 167.529 98.0408C167.529 97.4341 167.422 96.9535 167.207 96.5988C166.993 96.2441 166.675 96.0668 166.255 96.0668C165.826 96.0668 165.504 96.2441 165.289 96.5988C165.084 96.9535 164.981 97.4341 164.981 98.0408C164.981 98.6475 165.084 99.1281 165.289 99.4828C165.504 99.8375 165.826 100.015 166.255 100.015ZM171.039 101.513V94.5688H172.719L172.859 95.4648H172.915C173.204 95.1755 173.512 94.9281 173.839 94.7228C174.166 94.5081 174.558 94.4008 175.015 94.4008C175.51 94.4008 175.906 94.5035 176.205 94.7088C176.513 94.9048 176.756 95.1895 176.933 95.5628C177.241 95.2455 177.563 94.9748 177.899 94.7508C178.244 94.5175 178.65 94.4008 179.117 94.4008C179.864 94.4008 180.41 94.6528 180.755 95.1568C181.11 95.6515 181.287 96.3328 181.287 97.2008V101.513H179.229V97.4668C179.229 96.9628 179.159 96.6175 179.019 96.4308C178.888 96.2441 178.674 96.1508 178.375 96.1508C178.03 96.1508 177.633 96.3748 177.185 96.8228V101.513H175.127V97.4668C175.127 96.9628 175.057 96.6175 174.917 96.4308C174.786 96.2441 174.572 96.1508 174.273 96.1508C173.918 96.1508 173.526 96.3748 173.097 96.8228V101.513H171.039ZM182.315 103.753L185.129 91.5728H186.473L183.659 103.753H182.315ZM188.949 101.513L187.213 94.5688H189.257L189.929 97.7888C189.985 98.1341 190.036 98.4748 190.083 98.8108C190.13 99.1468 190.181 99.4921 190.237 99.8468H190.293C190.358 99.4921 190.419 99.1421 190.475 98.7968C190.54 98.4515 190.615 98.1155 190.699 97.7888L191.469 94.5688H193.247L194.031 97.7888C194.115 98.1341 194.19 98.4748 194.255 98.8108C194.32 99.1468 194.39 99.4921 194.465 99.8468H194.521C194.586 99.4921 194.638 99.1468 194.675 98.8108C194.722 98.4748 194.778 98.1341 194.843 97.7888L195.501 94.5688H197.405L195.739 101.513H193.331L192.701 98.7408C192.626 98.4141 192.561 98.0875 192.505 97.7608C192.449 97.4341 192.388 97.0841 192.323 96.7108H192.267C192.202 97.0841 192.141 97.4341 192.085 97.7608C192.038 98.0875 191.982 98.4141 191.917 98.7408L191.301 101.513H188.949ZM200.269 101.681C199.952 101.681 199.663 101.625 199.401 101.513C199.149 101.41 198.935 101.265 198.757 101.079C198.58 100.883 198.44 100.659 198.337 100.407C198.244 100.155 198.197 99.8795 198.197 99.5808C198.197 98.8528 198.505 98.2835 199.121 97.8728C199.737 97.4621 200.731 97.1868 202.103 97.0468C202.085 96.7388 201.991 96.4961 201.823 96.3188C201.665 96.1321 201.394 96.0388 201.011 96.0388C200.713 96.0388 200.414 96.0948 200.115 96.2068C199.826 96.3188 199.513 96.4728 199.177 96.6688L198.435 95.3108C198.883 95.0401 199.35 94.8208 199.835 94.6528C200.33 94.4848 200.853 94.4008 201.403 94.4008C202.299 94.4008 202.981 94.6575 203.447 95.1708C203.923 95.6748 204.161 96.4635 204.161 97.5368V101.513H202.481L202.341 100.799H202.285C201.987 101.06 201.674 101.275 201.347 101.443C201.021 101.601 200.661 101.681 200.269 101.681ZM200.969 100.085C201.203 100.085 201.403 100.033 201.571 99.9308C201.739 99.8281 201.917 99.6835 202.103 99.4968V98.2788C201.375 98.3815 200.871 98.5308 200.591 98.7268C200.311 98.9228 200.171 99.1561 200.171 99.4268C200.171 99.6508 200.241 99.8188 200.381 99.9308C200.531 100.033 200.727 100.085 200.969 100.085ZM208.33 101.681C207.901 101.681 207.532 101.615 207.224 101.485C206.925 101.354 206.678 101.172 206.482 100.939C206.295 100.705 206.155 100.425 206.062 100.099C205.978 99.7628 205.936 99.3941 205.936 98.9928V96.1788H204.984V94.6528L206.048 94.5688L206.286 92.7208H207.994V94.5688H209.66V96.1788H207.994V98.9648C207.994 99.3568 208.073 99.6415 208.232 99.8188C208.4 99.9868 208.619 100.071 208.89 100.071C209.002 100.071 209.114 100.057 209.226 100.029C209.347 100.001 209.455 99.9681 209.548 99.9308L209.87 101.429C209.683 101.485 209.464 101.541 209.212 101.597C208.96 101.653 208.666 101.681 208.33 101.681Z" fill="#E7E7E7"/>
<g filter="url(#filter0_dd_103_343)">
<path fill-rule="evenodd" clip-rule="evenodd" d="M189.965 105.696C190.405 105.696 190.762 105.339 190.762 104.899V102.395C190.762 101.955 190.405 101.598 189.965 101.598C189.525 101.598 189.168 101.955 189.168 102.395V104.899C189.168 105.339 189.524 105.696 189.965 105.696ZM184.456 103.969C184.768 103.658 185.272 103.658 185.583 103.969L187.354 105.74C187.665 106.051 187.665 106.555 187.354 106.867C187.198 107.022 186.994 107.1 186.791 107.1C186.586 107.1 186.382 107.022 186.226 106.867L184.456 105.096C184.145 104.785 184.145 104.28 184.456 103.969ZM200.937 117.011L205.679 121.753C205.991 122.064 205.991 122.569 205.679 122.879L203.365 125.194C203.216 125.343 203.013 125.428 202.802 125.428C202.591 125.428 202.387 125.343 202.238 125.194L197.496 120.451L195.542 123.835C195.39 124.099 195.1 124.253 194.795 124.231C194.49 124.209 194.225 124.015 194.112 123.731L188.095 108.643C187.977 108.348 188.046 108.01 188.272 107.784C188.497 107.559 188.834 107.49 189.13 107.608L204.217 113.626C204.5 113.739 204.695 114.004 204.717 114.308C204.739 114.613 204.585 114.903 204.32 115.056L200.937 117.011ZM186.183 109.478C186.183 109.038 185.826 108.681 185.386 108.681H182.882C182.442 108.681 182.085 109.038 182.085 109.478C182.085 109.918 182.442 110.275 182.882 110.275H185.386C185.826 110.275 186.183 109.918 186.183 109.478ZM184.089 113.708L185.861 111.937C186.171 111.627 186.676 111.627 186.987 111.937C187.298 112.249 187.298 112.754 186.987 113.065L185.216 114.835C185.061 114.991 184.856 115.068 184.653 115.068C184.449 115.068 184.245 114.991 184.089 114.835C183.778 114.525 183.778 114.02 184.089 113.708ZM193.551 106.5C193.396 106.655 193.192 106.733 192.987 106.733C192.784 106.733 192.58 106.655 192.424 106.5C192.113 106.189 192.113 105.684 192.424 105.373L194.195 103.602C194.506 103.291 195.01 103.291 195.322 103.602C195.633 103.913 195.633 104.418 195.322 104.729L193.551 106.5Z" fill="white"/>
<path d="M200.937 117.011L200.894 116.936L200.798 116.992L200.877 117.07L200.937 117.011ZM197.496 120.451L197.557 120.392L197.478 120.313L197.422 120.409L197.496 120.451ZM190.677 104.899C190.677 105.292 190.357 105.611 189.965 105.611V105.781C190.452 105.781 190.847 105.386 190.847 104.899H190.677ZM190.677 102.395V104.899H190.847V102.395H190.677ZM189.965 101.683C190.358 101.683 190.677 102.002 190.677 102.395H190.847C190.847 101.908 190.452 101.513 189.965 101.513V101.683ZM189.253 102.395C189.253 102.002 189.572 101.683 189.965 101.683V101.513C189.477 101.513 189.083 101.908 189.083 102.395H189.253ZM189.253 104.899V102.395H189.083V104.899H189.253ZM189.965 105.611C189.572 105.611 189.253 105.292 189.253 104.899H189.083C189.083 105.386 189.477 105.781 189.965 105.781V105.611ZM185.643 103.909C185.299 103.565 184.74 103.564 184.396 103.909L184.517 104.029C184.794 103.751 185.245 103.751 185.523 104.029L185.643 103.909ZM187.414 105.679L185.643 103.909L185.523 104.029L187.294 105.8L187.414 105.679ZM187.414 106.927C187.758 106.582 187.758 106.024 187.414 105.679L187.294 105.8C187.572 106.078 187.572 106.529 187.294 106.806L187.414 106.927ZM186.791 107.185C187.016 107.185 187.242 107.099 187.414 106.927L187.294 106.806C187.155 106.946 186.973 107.015 186.791 107.015V107.185ZM186.167 106.927C186.339 107.099 186.564 107.185 186.791 107.185V107.015C186.608 107.015 186.426 106.946 186.287 106.806L186.167 106.927ZM184.396 105.156L186.167 106.927L186.287 106.806L184.517 105.036L184.396 105.156ZM184.396 103.909C184.052 104.253 184.052 104.812 184.396 105.156L184.517 105.036C184.238 104.758 184.238 104.307 184.517 104.029L184.396 103.909ZM205.74 121.692L200.997 116.95L200.877 117.07L205.619 121.813L205.74 121.692ZM205.74 122.94C206.083 122.595 206.083 122.037 205.74 121.692L205.619 121.813C205.897 122.091 205.897 122.542 205.619 122.82L205.74 122.94ZM203.425 125.254L205.74 122.94L205.619 122.82L203.305 125.134L203.425 125.254ZM202.802 125.513C203.036 125.513 203.26 125.42 203.425 125.254L203.305 125.134C203.172 125.268 202.991 125.342 202.802 125.342V125.513ZM202.178 125.254C202.343 125.42 202.568 125.513 202.802 125.513V125.342C202.613 125.342 202.431 125.268 202.299 125.134L202.178 125.254ZM197.436 120.512L202.178 125.254L202.299 125.134L197.557 120.392L197.436 120.512ZM195.616 123.878L197.57 120.494L197.422 120.409L195.468 123.793L195.616 123.878ZM194.789 124.316C195.126 124.341 195.447 124.171 195.616 123.878L195.468 123.793C195.332 124.028 195.073 124.166 194.801 124.146L194.789 124.316ZM194.033 123.763C194.158 124.077 194.451 124.291 194.789 124.316L194.801 124.146C194.528 124.126 194.292 123.954 194.191 123.7L194.033 123.763ZM188.015 108.674L194.033 123.763L194.191 123.7L188.174 108.611L188.015 108.674ZM188.211 107.725C187.962 107.974 187.885 108.348 188.015 108.674L188.174 108.611C188.068 108.348 188.13 108.045 188.332 107.845L188.211 107.725ZM189.162 107.529C188.834 107.398 188.46 107.475 188.211 107.725L188.332 107.845C188.533 107.644 188.834 107.582 189.099 107.687L189.162 107.529ZM204.248 113.547L189.162 107.529L189.099 107.687L204.185 113.705L204.248 113.547ZM204.801 114.302C204.777 113.965 204.563 113.672 204.248 113.547L204.185 113.705C204.438 113.806 204.612 114.043 204.631 114.315L204.801 114.302ZM204.363 115.13C204.655 114.961 204.825 114.639 204.801 114.302L204.631 114.315C204.651 114.587 204.514 114.846 204.277 114.982L204.363 115.13ZM200.98 117.084L204.363 115.13L204.277 114.982L200.894 116.936L200.98 117.084ZM185.386 108.766C185.78 108.766 186.098 109.085 186.098 109.478H186.268C186.268 108.991 185.873 108.596 185.386 108.596V108.766ZM182.882 108.766H185.386V108.596H182.882V108.766ZM182.17 109.478C182.17 109.085 182.489 108.766 182.882 108.766V108.596C182.395 108.596 182 108.991 182 109.478H182.17ZM182.882 110.19C182.489 110.19 182.17 109.871 182.17 109.478H182C182 109.965 182.395 110.36 182.882 110.36V110.19ZM185.386 110.19H182.882V110.36H185.386V110.19ZM186.098 109.478C186.098 109.871 185.78 110.19 185.386 110.19V110.36C185.873 110.36 186.268 109.965 186.268 109.478H186.098ZM185.8 111.878L184.029 113.648L184.149 113.769L185.92 111.998L185.8 111.878ZM187.047 111.878C186.703 111.533 186.145 111.533 185.8 111.878L185.92 111.998C186.198 111.72 186.649 111.72 186.927 111.998L187.047 111.878ZM187.047 113.125C187.391 112.781 187.391 112.222 187.047 111.878L186.927 111.998C187.205 112.276 187.205 112.726 186.927 113.005L187.047 113.125ZM185.277 114.896L187.047 113.125L186.927 113.005L185.156 114.776L185.277 114.896ZM184.653 115.154C184.878 115.154 185.104 115.068 185.277 114.896L185.156 114.776C185.017 114.914 184.835 114.983 184.653 114.983V115.154ZM184.029 114.896C184.201 115.068 184.427 115.154 184.653 115.154V114.983C184.471 114.983 184.289 114.914 184.149 114.776L184.029 114.896ZM184.029 113.648C183.684 113.993 183.684 114.551 184.029 114.896L184.149 114.776C183.871 114.497 183.871 114.046 184.149 113.769L184.029 113.648ZM192.987 106.818C193.214 106.818 193.439 106.732 193.611 106.56L193.491 106.44C193.351 106.579 193.17 106.648 192.987 106.648V106.818ZM192.364 106.56C192.536 106.732 192.762 106.818 192.987 106.818V106.648C192.805 106.648 192.623 106.579 192.484 106.44L192.364 106.56ZM192.364 105.313C192.02 105.657 192.02 106.216 192.364 106.56L192.484 106.44C192.206 106.162 192.206 105.711 192.484 105.433L192.364 105.313ZM194.134 103.542L192.364 105.313L192.484 105.433L194.254 103.662L194.134 103.542ZM195.382 103.542C195.037 103.198 194.479 103.198 194.134 103.542L194.254 103.662C194.533 103.385 194.984 103.385 195.261 103.662L195.382 103.542ZM195.382 104.789C195.726 104.445 195.726 103.886 195.382 103.542L195.261 103.662C195.54 103.94 195.54 104.391 195.261 104.669L195.382 104.789ZM193.611 106.56L195.382 104.789L195.261 104.669L193.491 106.44L193.611 106.56Z" fill="#FFD9D9"/>
</g>
<path d="M63 181H17C15.8954 181 15 180.105 15 179V149C15 147.895 15.8954 147 17 147H63C64.1046 147 65 147.895 65 149V179C65 180.105 64.1046 181 63 181Z" fill="#E7E7E7"/>
<path d="M139 181H93C91.8954 181 91 180.105 91 179V149C91 147.895 91.8954 147 93 147H139C140.105 147 141 147.895 141 149V179C141 180.105 140.105 181 139 181Z" fill="#E7E7E7"/>
<path d="M215 181H169C167.895 181 167 180.105 167 179V149C167 147.895 167.895 147 169 147H215C216.105 147 217 147.895 217 149V179C217 180.105 216.105 181 215 181Z" fill="#E7E7E7"/>
<path d="M21.4362 15.2181C21.4362 16.9954 19.9954 18.4362 18.2181 18.4362C16.4408 18.4362 15 16.9954 15 15.2181C15 13.4408 16.4408 12 18.2181 12C19.9954 12 21.4362 13.4408 21.4362 15.2181Z" fill="#E7E7E7"/>
<path d="M31.7336 15.2181C31.7336 16.9954 30.2928 18.4362 28.5155 18.4362C26.7382 18.4362 25.2974 16.9954 25.2974 15.2181C25.2974 13.4408 26.7382 12 28.5155 12C30.2928 12 31.7336 13.4408 31.7336 15.2181Z" fill="#E7E7E7"/>
<path fill-rule="evenodd" clip-rule="evenodd" d="M38.8129 17.1489C39.8792 17.1489 40.7437 16.2845 40.7437 15.2181C40.7437 14.1518 39.8792 13.2873 38.8129 13.2873C37.7465 13.2873 36.882 14.1518 36.882 15.2181C36.882 16.2845 37.7465 17.1489 38.8129 17.1489ZM38.8129 18.4362C40.5901 18.4362 42.0309 16.9954 42.0309 15.2181C42.0309 13.4408 40.5901 12 38.8129 12C37.0355 12 35.5947 13.4408 35.5947 15.2181C35.5947 16.9954 37.0355 18.4362 38.8129 18.4362Z" fill="#E7E7E7"/>
<path fill-rule="evenodd" clip-rule="evenodd" d="M38.4937 47.1645C39.1141 47.3278 39.6034 47.8059 39.7704 48.4121C40.0806 49.5197 40.0687 51.8284 40.0687 51.8284C40.0687 51.8284 40.0687 54.1253 39.7704 55.233C39.6034 55.8393 39.1141 56.3174 38.4937 56.4805C37.3602 56.772 32.8263 56.772 32.8263 56.772C32.8263 56.772 28.3043 56.772 27.1589 56.4689C26.5384 56.3057 26.0493 55.8276 25.8823 55.2213C25.584 54.1253 25.584 51.8167 25.584 51.8167C25.584 51.8167 25.584 49.5197 25.8823 48.4121C26.0493 47.8059 26.5504 47.3161 27.1589 47.1529C28.2924 46.8613 32.8263 46.8613 32.8263 46.8613C32.8263 46.8613 37.3602 46.8613 38.4937 47.1645ZM35.1533 51.8164L31.3829 53.9383V49.6943L35.1533 51.8164Z" fill="#D7D7D7"/>
<path d="M47.5337 51.8067L49.0301 48.7246H50.2808L48.101 52.8341V55.2283H46.9663V52.8341L44.782 48.7246H46.0372L47.5337 51.8067ZM50.3836 52.7671C50.3836 52.2936 50.4774 51.8677 50.6649 51.4895C50.8525 51.1084 51.1161 50.8165 51.4556 50.614C51.7951 50.4085 52.1852 50.3058 52.6259 50.3058C53.2781 50.3058 53.8067 50.5157 54.2117 50.9356C54.6197 51.3556 54.84 51.9124 54.8728 52.6063L54.8773 52.8609C54.8773 53.3374 54.7849 53.7633 54.6003 54.1384C54.4186 54.5137 54.1565 54.804 53.8141 55.0095C53.4746 55.2149 53.0816 55.3177 52.6349 55.3177C51.9529 55.3177 51.4064 55.0914 50.9955 54.6388C50.5875 54.1831 50.3836 53.5771 50.3836 52.8207V52.7671ZM51.469 52.8609C51.469 53.3582 51.5718 53.7483 51.7772 54.0312C51.9827 54.3112 52.2685 54.4511 52.6349 54.4511C53.0012 54.4511 53.2855 54.3082 53.488 54.0223C53.6935 53.7364 53.7962 53.318 53.7962 52.7671C53.7962 52.2787 53.6905 51.8916 53.4791 51.6057C53.2707 51.3198 52.9862 51.1768 52.6259 51.1768C52.2716 51.1768 51.9901 51.3183 51.7817 51.6012C51.5732 51.8811 51.469 52.301 51.469 52.8609ZM58.7232 54.7548C58.4047 55.1301 57.952 55.3177 57.3653 55.3177C56.8412 55.3177 56.4437 55.1643 56.1727 54.8577C55.9046 54.5509 55.7706 54.1071 55.7706 53.5265V50.3951H56.856V53.5131C56.856 54.1265 57.1107 54.4332 57.62 54.4332C58.1471 54.4332 58.5029 54.2441 58.6876 53.866V50.3951H59.773V55.2283H58.7501L58.7232 54.7548ZM62.2387 49.2203V50.3951H63.092V51.1992H62.2387V53.8972C62.2387 54.0818 62.2745 54.2159 62.3459 54.2993C62.4204 54.3797 62.5514 54.4199 62.7391 54.4199C62.8641 54.4199 62.9907 54.405 63.1187 54.3752V55.2149C62.8716 55.2834 62.6333 55.3177 62.404 55.3177C61.5702 55.3177 61.1533 54.8577 61.1533 53.9374V51.1992H60.3582V50.3951H61.1533V49.2203H62.2387ZM66.853 54.7548C66.5344 55.1301 66.0818 55.3177 65.4952 55.3177C64.971 55.3177 64.5734 55.1643 64.3024 54.8577C64.0344 54.5509 63.9004 54.1071 63.9004 53.5265V50.3951H64.9859V53.5131C64.9859 54.1265 65.2405 54.4332 65.7497 54.4332C66.2768 54.4332 66.6326 54.2441 66.8173 53.866V50.3951H67.9028V55.2283H66.8799L66.853 54.7548ZM73.2497 52.8609C73.2497 53.6113 73.0815 54.2084 72.7449 54.6521C72.4114 55.0958 71.9513 55.3177 71.3647 55.3177C70.7989 55.3177 70.3581 55.1137 70.0424 54.7057L69.9889 55.2283H69.0061V48.3672H70.0916V50.8597C70.4043 50.4904 70.8257 50.3058 71.3557 50.3058C71.9454 50.3058 72.4085 50.5247 72.7449 50.9624C73.0815 51.4002 73.2497 52.0122 73.2497 52.7983V52.8609ZM72.1643 52.7671C72.1643 52.243 72.0719 51.8498 71.8873 51.5878C71.7026 51.3257 71.4347 51.1947 71.0832 51.1947C70.6127 51.1947 70.2822 51.4002 70.0916 51.8111V53.8034C70.2851 54.2233 70.6187 54.4332 71.0921 54.4332C71.4316 54.4332 71.6937 54.3067 71.8783 54.0536C72.063 53.8004 72.1583 53.4178 72.1643 52.9055V52.7671ZM76.2917 55.3177C75.6037 55.3177 75.0454 55.1018 74.6166 54.67C74.1907 54.2353 73.9778 53.6575 73.9778 52.9368V52.8028C73.9778 52.3204 74.0702 51.8901 74.2547 51.5119C74.4424 51.1307 74.7044 50.8344 75.0409 50.6229C75.3774 50.4116 75.7526 50.3058 76.1666 50.3058C76.8247 50.3058 77.3324 50.5157 77.6898 50.9356C78.0501 51.3556 78.2303 51.9496 78.2303 52.7179V53.1557H75.0722C75.1049 53.5547 75.2374 53.8705 75.4697 54.1027C75.7051 54.3349 75.9998 54.4511 76.3542 54.4511C76.8515 54.4511 77.2565 54.2501 77.5692 53.8481L78.1544 54.4065C77.9608 54.6953 77.7017 54.9201 77.3771 55.081C77.0555 55.2388 76.6937 55.3177 76.2917 55.3177ZM76.1621 51.1768C75.8643 51.1768 75.6232 51.2811 75.4385 51.4895C75.2568 51.698 75.1407 51.9883 75.0901 52.3606H77.1583V52.2802C77.1345 51.9169 77.0376 51.643 76.8679 51.4583C76.6981 51.2706 76.4629 51.1768 76.1621 51.1768Z" fill="#D7D7D7"/>
<path fill-rule="evenodd" clip-rule="evenodd" d="M19.0436 41.0458C18.0275 41.0458 17.1046 41.6377 16.6806 42.5611L16.6806 42.5611L9.5308 58.1329C8.76578 59.7991 7.10031 60.8671 5.26686 60.8671H1V58.7754H5.26686C6.28292 58.7754 7.20589 58.1835 7.62986 57.2601L8.58033 57.6965L7.62986 57.2601L14.7797 41.6883C15.5447 40.0221 17.2101 38.9541 19.0436 38.9541H90.2242C92.005 38.9541 93.6322 39.9622 94.4252 41.5565L102.273 57.3331C102.712 58.2167 103.614 58.7754 104.601 58.7754H229V60.8671H104.601C102.82 60.8671 101.193 59.859 100.4 58.2648L101.336 57.7989L100.4 58.2647L92.5523 42.488C92.1128 41.6045 91.2111 41.0458 90.2242 41.0458H19.0436Z" fill="#E7E7E7"/>
<defs>
<filter id="filter0_dd_103_343" x="152.213" y="69.1723" width="92.0823" height="92.085" filterUnits="userSpaceOnUse" color-interpolation-filters="sRGB">
<feFlood flood-opacity="0" result="BackgroundImageFix"/>
<feColorMatrix in="SourceAlpha" type="matrix" values="0 0 0 0 0 0 0 0 0 0 0 0 0 0 0 0 0 0 127 0" result="hardAlpha"/>
<feOffset dx="4.25531" dy="1.70212"/>
<feGaussianBlur stdDeviation="17.0212"/>
<feColorMatrix type="matrix" values="0 0 0 0 1 0 0 0 0 0.172549 0 0 0 0 0.172549 0 0 0 1 0"/>
<feBlend mode="normal" in2="BackgroundImageFix" result="effect1_dropShadow_103_343"/>
<feColorMatrix in="SourceAlpha" type="matrix" values="0 0 0 0 0 0 0 0 0 0 0 0 0 0 0 0 0 0 127 0" result="hardAlpha"/>
<feOffset dx="4.25531" dy="4.25531"/>
<feGaussianBlur stdDeviation="4.25531"/>
<feColorMatrix type="matrix" values="0 0 0 0 1 0 0 0 0 0.170833 0 0 0 0 0.170833 0 0 0 0.08 0"/>
<feBlend mode="normal" in2="effect1_dropShadow_103_343" result="effect2_dropShadow_103_343"/>
<feBlend mode="normal" in="SourceGraphic" in2="effect2_dropShadow_103_343" result="shape"/>
</filter>
</defs>
</svg>
