<svg width="249" height="184" viewBox="0 0 249 184" fill="none" xmlns="http://www.w3.org/2000/svg">
<path d="M225 1H5C2.79086 1 1 2.79086 1 5V179C1 181.209 2.79086 183 5 183H225C227.209 183 229 181.209 229 179V5C229 2.79086 227.209 1 225 1Z" fill="white"/>
<path fill-rule="evenodd" clip-rule="evenodd" d="M5 2C3.34315 2 2 3.34315 2 5V179C2 180.657 3.34315 182 5 182H225C226.657 182 228 180.657 228 179V5C228 3.34315 226.657 2 225 2H5ZM0 5C0 2.23858 2.23858 0 5 0H225C227.761 0 230 2.23858 230 5V179C230 181.761 227.761 184 225 184H5C2.23858 184 0 181.761 0 179V5Z" fill="#D7D7D7"/>
<path d="M216 81C216 80.4477 215.578 80 215.058 80H175.5H135.942C135.422 80 135 80.4477 135 81V97C135 97.5523 135.422 98 135.942 98H215.058C215.578 98 216 97.5523 216 97V81Z" fill="#FD0000" fill-opacity="0.7"/>
<path d="M153 92.8969V85.4115H155.303C155.961 85.4115 156.549 85.5598 157.067 85.8581C157.588 86.1532 157.994 86.5749 158.285 87.123C158.577 87.668 158.722 88.2887 158.722 88.9844V89.3287C158.722 90.0244 158.578 90.6436 158.29 91.1847C158.006 91.7265 157.603 92.1466 157.082 92.4449C156.561 92.7423 155.973 92.8938 155.319 92.8969H153ZM154.542 86.6607V91.6578H155.288C155.891 91.6578 156.352 91.4611 156.671 91.0668C156.99 90.6725 157.153 90.1087 157.159 89.3748V88.9789C157.159 88.2184 157.002 87.6422 156.686 87.2518C156.371 86.8575 155.91 86.6607 155.303 86.6607H154.542ZM159.519 90.0642C159.519 89.5122 159.625 89.0203 159.838 88.5885C160.05 88.1567 160.356 87.8226 160.753 87.586C161.154 87.3494 161.619 87.2315 162.147 87.2315C162.897 87.2315 163.509 87.4611 163.982 87.9202C164.459 88.3793 164.724 89.0031 164.779 89.7917L164.789 90.172C164.789 91.0254 164.551 91.7109 164.074 92.2286C163.598 92.7423 162.959 93 162.157 93C161.355 93 160.714 92.7423 160.234 92.2286C159.757 91.714 159.519 91.0152 159.519 90.1306V90.0642ZM161.005 90.172C161.005 90.6998 161.104 91.1042 161.303 91.3853C161.503 91.6633 161.787 91.8015 162.157 91.8015C162.517 91.8015 162.798 91.6648 163 91.3908C163.202 91.1128 163.303 90.6709 163.303 90.0642C163.303 89.5465 163.202 89.1452 163 88.861C162.798 88.5768 162.514 88.4339 162.147 88.4339C161.784 88.4339 161.503 88.5768 161.303 88.861C161.104 89.1421 161.005 89.5793 161.005 90.172ZM170.543 90.8762L171.273 87.3338H172.707L171.288 92.8969H170.044L168.99 89.3959L167.935 92.8969H166.696L165.278 87.3338H166.712L167.437 90.8716L168.455 87.3338H169.53L170.543 90.8762ZM174.815 87.3338L174.861 87.9764C175.259 87.4798 175.792 87.2315 176.46 87.2315C177.05 87.2315 177.488 87.4041 177.777 87.7507C178.064 88.0966 178.211 88.6143 178.219 89.3029V92.8969H176.733V89.3389C176.733 89.0234 176.664 88.7962 176.527 88.6557C176.39 88.5112 176.162 88.4394 175.843 88.4394C175.425 88.4394 175.112 88.6174 174.902 88.9742V92.8969H173.417V87.3338H174.815ZM180.918 92.8969H179.426V85H180.918V92.8969ZM181.915 90.0642C181.915 89.5122 182.022 89.0203 182.234 88.5885C182.446 88.1567 182.752 87.8226 183.149 87.586C183.55 87.3494 184.014 87.2315 184.542 87.2315C185.293 87.2315 185.905 87.4611 186.378 87.9202C186.854 88.3793 187.12 89.0031 187.175 89.7917L187.185 90.172C187.185 91.0254 186.947 91.7109 186.471 92.2286C185.994 92.7423 185.355 93 184.552 93C183.75 93 183.109 92.7423 182.63 92.2286C182.154 91.714 181.915 91.0152 181.915 90.1306V90.0642ZM183.401 90.172C183.401 90.6998 183.501 91.1042 183.699 91.3853C183.898 91.6633 184.182 91.8015 184.552 91.8015C184.912 91.8015 185.193 91.6648 185.396 91.3908C185.598 91.1128 185.699 90.6709 185.699 90.0642C185.699 89.5465 185.598 89.1452 185.396 88.861C185.193 88.5768 184.909 88.4339 184.542 88.4339C184.179 88.4339 183.898 88.5768 183.699 88.861C183.501 89.1421 183.401 89.5793 183.401 90.172ZM191.324 92.8969C191.255 92.7634 191.205 92.5971 191.175 92.398C190.815 92.7993 190.347 93 189.771 93C189.226 93 188.774 92.8423 188.414 92.5268C188.057 92.2114 187.879 91.814 187.879 91.3338C187.879 90.7443 188.097 90.2922 188.532 89.9768C188.971 89.6613 189.603 89.5021 190.429 89.4981H191.113V89.1796C191.113 88.9227 191.046 88.7174 190.913 88.5628C190.782 88.4082 190.575 88.3316 190.29 88.3316C190.04 88.3316 189.843 88.3918 189.699 88.5112C189.559 88.6315 189.488 88.7962 189.488 89.0047H188.003C188.003 88.683 188.102 88.3847 188.301 88.1107C188.499 87.8358 188.78 87.6219 189.144 87.4673C189.507 87.3096 189.915 87.2315 190.368 87.2315C191.053 87.2315 191.597 87.4041 191.997 87.7507C192.402 88.0935 192.604 88.5768 192.604 89.2007V91.6118C192.608 92.1396 192.681 92.5385 192.825 92.8095V92.8969H191.324ZM190.095 91.8632C190.315 91.8632 190.517 91.8155 190.702 91.7195C190.887 91.6203 191.024 91.4884 191.113 91.3236V90.3672H190.558C189.814 90.3672 189.418 90.6248 189.37 91.1386L189.365 91.226C189.365 91.4111 189.43 91.5633 189.56 91.6836C189.691 91.8038 189.869 91.8632 190.095 91.8632ZM193.514 90.0744C193.514 89.2069 193.708 88.5167 194.095 88.0021C194.486 87.4884 195.019 87.2315 195.694 87.2315C196.235 87.2315 196.683 87.4337 197.036 87.8382V85H198.527V92.8969H197.185L197.113 92.3059C196.743 92.7681 196.267 93 195.684 93C195.029 93 194.503 92.7423 194.105 92.2286C193.711 91.7109 193.514 90.9926 193.514 90.0744ZM195 90.1821C195 90.7029 195.091 91.1027 195.273 91.3799C195.454 91.6578 195.718 91.7968 196.064 91.7968C196.523 91.7968 196.847 91.6032 197.036 91.2159V89.0203C196.851 88.633 196.53 88.4394 196.074 88.4394C195.358 88.4394 195 89.0203 195 90.1821Z" fill="white"/>
<path d="M216 119C216 118.448 215.578 118 215.058 118H175.5H135.942C135.422 118 135 118.448 135 119V135C135 135.552 135.422 136 135.942 136H215.058C215.578 136 216 135.552 216 135V119Z" fill="#FD0000" fill-opacity="0.7"/>
<path d="M153 130.897V123.411H155.303C155.961 123.411 156.549 123.56 157.067 123.858C157.588 124.153 157.994 124.575 158.285 125.123C158.577 125.668 158.722 126.289 158.722 126.984V127.329C158.722 128.024 158.578 128.644 158.29 129.185C158.006 129.727 157.603 130.147 157.082 130.445C156.561 130.742 155.973 130.894 155.319 130.897H153ZM154.542 124.661V129.658H155.288C155.891 129.658 156.352 129.461 156.671 129.067C156.99 128.672 157.153 128.109 157.159 127.375V126.979C157.159 126.218 157.002 125.642 156.686 125.252C156.371 124.858 155.91 124.661 155.303 124.661H154.542ZM159.519 128.064C159.519 127.512 159.625 127.02 159.838 126.589C160.05 126.157 160.356 125.823 160.753 125.586C161.154 125.349 161.619 125.232 162.147 125.232C162.897 125.232 163.509 125.461 163.982 125.92C164.459 126.379 164.724 127.003 164.779 127.792L164.789 128.172C164.789 129.025 164.551 129.711 164.074 130.229C163.598 130.742 162.959 131 162.157 131C161.355 131 160.714 130.742 160.234 130.229C159.757 129.714 159.519 129.015 159.519 128.131V128.064ZM161.005 128.172C161.005 128.7 161.104 129.104 161.303 129.385C161.503 129.663 161.787 129.801 162.157 129.801C162.517 129.801 162.798 129.665 163 129.391C163.202 129.113 163.303 128.671 163.303 128.064C163.303 127.547 163.202 127.145 163 126.861C162.798 126.577 162.514 126.434 162.147 126.434C161.784 126.434 161.503 126.577 161.303 126.861C161.104 127.142 161.005 127.579 161.005 128.172ZM170.543 128.876L171.273 125.334H172.707L171.288 130.897H170.044L168.99 127.396L167.935 130.897H166.696L165.278 125.334H166.712L167.437 128.872L168.455 125.334H169.53L170.543 128.876ZM174.815 125.334L174.861 125.976C175.259 125.48 175.792 125.232 176.46 125.232C177.05 125.232 177.488 125.404 177.777 125.751C178.064 126.097 178.211 126.614 178.219 127.303V130.897H176.733V127.339C176.733 127.023 176.664 126.796 176.527 126.656C176.39 126.511 176.162 126.439 175.843 126.439C175.425 126.439 175.112 126.617 174.902 126.974V130.897H173.417V125.334H174.815ZM180.918 130.897H179.426V123H180.918V130.897ZM181.915 128.064C181.915 127.512 182.022 127.02 182.234 126.589C182.446 126.157 182.752 125.823 183.149 125.586C183.55 125.349 184.014 125.232 184.542 125.232C185.293 125.232 185.905 125.461 186.378 125.92C186.854 126.379 187.12 127.003 187.175 127.792L187.185 128.172C187.185 129.025 186.947 129.711 186.471 130.229C185.994 130.742 185.355 131 184.552 131C183.75 131 183.109 130.742 182.63 130.229C182.154 129.714 181.915 129.015 181.915 128.131V128.064ZM183.401 128.172C183.401 128.7 183.501 129.104 183.699 129.385C183.898 129.663 184.182 129.801 184.552 129.801C184.912 129.801 185.193 129.665 185.396 129.391C185.598 129.113 185.699 128.671 185.699 128.064C185.699 127.547 185.598 127.145 185.396 126.861C185.193 126.577 184.909 126.434 184.542 126.434C184.179 126.434 183.898 126.577 183.699 126.861C183.501 127.142 183.401 127.579 183.401 128.172ZM191.324 130.897C191.255 130.763 191.205 130.597 191.175 130.398C190.815 130.799 190.347 131 189.771 131C189.226 131 188.774 130.842 188.414 130.527C188.057 130.211 187.879 129.814 187.879 129.334C187.879 128.744 188.097 128.292 188.532 127.977C188.971 127.661 189.603 127.502 190.429 127.498H191.113V127.18C191.113 126.923 191.046 126.717 190.913 126.563C190.782 126.408 190.575 126.332 190.29 126.332C190.04 126.332 189.843 126.392 189.699 126.511C189.559 126.631 189.488 126.796 189.488 127.005H188.003C188.003 126.683 188.102 126.385 188.301 126.111C188.499 125.836 188.78 125.622 189.144 125.467C189.507 125.31 189.915 125.232 190.368 125.232C191.053 125.232 191.597 125.404 191.997 125.751C192.402 126.093 192.604 126.577 192.604 127.201V129.612C192.608 130.14 192.681 130.539 192.825 130.809V130.897H191.324ZM190.095 129.863C190.315 129.863 190.517 129.816 190.702 129.72C190.887 129.62 191.024 129.488 191.113 129.324V128.367H190.558C189.814 128.367 189.418 128.625 189.37 129.139L189.365 129.226C189.365 129.411 189.43 129.563 189.56 129.684C189.691 129.804 189.869 129.863 190.095 129.863ZM193.514 128.074C193.514 127.207 193.708 126.517 194.095 126.002C194.486 125.488 195.019 125.232 195.694 125.232C196.235 125.232 196.683 125.434 197.036 125.838V123H198.527V130.897H197.185L197.113 130.306C196.743 130.768 196.267 131 195.684 131C195.029 131 194.503 130.742 194.105 130.229C193.711 129.711 193.514 128.993 193.514 128.074ZM195 128.182C195 128.703 195.091 129.103 195.273 129.38C195.454 129.658 195.718 129.797 196.064 129.797C196.523 129.797 196.847 129.603 197.036 129.216V127.02C196.851 126.633 196.53 126.439 196.074 126.439C195.358 126.439 195 127.02 195 128.182Z" fill="white"/>
<g filter="url(#filter0_dd_103_341)">
<path fill-rule="evenodd" clip-rule="evenodd" d="M189.237 133.801C189.637 133.801 189.961 133.477 189.961 133.077V130.801C189.961 130.401 189.637 130.077 189.237 130.077C188.837 130.077 188.512 130.401 188.512 130.801V133.077C188.512 133.477 188.836 133.801 189.237 133.801ZM184.232 132.232C184.515 131.949 184.972 131.949 185.255 132.232L186.865 133.84C187.147 134.123 187.147 134.582 186.865 134.864C186.723 135.006 186.537 135.076 186.353 135.076C186.167 135.076 185.981 135.006 185.84 134.864L184.232 133.256C183.949 132.973 183.949 132.514 184.232 132.232ZM199.205 144.081L203.514 148.389C203.797 148.672 203.797 149.131 203.514 149.413L201.411 151.516C201.276 151.651 201.091 151.728 200.9 151.728C200.708 151.728 200.523 151.651 200.388 151.516L196.079 147.207L194.304 150.281C194.165 150.521 193.902 150.661 193.625 150.641C193.348 150.621 193.107 150.444 193.004 150.187L187.537 136.478C187.431 136.21 187.493 135.903 187.698 135.698C187.903 135.494 188.209 135.43 188.478 135.538L202.185 141.005C202.443 141.108 202.619 141.349 202.639 141.626C202.659 141.902 202.519 142.166 202.279 142.304L199.205 144.081ZM185.801 137.237C185.801 136.837 185.477 136.513 185.077 136.513H182.801C182.401 136.513 182.077 136.837 182.077 137.237C182.077 137.636 182.401 137.961 182.801 137.961H185.077C185.477 137.961 185.801 137.636 185.801 137.237ZM183.898 141.08L185.507 139.471C185.79 139.189 186.248 139.189 186.531 139.471C186.813 139.754 186.813 140.213 186.531 140.496L184.922 142.104C184.781 142.246 184.595 142.316 184.41 142.316C184.225 142.316 184.04 142.246 183.898 142.104C183.615 141.822 183.615 141.363 183.898 141.08ZM192.494 134.531C192.354 134.672 192.168 134.743 191.983 134.743C191.798 134.743 191.612 134.672 191.471 134.531C191.188 134.248 191.188 133.79 191.471 133.507L193.08 131.898C193.362 131.616 193.821 131.616 194.104 131.898C194.387 132.181 194.387 132.64 194.104 132.922L192.494 134.531Z" fill="white"/>
<path d="M199.205 144.081L199.167 144.013L199.079 144.064L199.15 144.135L199.205 144.081ZM196.079 147.207L196.134 147.153L196.063 147.081L196.012 147.168L196.079 147.207ZM189.883 133.077C189.883 133.434 189.593 133.723 189.237 133.723V133.878C189.679 133.878 190.038 133.519 190.038 133.077H189.883ZM189.883 130.801V133.077H190.038V130.801H189.883ZM189.237 130.155C189.594 130.155 189.883 130.444 189.883 130.801H190.038C190.038 130.359 189.679 130 189.237 130V130.155ZM188.59 130.801C188.59 130.444 188.879 130.155 189.237 130.155V130C188.794 130 188.435 130.359 188.435 130.801H188.59ZM188.59 133.077V130.801H188.435V133.077H188.59ZM189.237 133.723C188.879 133.723 188.59 133.434 188.59 133.077H188.435C188.435 133.519 188.794 133.878 189.237 133.878V133.723ZM185.31 132.177C184.997 131.864 184.49 131.864 184.177 132.177L184.286 132.286C184.539 132.034 184.948 132.034 185.201 132.286L185.31 132.177ZM186.919 133.786L185.31 132.177L185.2 132.286L186.81 133.895L186.919 133.786ZM186.919 134.919C187.232 134.606 187.232 134.099 186.919 133.786L186.81 133.895C187.062 134.148 187.062 134.557 186.81 134.81L186.919 134.919ZM186.353 135.154C186.557 135.154 186.762 135.076 186.919 134.919L186.81 134.81C186.684 134.936 186.518 134.999 186.353 134.999V135.154ZM185.786 134.919C185.942 135.076 186.147 135.154 186.353 135.154V134.999C186.186 134.999 186.021 134.936 185.895 134.81L185.786 134.919ZM184.177 133.31L185.786 134.919L185.895 134.81L184.286 133.201L184.177 133.31ZM184.177 132.177C183.864 132.49 183.864 132.997 184.177 133.31L184.286 133.201C184.034 132.948 184.034 132.539 184.286 132.286L184.177 132.177ZM203.569 148.334L199.26 144.026L199.15 144.135L203.459 148.444L203.569 148.334ZM203.569 149.468C203.881 149.155 203.881 148.647 203.569 148.334L203.459 148.444C203.712 148.696 203.712 149.106 203.459 149.359L203.569 149.468ZM201.466 151.57L203.569 149.468L203.459 149.359L201.356 151.461L201.466 151.57ZM200.899 151.805C201.112 151.805 201.316 151.721 201.466 151.57L201.356 151.461C201.236 151.583 201.071 151.651 200.899 151.651V151.805ZM200.333 151.57C200.483 151.721 200.687 151.805 200.899 151.805V151.651C200.728 151.651 200.563 151.583 200.443 151.461L200.333 151.57ZM196.024 147.262L200.333 151.57L200.443 151.461L196.134 147.153L196.024 147.262ZM194.371 150.32L196.146 147.246L196.012 147.168L194.236 150.243L194.371 150.32ZM193.619 150.718C193.926 150.741 194.217 150.586 194.371 150.32L194.236 150.243C194.113 150.457 193.878 150.582 193.63 150.564L193.619 150.718ZM192.933 150.216C193.046 150.501 193.312 150.696 193.619 150.718L193.63 150.564C193.383 150.546 193.168 150.389 193.076 150.158L192.933 150.216ZM187.465 136.507L192.933 150.216L193.076 150.158L187.609 136.45L187.465 136.507ZM187.643 135.644C187.417 135.87 187.347 136.21 187.465 136.507L187.609 136.45C187.513 136.21 187.57 135.935 187.753 135.753L187.643 135.644ZM188.507 135.466C188.209 135.347 187.87 135.417 187.643 135.644L187.753 135.753C187.935 135.57 188.209 135.514 188.45 135.61L188.507 135.466ZM202.214 140.934L188.507 135.466L188.45 135.61L202.157 141.077L202.214 140.934ZM202.716 141.62C202.694 141.314 202.499 141.047 202.214 140.934L202.157 141.077C202.386 141.169 202.544 141.384 202.562 141.632L202.716 141.62ZM202.318 142.372C202.584 142.219 202.738 141.926 202.716 141.62L202.562 141.632C202.58 141.878 202.455 142.114 202.24 142.238L202.318 142.372ZM199.244 144.147L202.318 142.372L202.24 142.238L199.167 144.013L199.244 144.147ZM185.077 136.59C185.434 136.59 185.723 136.88 185.723 137.237H185.878C185.878 136.794 185.519 136.436 185.077 136.436V136.59ZM182.801 136.59H185.077V136.436H182.801V136.59ZM182.155 137.237C182.155 136.88 182.445 136.59 182.801 136.59V136.436C182.359 136.436 182 136.794 182 137.237H182.155ZM182.801 137.884C182.444 137.884 182.155 137.594 182.155 137.237H182C182 137.68 182.359 138.039 182.801 138.039V137.884ZM185.077 137.884H182.801V138.039H185.077V137.884ZM185.723 137.237C185.723 137.594 185.434 137.884 185.077 137.884V138.039C185.519 138.039 185.878 137.68 185.878 137.237H185.723ZM185.453 139.417L183.843 141.026L183.952 141.135L185.562 139.526L185.453 139.417ZM186.585 139.417C186.273 139.104 185.766 139.104 185.453 139.417L185.562 139.526C185.814 139.274 186.223 139.274 186.476 139.526L186.585 139.417ZM186.585 140.55C186.898 140.238 186.898 139.73 186.585 139.417L186.476 139.526C186.729 139.779 186.729 140.188 186.476 140.441L186.585 140.55ZM184.977 142.159L186.585 140.55L186.476 140.441L184.867 142.05L184.977 142.159ZM184.41 142.393C184.615 142.393 184.82 142.315 184.977 142.159L184.867 142.05C184.741 142.176 184.576 142.239 184.41 142.239V142.393ZM183.843 142.159C184 142.315 184.205 142.393 184.41 142.393V142.239C184.245 142.239 184.079 142.176 183.952 142.05L183.843 142.159ZM183.843 141.026C183.53 141.339 183.53 141.846 183.843 142.159L183.952 142.05C183.7 141.797 183.7 141.387 183.952 141.135L183.843 141.026ZM191.983 134.82C192.188 134.82 192.393 134.742 192.549 134.586L192.44 134.477C192.313 134.603 192.149 134.666 191.983 134.666V134.82ZM191.416 134.586C191.573 134.742 191.778 134.82 191.983 134.82V134.666C191.817 134.666 191.652 134.603 191.526 134.477L191.416 134.586ZM191.416 133.453C191.103 133.766 191.103 134.273 191.416 134.586L191.526 134.477C191.273 134.224 191.273 133.814 191.526 133.562L191.416 133.453ZM193.025 131.844L191.416 133.453L191.526 133.562L193.134 131.953L193.025 131.844ZM194.158 131.844C193.845 131.531 193.338 131.531 193.025 131.844L193.134 131.953C193.387 131.701 193.797 131.701 194.049 131.953L194.158 131.844ZM194.158 132.977C194.471 132.664 194.471 132.157 194.158 131.844L194.049 131.953C194.301 132.206 194.301 132.615 194.049 132.868L194.158 132.977ZM192.549 134.586L194.158 132.977L194.049 132.868L192.44 134.477L192.549 134.586Z" fill="#FFD9D9"/>
</g>
<path d="M51.3254 83.2728V92H49.7444V84.8111H49.6933L47.6521 86.1151V84.6662L49.8211 83.2728H51.3254Z" fill="#D7D7D7"/>
<path d="M56.7672 92.1662C56.0655 92.1662 55.4632 91.9887 54.9603 91.6336C54.4603 91.2756 54.0754 90.76 53.8055 90.0867C53.5385 89.4105 53.4049 88.5966 53.4049 87.6449C53.4078 86.6932 53.5427 85.8836 53.8098 85.2159C54.0797 84.5455 54.4646 84.0341 54.9646 83.6819C55.4674 83.3296 56.0683 83.1534 56.7672 83.1534C57.466 83.1534 58.0669 83.3296 58.5697 83.6819C59.0726 84.0341 59.4575 84.5455 59.7245 85.2159C59.9944 85.8864 60.1294 86.6961 60.1294 87.6449C60.1294 88.5995 59.9944 89.4148 59.7245 90.0909C59.4575 90.7642 59.0726 91.2784 58.5697 91.6336C58.0697 91.9887 57.4689 92.1662 56.7672 92.1662ZM56.7672 90.8324C57.3126 90.8324 57.743 90.564 58.0583 90.027C58.3765 89.4872 58.5356 88.6932 58.5356 87.6449C58.5356 86.9517 58.4632 86.3694 58.3183 85.8978C58.1734 85.4262 57.9689 85.0711 57.7047 84.8324C57.4405 84.5909 57.128 84.4702 56.7672 84.4702C56.2245 84.4702 55.7956 84.7401 55.4802 85.2799C55.1649 85.8168 55.0058 86.6051 55.003 87.6449C55.0001 88.3409 55.0697 88.9262 55.2118 89.4006C55.3566 89.875 55.5612 90.233 55.8254 90.4745C56.0896 90.7131 56.4035 90.8324 56.7672 90.8324Z" fill="#D7D7D7"/>
<path d="M64.6475 92.1194C64.014 92.1194 63.4515 92.0128 62.96 91.7997C62.4713 91.5867 62.0878 91.2955 61.8094 90.9262C61.5338 90.554 61.3975 90.1321 61.4003 89.6605C61.3975 89.2941 61.477 88.9574 61.639 88.6506C61.8009 88.3438 62.0196 88.0881 62.2952 87.8836C62.5736 87.6762 62.8833 87.5441 63.2242 87.4872V87.4276C62.7753 87.3282 62.4117 87.0995 62.1333 86.7415C61.8577 86.3807 61.7213 85.9645 61.7242 85.4929C61.7213 85.0441 61.8463 84.6435 62.0992 84.2912C62.352 83.939 62.6986 83.662 63.139 83.4603C63.5793 83.2557 64.0821 83.1534 64.6475 83.1534C65.2071 83.1534 65.7057 83.2557 66.1432 83.4603C66.5836 83.662 66.9302 83.939 67.183 84.2912C67.4387 84.6435 67.5665 85.0441 67.5665 85.4929C67.5665 85.9645 67.4259 86.3807 67.1446 86.7415C66.8662 87.0995 66.5069 87.3282 66.0665 87.4276V87.4872C66.4074 87.5441 66.7142 87.6762 66.987 87.8836C67.2625 88.0881 67.4813 88.3438 67.6432 88.6506C67.808 88.9574 67.8904 89.2941 67.8904 89.6605C67.8904 90.1321 67.7512 90.554 67.4728 90.9262C67.1944 91.2955 66.8108 91.5867 66.3222 91.7997C65.8364 92.0128 65.2782 92.1194 64.6475 92.1194ZM64.6475 90.9006C64.9742 90.9006 65.2583 90.8452 65.4998 90.7344C65.7412 90.6208 65.9287 90.4617 66.0623 90.2571C66.1958 90.0526 66.264 89.8168 66.2668 89.5497C66.264 89.2713 66.1915 89.0256 66.0495 88.8125C65.9103 88.5966 65.7185 88.4276 65.4742 88.3054C65.2327 88.1833 64.9571 88.1222 64.6475 88.1222C64.335 88.1222 64.0566 88.1833 63.8123 88.3054C63.5679 88.4276 63.3748 88.5966 63.2327 88.8125C63.0935 89.0256 63.0253 89.2713 63.0282 89.5497C63.0253 89.8168 63.0907 90.0526 63.2242 90.2571C63.3577 90.4588 63.5452 90.6165 63.7867 90.7301C64.031 90.8438 64.3179 90.9006 64.6475 90.9006ZM64.6475 86.9247C64.9145 86.9247 65.1503 86.8708 65.3549 86.7628C65.5623 86.6549 65.7256 86.5043 65.8449 86.3111C65.9642 86.1179 66.0253 85.8949 66.0282 85.6421C66.0253 85.3921 65.9657 85.1733 65.8492 84.9858C65.7327 84.7955 65.5708 84.6492 65.3634 84.5469C65.156 84.4418 64.9174 84.3892 64.6475 84.3892C64.3719 84.3892 64.129 84.4418 63.9188 84.5469C63.7114 84.6492 63.5495 84.7955 63.433 84.9858C63.3194 85.1733 63.264 85.3921 63.2668 85.6421C63.264 85.8949 63.3208 86.1179 63.4373 86.3111C63.5566 86.5015 63.7199 86.652 63.9273 86.7628C64.1375 86.8708 64.3776 86.9247 64.6475 86.9247Z" fill="#D7D7D7"/>
<path d="M72.5172 92.1662C71.8155 92.1662 71.2132 91.9887 70.7103 91.6336C70.2103 91.2756 69.8254 90.76 69.5555 90.0867C69.2885 89.4105 69.1549 88.5966 69.1549 87.6449C69.1578 86.6932 69.2927 85.8836 69.5598 85.2159C69.8297 84.5455 70.2146 84.0341 70.7146 83.6819C71.2174 83.3296 71.8183 83.1534 72.5172 83.1534C73.216 83.1534 73.8169 83.3296 74.3197 83.6819C74.8226 84.0341 75.2075 84.5455 75.4745 85.2159C75.7444 85.8864 75.8794 86.6961 75.8794 87.6449C75.8794 88.5995 75.7444 89.4148 75.4745 90.0909C75.2075 90.7642 74.8226 91.2784 74.3197 91.6336C73.8197 91.9887 73.2189 92.1662 72.5172 92.1662ZM72.5172 90.8324C73.0626 90.8324 73.493 90.564 73.8083 90.027C74.1265 89.4872 74.2856 88.6932 74.2856 87.6449C74.2856 86.9517 74.2132 86.3694 74.0683 85.8978C73.9234 85.4262 73.7189 85.0711 73.4547 84.8324C73.1905 84.5909 72.878 84.4702 72.5172 84.4702C71.9745 84.4702 71.5456 84.7401 71.2302 85.2799C70.9149 85.8168 70.7558 86.6051 70.753 87.6449C70.7501 88.3409 70.8197 88.9262 70.9618 89.4006C71.1066 89.875 71.3112 90.233 71.5754 90.4745C71.8396 90.7131 72.1535 90.8324 72.5172 90.8324Z" fill="#D7D7D7"/>
<path d="M80.357 92V83.2728H81.938V86.9674H85.982V83.2728H87.5672V92H85.982V88.2926H81.938V92H80.357Z" fill="#D7D7D7"/>
<path d="M92.2441 92H89.2867V83.2728H92.3037C93.1702 83.2728 93.9145 83.4475 94.5367 83.7969C95.1617 84.1435 95.6418 84.6421 95.977 85.2926C96.3123 85.9432 96.4799 86.7216 96.4799 87.6279C96.4799 88.537 96.3108 89.3182 95.9728 89.9716C95.6375 90.625 95.1532 91.1265 94.5196 91.4759C93.889 91.8253 93.1304 92 92.2441 92ZM90.8677 90.6321H92.1674C92.7753 90.6321 93.2824 90.5213 93.6887 90.2997C94.0949 90.0753 94.4003 89.7415 94.6049 89.2983C94.8094 88.8523 94.9117 88.2955 94.9117 87.6279C94.9117 86.9603 94.8094 86.4063 94.6049 85.9659C94.4003 85.5228 94.0978 85.1918 93.6972 84.973C93.2995 84.7515 92.8052 84.6407 92.2142 84.6407H90.8677V90.6321Z" fill="#D7D7D7"/>
<path d="M51.3254 122.273V131H49.7444V123.811H49.6933L47.6521 125.115V123.666L49.8211 122.273H51.3254Z" fill="#D7D7D7"/>
<path d="M53.5413 131V129.858L56.5711 126.888C56.8609 126.595 57.1024 126.335 57.2956 126.108C57.4887 125.881 57.6336 125.661 57.7302 125.447C57.8268 125.234 57.8751 125.007 57.8751 124.766C57.8751 124.49 57.8126 124.254 57.6876 124.058C57.5626 123.859 57.3907 123.706 57.172 123.598C56.9532 123.49 56.7047 123.436 56.4262 123.436C56.1393 123.436 55.8879 123.496 55.672 123.615C55.4561 123.732 55.2885 123.898 55.1691 124.114C55.0527 124.33 54.9944 124.587 54.9944 124.885H53.4902C53.4902 124.331 53.6166 123.849 53.8694 123.44C54.1223 123.031 54.4703 122.715 54.9135 122.49C55.3595 122.266 55.8708 122.153 56.4476 122.153C57.0328 122.153 57.547 122.263 57.9902 122.482C58.4333 122.7 58.7771 123 59.0214 123.381C59.2686 123.761 59.3922 124.196 59.3922 124.685C59.3922 125.011 59.3297 125.332 59.2047 125.648C59.0797 125.963 58.8595 126.313 58.5441 126.696C58.2316 127.08 57.7927 127.544 57.2274 128.09L55.7231 129.619V129.679H59.5243V131H53.5413Z" fill="#D7D7D7"/>
<path d="M64.0967 131.119C63.4632 131.119 62.9007 131.013 62.4092 130.8C61.9206 130.587 61.537 130.295 61.2586 129.926C60.9831 129.554 60.8467 129.132 60.8495 128.661C60.8467 128.294 60.9262 127.957 61.0882 127.651C61.2501 127.344 61.4689 127.088 61.7444 126.884C62.0228 126.676 62.3325 126.544 62.6734 126.487V126.428C62.2245 126.328 61.8609 126.099 61.5825 125.742C61.3069 125.381 61.1706 124.965 61.1734 124.493C61.1706 124.044 61.2956 123.643 61.5484 123.291C61.8012 122.939 62.1478 122.662 62.5882 122.46C63.0285 122.256 63.5314 122.153 64.0967 122.153C64.6564 122.153 65.1549 122.256 65.5924 122.46C66.0328 122.662 66.3794 122.939 66.6322 123.291C66.8879 123.643 67.0157 124.044 67.0157 124.493C67.0157 124.965 66.8751 125.381 66.5939 125.742C66.3155 126.099 65.9561 126.328 65.5157 126.428V126.487C65.8566 126.544 66.1635 126.676 66.4362 126.884C66.7118 127.088 66.9305 127.344 67.0924 127.651C67.2572 127.957 67.3396 128.294 67.3396 128.661C67.3396 129.132 67.2004 129.554 66.922 129.926C66.6436 130.295 66.2601 130.587 65.7714 130.8C65.2856 131.013 64.7274 131.119 64.0967 131.119ZM64.0967 129.901C64.4234 129.901 64.7075 129.845 64.949 129.734C65.1905 129.621 65.378 129.462 65.5115 129.257C65.645 129.053 65.7132 128.817 65.716 128.55C65.7132 128.271 65.6407 128.026 65.4987 127.813C65.3595 127.597 65.1677 127.428 64.9234 127.305C64.6819 127.183 64.4064 127.122 64.0967 127.122C63.7842 127.122 63.5058 127.183 63.2615 127.305C63.0172 127.428 62.824 127.597 62.6819 127.813C62.5427 128.026 62.4745 128.271 62.4774 128.55C62.4745 128.817 62.5399 129.053 62.6734 129.257C62.8069 129.459 62.9944 129.617 63.2359 129.73C63.4802 129.844 63.7672 129.901 64.0967 129.901ZM64.0967 125.925C64.3637 125.925 64.5995 125.871 64.8041 125.763C65.0115 125.655 65.1748 125.504 65.2941 125.311C65.4135 125.118 65.4745 124.895 65.4774 124.642C65.4745 124.392 65.4149 124.173 65.2984 123.986C65.1819 123.795 65.02 123.649 64.8126 123.547C64.6052 123.442 64.3666 123.389 64.0967 123.389C63.8211 123.389 63.5782 123.442 63.368 123.547C63.1606 123.649 62.9987 123.795 62.8822 123.986C62.7686 124.173 62.7132 124.392 62.716 124.642C62.7132 124.895 62.77 125.118 62.8865 125.311C63.0058 125.501 63.1691 125.652 63.3765 125.763C63.5868 125.871 63.8268 125.925 64.0967 125.925Z" fill="#D7D7D7"/>
<path d="M71.8023 131V122.273H73.3833V126.283H73.4898L76.8946 122.273H78.825L75.45 126.189L78.8549 131H76.9543L74.3506 127.259L73.3833 128.401V131H71.8023Z" fill="#D7D7D7"/>
<path d="M79.9234 131V122.273H83.2643C83.895 122.273 84.4191 122.372 84.8368 122.571C85.2572 122.767 85.5711 123.036 85.7785 123.376C85.9887 123.717 86.0939 124.104 86.0939 124.536C86.0939 124.891 86.0257 125.195 85.8893 125.447C85.753 125.697 85.5697 125.901 85.3396 126.057C85.1095 126.213 84.8524 126.325 84.5683 126.393V126.479C84.878 126.496 85.1748 126.591 85.4589 126.764C85.7458 126.935 85.9802 127.176 86.162 127.489C86.3439 127.801 86.4348 128.179 86.4348 128.622C86.4348 129.074 86.3254 129.48 86.1066 129.841C85.8879 130.199 85.5583 130.482 85.118 130.689C84.6777 130.896 84.1237 131 83.4561 131H79.9234ZM81.5044 129.679H83.2047C83.7785 129.679 84.1919 129.57 84.4447 129.351C84.7004 129.129 84.8282 128.845 84.8282 128.499C84.8282 128.24 84.7643 128.007 84.6365 127.8C84.5086 127.59 84.3268 127.425 84.091 127.305C83.8552 127.183 83.574 127.122 83.2473 127.122H81.5044V129.679ZM81.5044 125.984H83.0683C83.341 125.984 83.5868 125.935 83.8055 125.835C84.0243 125.733 84.1961 125.59 84.3211 125.405C84.449 125.217 84.5129 124.996 84.5129 124.74C84.5129 124.402 84.3936 124.124 84.1549 123.905C83.9191 123.686 83.5683 123.577 83.1024 123.577H81.5044V125.984Z" fill="#D7D7D7"/>
<path d="M87.8101 131V122.273H91.0829C91.7533 122.273 92.3158 122.398 92.7704 122.648C93.2277 122.898 93.5729 123.242 93.8059 123.679C94.0417 124.114 94.1596 124.608 94.1596 125.162C94.1596 125.722 94.0417 126.219 93.8059 126.653C93.5701 127.088 93.2221 127.43 92.7618 127.68C92.3016 127.928 91.7348 128.051 91.0615 128.051H88.8925V126.751H90.8485C91.2405 126.751 91.5615 126.683 91.8115 126.547C92.0615 126.411 92.2462 126.223 92.3655 125.984C92.4877 125.746 92.5488 125.472 92.5488 125.162C92.5488 124.852 92.4877 124.58 92.3655 124.344C92.2462 124.108 92.0601 123.925 91.8073 123.794C91.5573 123.661 91.2348 123.594 90.84 123.594H89.3911V131H87.8101Z" fill="#D7D7D7"/>
<path d="M100.276 124.672C100.236 124.3 100.068 124.01 99.7728 123.803C99.4802 123.595 99.0995 123.492 98.6308 123.492C98.3012 123.492 98.0186 123.541 97.7828 123.641C97.547 123.74 97.3666 123.875 97.2416 124.045C97.1166 124.216 97.0527 124.411 97.0498 124.629C97.0498 124.811 97.091 124.969 97.1734 125.102C97.2586 125.236 97.3737 125.349 97.5186 125.443C97.6635 125.534 97.824 125.611 98.0001 125.673C98.1762 125.736 98.3538 125.788 98.5328 125.831L99.351 126.036C99.6805 126.112 99.9973 126.216 100.301 126.347C100.608 126.477 100.882 126.642 101.124 126.841C101.368 127.04 101.561 127.28 101.703 127.561C101.845 127.842 101.916 128.172 101.916 128.55C101.916 129.061 101.786 129.511 101.524 129.901C101.263 130.287 100.885 130.59 100.391 130.808C99.8993 131.024 99.3041 131.132 98.6052 131.132C97.9262 131.132 97.3368 131.027 96.8368 130.817C96.3396 130.607 95.9504 130.3 95.6691 129.896C95.3907 129.493 95.2402 129.001 95.2174 128.422H96.7728C96.7956 128.726 96.8893 128.979 97.0541 129.18C97.2189 129.382 97.4334 129.533 97.6976 129.632C97.9646 129.732 98.2629 129.781 98.5924 129.781C98.9362 129.781 99.2373 129.73 99.4958 129.628C99.7572 129.523 99.9618 129.378 100.109 129.193C100.257 129.006 100.332 128.787 100.335 128.537C100.332 128.31 100.266 128.122 100.135 127.974C100.004 127.824 99.8211 127.699 99.5853 127.599C99.3524 127.497 99.0797 127.406 98.7672 127.327L97.7743 127.071C97.0555 126.886 96.4873 126.607 96.0697 126.232C95.6549 125.854 95.4476 125.352 95.4476 124.727C95.4476 124.213 95.5868 123.763 95.8652 123.376C96.1464 122.99 96.5285 122.69 97.0115 122.477C97.4944 122.261 98.0413 122.153 98.6521 122.153C99.2714 122.153 99.814 122.261 100.28 122.477C100.749 122.69 101.117 122.987 101.384 123.368C101.651 123.746 101.788 124.18 101.797 124.672H100.276Z" fill="#D7D7D7"/>
<path d="M63.3913 46.5817L65.8523 54.3175H65.9467L68.4126 46.5817H70.799L67.2891 56.7635H64.5149L61 46.5817H63.3913Z" fill="#D7D7D7"/>
<path d="M71.9847 56.7635V49.1271H74.1026V56.7635H71.9847ZM73.0487 48.1428C72.7338 48.1428 72.4637 48.0384 72.2383 47.8295C72.0162 47.6174 71.9052 47.3639 71.9052 47.0689C71.9052 46.7772 72.0162 46.527 72.2383 46.3182C72.4637 46.1061 72.7338 46 73.0487 46C73.3635 46 73.632 46.1061 73.854 46.3182C74.0794 46.527 74.1921 46.7772 74.1921 47.0689C74.1921 47.3639 74.0794 47.6174 73.854 47.8295C73.632 48.0384 73.3635 48.1428 73.0487 48.1428Z" fill="#D7D7D7"/>
<path d="M78.6131 56.8878C78.0331 56.8878 77.5078 56.7386 77.0371 56.4403C76.5698 56.1387 76.1986 55.6963 75.9235 55.1129C75.6517 54.5263 75.5158 53.8071 75.5158 52.9553C75.5158 52.0803 75.6567 51.3527 75.9384 50.7727C76.2201 50.1894 76.5946 49.7536 77.062 49.4652C77.5326 49.1735 78.048 49.0277 78.6081 49.0277C79.0357 49.0277 79.392 49.1006 79.677 49.2464C79.9654 49.389 80.1974 49.5679 80.373 49.7834C80.552 49.9955 80.6879 50.2043 80.7807 50.4098H80.8453V46.5817H82.9583V56.7635H80.8702V55.5405H80.7807C80.6813 55.7526 80.5404 55.9631 80.3581 56.1719C80.1792 56.3774 79.9455 56.5481 79.6571 56.684C79.3721 56.8198 79.0241 56.8878 78.6131 56.8878ZM79.2843 55.2024C79.6256 55.2024 79.914 55.1096 80.1493 54.924C80.388 54.7351 80.5703 54.4716 80.6962 54.1335C80.8255 53.7955 80.8901 53.3994 80.8901 52.9453C80.8901 52.4912 80.8271 52.0968 80.7012 51.7621C80.5752 51.4273 80.3929 51.1688 80.1543 50.9865C79.9157 50.8042 79.6256 50.7131 79.2843 50.7131C78.9363 50.7131 78.6429 50.8075 78.4043 50.9964C78.1657 51.1854 77.985 51.4472 77.8624 51.782C77.7398 52.1167 77.6784 52.5045 77.6784 52.9453C77.6784 53.3894 77.7398 53.7822 77.8624 54.1236C77.9883 54.4616 78.169 54.7268 78.4043 54.919C78.6429 55.108 78.9363 55.2024 79.2843 55.2024Z" fill="#D7D7D7"/>
<path d="M84.6996 56.7635V49.1271H86.8175V56.7635H84.6996ZM85.7635 48.1428C85.4486 48.1428 85.1785 48.0384 84.9531 47.8295C84.7311 47.6174 84.62 47.3639 84.62 47.0689C84.62 46.7772 84.7311 46.527 84.9531 46.3182C85.1785 46.1061 85.4486 46 85.7635 46C86.0784 46 86.3468 46.1061 86.5689 46.3182C86.7943 46.527 86.907 46.7772 86.907 47.0689C86.907 47.3639 86.7943 47.6174 86.5689 47.8295C86.3468 48.0384 86.0784 48.1428 85.7635 48.1428Z" fill="#D7D7D7"/>
<path d="M91.9643 56.9126C91.1921 56.9126 90.5242 56.7486 89.9608 56.4205C89.4006 56.089 88.9681 55.6283 88.6632 55.0384C88.3582 54.4451 88.2058 53.7573 88.2058 52.9751C88.2058 52.1863 88.3582 51.4969 88.6632 50.907C88.9681 50.3137 89.4006 49.853 89.9608 49.5249C90.5242 49.1934 91.1921 49.0277 91.9643 49.0277C92.7366 49.0277 93.4028 49.1934 93.9629 49.5249C94.5263 49.853 94.9605 50.3137 95.2654 50.907C95.5704 51.4969 95.7228 52.1863 95.7228 52.9751C95.7228 53.7573 95.5704 54.4451 95.2654 55.0384C94.9605 55.6283 94.5263 56.089 93.9629 56.4205C93.4028 56.7486 92.7366 56.9126 91.9643 56.9126ZM91.9743 55.272C92.3256 55.272 92.6189 55.1726 92.8542 54.9737C93.0895 54.7715 93.2669 54.4964 93.3862 54.1484C93.5088 53.8004 93.5701 53.4044 93.5701 52.9602C93.5701 52.5161 93.5088 52.12 93.3862 51.772C93.2669 51.424 93.0895 51.1489 92.8542 50.9467C92.6189 50.7446 92.3256 50.6435 91.9743 50.6435C91.6196 50.6435 91.3213 50.7446 91.0794 50.9467C90.8407 51.1489 90.6601 51.424 90.5375 51.772C90.4181 52.12 90.3585 52.5161 90.3585 52.9602C90.3585 53.4044 90.4181 53.8004 90.5375 54.1484C90.6601 54.4964 90.8407 54.7715 91.0794 54.9737C91.3213 55.1726 91.6196 55.272 91.9743 55.272Z" fill="#D7D7D7"/>
<path d="M103.989 56.7635H100.38V46.5817H104.019C105.043 46.5817 105.925 46.7855 106.664 47.1932C107.403 47.5975 107.972 48.1792 108.369 48.9382C108.77 49.6972 108.971 50.6054 108.971 51.6626C108.971 52.7232 108.77 53.6347 108.369 54.397C107.972 55.1593 107.4 55.7443 106.654 56.152C105.912 56.5597 105.023 56.7635 103.989 56.7635ZM102.533 54.919H103.9C104.536 54.919 105.071 54.8063 105.506 54.581C105.943 54.3523 106.271 53.9993 106.49 53.522C106.712 53.0414 106.823 52.4216 106.823 51.6626C106.823 50.9103 106.712 50.2955 106.49 49.8182C106.271 49.3409 105.945 48.9896 105.511 48.7642C105.076 48.5388 104.541 48.4261 103.905 48.4261H102.533V54.919Z" fill="#D7D7D7"/>
<path d="M113.976 56.9126C113.204 56.9126 112.536 56.7486 111.972 56.4205C111.412 56.089 110.98 55.6283 110.675 55.0384C110.37 54.4451 110.218 53.7573 110.218 52.9751C110.218 52.1863 110.37 51.4969 110.675 50.907C110.98 50.3137 111.412 49.853 111.972 49.5249C112.536 49.1934 113.204 49.0277 113.976 49.0277C114.748 49.0277 115.414 49.1934 115.975 49.5249C116.538 49.853 116.972 50.3137 117.277 50.907C117.582 51.4969 117.735 52.1863 117.735 52.9751C117.735 53.7573 117.582 54.4451 117.277 55.0384C116.972 55.6283 116.538 56.089 115.975 56.4205C115.414 56.7486 114.748 56.9126 113.976 56.9126ZM113.986 55.272C114.337 55.272 114.631 55.1726 114.866 54.9737C115.101 54.7715 115.279 54.4964 115.398 54.1484C115.521 53.8004 115.582 53.4044 115.582 52.9602C115.582 52.5161 115.521 52.12 115.398 51.772C115.279 51.424 115.101 51.1489 114.866 50.9467C114.631 50.7446 114.337 50.6435 113.986 50.6435C113.631 50.6435 113.333 50.7446 113.091 50.9467C112.852 51.1489 112.672 51.424 112.549 51.772C112.43 52.12 112.37 52.5161 112.37 52.9602C112.37 53.4044 112.43 53.8004 112.549 54.1484C112.672 54.4964 112.852 54.7715 113.091 54.9737C113.333 55.1726 113.631 55.272 113.986 55.272Z" fill="#D7D7D7"/>
<path d="M120.427 56.7635L118.349 49.1271H120.491L121.675 54.2578H121.744L122.977 49.1271H125.08L126.333 54.228H126.398L127.561 49.1271H129.699L127.626 56.7635H125.383L124.071 51.9609H123.976L122.664 56.7635H120.427Z" fill="#D7D7D7"/>
<path d="M132.946 52.3487V56.7635H130.828V49.1271H132.847V50.4744H132.936C133.105 50.0303 133.389 49.679 133.787 49.4205C134.184 49.1586 134.667 49.0277 135.233 49.0277C135.764 49.0277 136.226 49.1437 136.62 49.3757C137.015 49.6077 137.321 49.9392 137.54 50.37C137.759 50.7976 137.868 51.308 137.868 51.9013V56.7635H135.75V52.2791C135.754 51.8118 135.634 51.4472 135.392 51.1854C135.15 50.9202 134.817 50.7876 134.393 50.7876C134.108 50.7876 133.856 50.849 133.637 50.9716C133.422 51.0942 133.253 51.2732 133.13 51.5085C133.011 51.7405 132.95 52.0206 132.946 52.3487Z" fill="#D7D7D7"/>
<path d="M141.655 46.5817V56.7635H139.537V46.5817H141.655Z" fill="#D7D7D7"/>
<path d="M146.802 56.9126C146.03 56.9126 145.362 56.7486 144.799 56.4205C144.239 56.089 143.806 55.6283 143.501 55.0384C143.196 54.4451 143.044 53.7573 143.044 52.9751C143.044 52.1863 143.196 51.4969 143.501 50.907C143.806 50.3137 144.239 49.853 144.799 49.5249C145.362 49.1934 146.03 49.0277 146.802 49.0277C147.574 49.0277 148.241 49.1934 148.801 49.5249C149.364 49.853 149.798 50.3137 150.103 50.907C150.408 51.4969 150.561 52.1863 150.561 52.9751C150.561 53.7573 150.408 54.4451 150.103 55.0384C149.798 55.6283 149.364 56.089 148.801 56.4205C148.241 56.7486 147.574 56.9126 146.802 56.9126ZM146.812 55.272C147.163 55.272 147.457 55.1726 147.692 54.9737C147.927 54.7715 148.105 54.4964 148.224 54.1484C148.347 53.8004 148.408 53.4044 148.408 52.9602C148.408 52.5161 148.347 52.12 148.224 51.772C148.105 51.424 147.927 51.1489 147.692 50.9467C147.457 50.7446 147.163 50.6435 146.812 50.6435C146.458 50.6435 146.159 50.7446 145.917 50.9467C145.679 51.1489 145.498 51.424 145.375 51.772C145.256 52.12 145.196 52.5161 145.196 52.9602C145.196 53.4044 145.256 53.8004 145.375 54.1484C145.498 54.4964 145.679 54.7715 145.917 54.9737C146.159 55.1726 146.458 55.272 146.812 55.272Z" fill="#D7D7D7"/>
<path d="M154.115 56.9077C153.628 56.9077 153.194 56.8232 152.813 56.6541C152.432 56.4818 152.13 56.2282 151.908 55.8935C151.689 55.5554 151.58 55.1345 151.58 54.6307C151.58 54.2064 151.658 53.8501 151.814 53.5618C151.969 53.2734 152.181 53.0414 152.45 52.8658C152.718 52.6901 153.023 52.5575 153.365 52.468C153.709 52.3786 154.071 52.3156 154.449 52.2791C154.893 52.2327 155.251 52.1896 155.522 52.1499C155.794 52.1068 155.991 52.0438 156.114 51.9609C156.237 51.8781 156.298 51.7554 156.298 51.593V51.5632C156.298 51.2483 156.199 51.0047 156 50.8324C155.804 50.66 155.526 50.5739 155.164 50.5739C154.783 50.5739 154.48 50.6584 154.255 50.8274C154.029 50.9931 153.88 51.2019 153.807 51.4538L151.848 51.2947C151.948 50.8307 152.143 50.4297 152.435 50.0916C152.727 49.7502 153.103 49.4884 153.564 49.3061C154.028 49.1205 154.565 49.0277 155.174 49.0277C155.599 49.0277 156.005 49.0774 156.392 49.1768C156.783 49.2763 157.13 49.4304 157.431 49.6392C157.736 49.848 157.977 50.1165 158.152 50.4446C158.328 50.7694 158.416 51.1589 158.416 51.6129V56.7635H156.407V55.7045H156.348C156.225 55.9432 156.061 56.1536 155.855 56.3359C155.65 56.5149 155.403 56.6558 155.115 56.7585C154.826 56.858 154.493 56.9077 154.115 56.9077ZM154.722 55.446C155.033 55.446 155.309 55.3847 155.547 55.2621C155.786 55.1361 155.973 54.9671 156.109 54.755C156.245 54.5429 156.313 54.3026 156.313 54.0341V53.2237C156.247 53.2668 156.155 53.3066 156.039 53.343C155.927 53.3762 155.799 53.4077 155.657 53.4375C155.514 53.464 155.372 53.4889 155.229 53.5121C155.087 53.532 154.957 53.5502 154.841 53.5668C154.593 53.6032 154.376 53.6612 154.19 53.7408C154.004 53.8203 153.86 53.928 153.757 54.0639C153.655 54.1965 153.603 54.3622 153.603 54.5611C153.603 54.8494 153.708 55.0698 153.917 55.2223C154.129 55.3714 154.397 55.446 154.722 55.446Z" fill="#D7D7D7"/>
<path d="M162.873 56.8878C162.293 56.8878 161.768 56.7386 161.297 56.4403C160.83 56.1387 160.458 55.6963 160.183 55.1129C159.911 54.5263 159.776 53.8071 159.776 52.9553C159.776 52.0803 159.916 51.3527 160.198 50.7727C160.48 50.1894 160.854 49.7536 161.322 49.4652C161.792 49.1735 162.308 49.0277 162.868 49.0277C163.295 49.0277 163.652 49.1006 163.937 49.2464C164.225 49.389 164.457 49.5679 164.633 49.7834C164.812 49.9955 164.948 50.2043 165.04 50.4098H165.105V46.5817H167.218V56.7635H165.13V55.5405H165.04C164.941 55.7526 164.8 55.9631 164.618 56.1719C164.439 56.3774 164.205 56.5481 163.917 56.684C163.632 56.8198 163.284 56.8878 162.873 56.8878ZM163.544 55.2024C163.885 55.2024 164.174 55.1096 164.409 54.924C164.648 54.7351 164.83 54.4716 164.956 54.1335C165.085 53.7955 165.15 53.3994 165.15 52.9453C165.15 52.4912 165.087 52.0968 164.961 51.7621C164.835 51.4273 164.653 51.1688 164.414 50.9865C164.175 50.8042 163.885 50.7131 163.544 50.7131C163.196 50.7131 162.903 50.8075 162.664 50.9964C162.425 51.1854 162.245 51.4472 162.122 51.782C162 52.1167 161.938 52.5045 161.938 52.9453C161.938 53.3894 162 53.7822 162.122 54.1236C162.248 54.4616 162.429 54.7268 162.664 54.919C162.903 55.108 163.196 55.2024 163.544 55.2024Z" fill="#D7D7D7"/>
<path d="M172.439 56.9126C171.654 56.9126 170.978 56.7536 170.411 56.4354C169.848 56.1139 169.413 55.6598 169.108 55.0732C168.804 54.4832 168.651 53.7855 168.651 52.9801C168.651 52.1946 168.804 51.5052 169.108 50.9119C169.413 50.3187 169.843 49.8563 170.396 49.5249C170.953 49.1934 171.606 49.0277 172.355 49.0277C172.859 49.0277 173.328 49.1089 173.762 49.2713C174.199 49.4304 174.581 49.6707 174.905 49.9922C175.233 50.3137 175.489 50.718 175.671 51.2053C175.853 51.6892 175.944 52.2559 175.944 52.9055V53.4872H169.496V52.1747H173.951C173.951 51.8698 173.885 51.5997 173.752 51.3643C173.619 51.129 173.435 50.9451 173.2 50.8125C172.968 50.6766 172.698 50.6087 172.39 50.6087C172.068 50.6087 171.783 50.6832 171.535 50.8324C171.289 50.9782 171.097 51.1754 170.958 51.424C170.819 51.6693 170.747 51.9427 170.744 52.2443V53.4922C170.744 53.87 170.814 54.1965 170.953 54.4716C171.095 54.7467 171.296 54.9588 171.555 55.108C171.813 55.2571 172.12 55.3317 172.474 55.3317C172.71 55.3317 172.925 55.2985 173.121 55.2322C173.316 55.166 173.483 55.0665 173.623 54.9339C173.762 54.8014 173.868 54.639 173.941 54.4467L175.9 54.576C175.8 55.0466 175.596 55.4576 175.288 55.809C174.983 56.157 174.589 56.4287 174.105 56.6243C173.624 56.8165 173.069 56.9126 172.439 56.9126Z" fill="#D7D7D7"/>
<path d="M177.327 56.7635V49.1271H179.38V50.4595H179.459C179.599 49.9856 179.832 49.6276 180.16 49.3857C180.488 49.1404 180.866 49.0178 181.294 49.0178C181.4 49.0178 181.514 49.0244 181.637 49.0376C181.76 49.0509 181.867 49.0691 181.96 49.0923V50.9716C181.861 50.9418 181.723 50.9152 181.547 50.892C181.372 50.8688 181.211 50.8572 181.065 50.8572C180.754 50.8572 180.475 50.9252 180.23 51.0611C179.988 51.1937 179.796 51.3793 179.653 51.6179C179.514 51.8565 179.444 52.1316 179.444 52.4432V56.7635H177.327Z" fill="#D7D7D7"/>
<path d="M14 87C14 80.3726 19.3726 75 26 75V75C32.6274 75 38 80.3726 38 87V87C38 93.6274 32.6274 99 26 99V99C19.3726 99 14 93.6274 14 87V87Z" fill="#F8F8F8"/>
<path fill-rule="evenodd" clip-rule="evenodd" d="M32.1431 84.2109C32.143 84.211 32.1431 84.2109 32.1431 84.2109L28.9336 85.8153V88.1847L32.1431 89.7891C32.1702 89.8026 32.2003 89.809 32.2305 89.8076C32.2608 89.8063 32.2902 89.7972 32.316 89.7813C32.3417 89.7653 32.363 89.7431 32.3778 89.7166C32.3925 89.6902 32.4003 89.6604 32.4003 89.6301V84.3699C32.4003 84.3396 32.3925 84.3098 32.3778 84.2833C32.363 84.2569 32.3417 84.2346 32.316 84.2187C32.2902 84.2028 32.2608 84.1937 32.2305 84.1924C32.2003 84.191 32.1701 84.1974 32.1431 84.2109ZM31.6067 83.1375C31.8167 83.0326 32.05 82.983 32.2845 82.9936C32.519 83.0041 32.747 83.0745 32.9467 83.1979C33.1464 83.3212 33.3113 83.4936 33.4257 83.6986C33.5401 83.9036 33.6002 84.1345 33.6003 84.3692V89.6304C33.6002 89.8652 33.5401 90.0964 33.4257 90.3014C33.3113 90.5064 33.1464 90.6787 32.9467 90.8021C32.747 90.9255 32.519 90.9958 32.2845 91.0064C32.05 91.017 31.8167 90.9674 31.6067 90.8625L28.0654 89.0922C27.8621 88.9906 27.7336 88.7828 27.7336 88.5555V85.4444C27.7336 85.2172 27.8621 85.0094 28.0654 84.9078L31.6067 83.1375Z" fill="#D7D7D7"/>
<path fill-rule="evenodd" clip-rule="evenodd" d="M20.5557 82.9333C20.028 82.9333 19.6001 83.3611 19.6001 83.8888V90.1111C19.6001 90.6388 20.028 91.0666 20.5557 91.0666H26.7779C27.3057 91.0666 27.7335 90.6388 27.7335 90.1111V83.8888C27.7335 83.3611 27.3057 82.9333 26.7779 82.9333H20.5557ZM18.4001 83.8888C18.4001 82.6984 19.3652 81.7333 20.5557 81.7333H26.7779C27.9684 81.7333 28.9335 82.6984 28.9335 83.8888V90.1111C28.9335 91.3015 27.9684 92.2666 26.7779 92.2666H20.5557C19.3652 92.2666 18.4001 91.3015 18.4001 90.1111V83.8888Z" fill="#D7D7D7"/>
<path d="M14 126C14 119.373 19.3726 114 26 114V114C32.6274 114 38 119.373 38 126V126C38 132.627 32.6274 138 26 138V138C19.3726 138 14 132.627 14 126V126Z" fill="#F8F8F8"/>
<path fill-rule="evenodd" clip-rule="evenodd" d="M21.3335 128.156C20.3762 128.156 19.6001 128.932 19.6001 129.889C19.6001 130.846 20.3762 131.622 21.3335 131.622C22.2908 131.622 23.0668 130.846 23.0668 129.889C23.0668 128.932 22.2908 128.156 21.3335 128.156ZM18.4001 129.889C18.4001 128.269 19.7134 126.956 21.3335 126.956C22.9535 126.956 24.2668 128.269 24.2668 129.889C24.2668 131.509 22.9535 132.822 21.3335 132.822C19.7134 132.822 18.4001 131.509 18.4001 129.889Z" fill="#D7D7D7"/>
<path fill-rule="evenodd" clip-rule="evenodd" d="M29.1113 128.156C28.154 128.156 27.378 128.932 27.378 129.889C27.378 130.846 28.154 131.622 29.1113 131.622C30.0686 131.622 30.8446 130.846 30.8446 129.889C30.8446 128.932 30.0686 128.156 29.1113 128.156ZM26.178 129.889C26.178 128.269 27.4913 126.956 29.1113 126.956C30.7313 126.956 32.0446 128.269 32.0446 129.889C32.0446 131.509 30.7313 132.822 29.1113 132.822C27.4913 132.822 26.178 131.509 26.178 129.889Z" fill="#D7D7D7"/>
<path fill-rule="evenodd" clip-rule="evenodd" d="M23.0667 119.778C23.0667 119.446 23.3353 119.178 23.6667 119.178H31.4444C31.7758 119.178 32.0444 119.446 32.0444 119.778V129.889C32.0444 130.22 31.7758 130.489 31.4444 130.489C31.1131 130.489 30.8444 130.22 30.8444 129.889V120.378H24.2667V129.889C24.2667 130.22 23.998 130.489 23.6667 130.489C23.3353 130.489 23.0667 130.22 23.0667 129.889V119.778Z" fill="#D7D7D7"/>
<path fill-rule="evenodd" clip-rule="evenodd" d="M23.0667 122.889C23.0667 122.557 23.3353 122.289 23.6667 122.289H31.4444C31.7758 122.289 32.0444 122.557 32.0444 122.889C32.0444 123.22 31.7758 123.489 31.4444 123.489H23.6667C23.3353 123.489 23.0667 123.22 23.0667 122.889Z" fill="#D7D7D7"/>
<path d="M212 11H125C122.791 11 121 12.7909 121 15C121 17.2091 122.791 19 125 19H212C214.209 19 216 17.2091 216 15C216 12.7909 214.209 11 212 11Z" fill="#E7E7E7"/>
<path d="M22 20H16C14.8954 20 14 19.1046 14 18V12C14 10.8954 14.8954 10 16 10H22C23.1046 10 24 10.8954 24 12V18C24 19.1046 23.1046 20 22 20Z" fill="#E7E7E7"/>
<defs>
<filter id="filter0_dd_103_341" x="147" y="92" width="101.803" height="101.805" filterUnits="userSpaceOnUse" color-interpolation-filters="sRGB">
<feFlood flood-opacity="0" result="BackgroundImageFix"/>
<feColorMatrix in="SourceAlpha" type="matrix" values="0 0 0 0 0 0 0 0 0 0 0 0 0 0 0 0 0 0 127 0" result="hardAlpha"/>
<feOffset dx="5" dy="2"/>
<feGaussianBlur stdDeviation="20"/>
<feColorMatrix type="matrix" values="0 0 0 0 1 0 0 0 0 0.172549 0 0 0 0 0.172549 0 0 0 1 0"/>
<feBlend mode="normal" in2="BackgroundImageFix" result="effect1_dropShadow_103_341"/>
<feColorMatrix in="SourceAlpha" type="matrix" values="0 0 0 0 0 0 0 0 0 0 0 0 0 0 0 0 0 0 127 0" result="hardAlpha"/>
<feOffset dx="5" dy="5"/>
<feGaussianBlur stdDeviation="5"/>
<feColorMatrix type="matrix" values="0 0 0 0 1 0 0 0 0 0.170833 0 0 0 0 0.170833 0 0 0 0.08 0"/>
<feBlend mode="normal" in2="effect1_dropShadow_103_341" result="effect2_dropShadow_103_341"/>
<feBlend mode="normal" in="SourceGraphic" in2="effect2_dropShadow_103_341" result="shape"/>
</filter>
</defs>
</svg>
