<svg width="250" height="184" viewBox="0 0 250 184" fill="none" xmlns="http://www.w3.org/2000/svg">
<path d="M225 1H5C2.79086 1 1 2.79086 1 5V179C1 181.209 2.79086 183 5 183H225C227.209 183 229 181.209 229 179V5C229 2.79086 227.209 1 225 1Z" fill="white"/>
<path fill-rule="evenodd" clip-rule="evenodd" d="M5 2C3.34315 2 2 3.34315 2 5V179C2 180.657 3.34315 182 5 182H225C226.657 182 228 180.657 228 179V5C228 3.34315 226.657 2 225 2H5ZM0 5C0 2.23858 2.23858 0 5 0H225C227.761 0 230 2.23858 230 5V179C230 181.761 227.761 184 225 184H5C2.23858 184 0 181.761 0 179V5Z" fill="#D7D7D7"/>
<path d="M215 112.295C215 111.58 213.954 111 212.663 111H114.5H16.3372C15.0464 111 14 111.58 14 112.295V133.01C14 133.725 15.0464 134.304 16.3372 134.304H212.663C213.954 134.304 215 133.725 215 133.01V112.295Z" fill="#FD0000" fill-opacity="0.7"/>
<path d="M93.7146 127.507V118.198H96.5791C97.3976 118.198 98.1286 118.383 98.7722 118.754C99.4202 119.121 99.9253 119.645 100.288 120.327C100.65 121.004 100.831 121.776 100.831 122.641V123.07C100.831 123.935 100.652 124.705 100.294 125.378C99.9403 126.052 99.4393 126.574 98.7915 126.945C98.1435 127.315 97.4125 127.503 96.5983 127.507H93.7146ZM95.6328 119.752V125.966H96.56C97.3102 125.966 97.8835 125.722 98.2799 125.231C98.6764 124.741 98.8788 124.04 98.8874 123.127V122.635C98.8874 121.689 98.6912 120.972 98.299 120.487C97.907 119.996 97.3336 119.752 96.5791 119.752H95.6328ZM101.822 123.984C101.822 123.298 101.954 122.686 102.218 122.149C102.482 121.612 102.862 121.197 103.356 120.902C103.855 120.608 104.433 120.462 105.09 120.462C106.023 120.462 106.784 120.747 107.372 121.318C107.965 121.889 108.295 122.665 108.363 123.646L108.376 124.118C108.376 125.18 108.079 126.032 107.487 126.676C106.895 127.315 106.1 127.635 105.102 127.635C104.105 127.635 103.308 127.315 102.711 126.676C102.118 126.036 101.822 125.167 101.822 124.067V123.984ZM103.67 124.118C103.67 124.775 103.793 125.278 104.041 125.627C104.289 125.973 104.642 126.145 105.102 126.145C105.55 126.145 105.899 125.975 106.151 125.634C106.402 125.288 106.528 124.739 106.528 123.984C106.528 123.341 106.402 122.842 106.151 122.488C105.899 122.135 105.546 121.957 105.09 121.957C104.638 121.957 104.289 122.135 104.041 122.488C103.793 122.838 103.67 123.381 103.67 124.118ZM115.531 124.994L116.439 120.589H118.223L116.458 127.507H114.91L113.6 123.153L112.289 127.507H110.748L108.983 120.589H110.767L111.669 124.988L112.934 120.589H114.272L115.531 124.994ZM120.844 120.589L120.902 121.388C121.396 120.77 122.059 120.462 122.89 120.462C123.623 120.462 124.169 120.676 124.527 121.107C124.885 121.537 125.068 122.181 125.077 123.038V127.507H123.229V123.082C123.229 122.69 123.144 122.407 122.974 122.233C122.803 122.053 122.519 121.964 122.123 121.964C121.603 121.964 121.213 122.185 120.953 122.629V127.507H119.105V120.589H120.844ZM128.434 127.507H126.579V117.686H128.434V127.507ZM129.674 123.984C129.674 123.298 129.807 122.686 130.071 122.149C130.335 121.612 130.715 121.197 131.209 120.902C131.707 120.608 132.285 120.462 132.941 120.462C133.875 120.462 134.636 120.747 135.224 121.318C135.816 121.889 136.148 122.665 136.216 123.646L136.228 124.118C136.228 125.18 135.932 126.032 135.34 126.676C134.746 127.315 133.952 127.635 132.954 127.635C131.957 127.635 131.159 127.315 130.563 126.676C129.971 126.036 129.674 125.167 129.674 124.067V123.984ZM131.522 124.118C131.522 124.775 131.646 125.278 131.893 125.627C132.14 125.973 132.494 126.145 132.954 126.145C133.402 126.145 133.751 125.975 134.003 125.634C134.254 125.288 134.38 124.739 134.38 123.984C134.38 123.341 134.254 122.842 134.003 122.488C133.751 122.135 133.398 121.957 132.941 121.957C132.49 121.957 132.14 122.135 131.893 122.488C131.646 122.838 131.522 123.381 131.522 124.118ZM141.375 127.507C141.29 127.341 141.228 127.134 141.19 126.887C140.742 127.386 140.161 127.635 139.444 127.635C138.766 127.635 138.204 127.439 137.757 127.047C137.313 126.655 137.091 126.16 137.091 125.563C137.091 124.83 137.362 124.268 137.903 123.876C138.449 123.483 139.235 123.285 140.263 123.28H141.113V122.884C141.113 122.565 141.03 122.309 140.864 122.117C140.702 121.925 140.443 121.83 140.09 121.83C139.779 121.83 139.533 121.904 139.355 122.053C139.18 122.203 139.093 122.407 139.093 122.667H137.245C137.245 122.267 137.368 121.896 137.616 121.555C137.862 121.213 138.212 120.947 138.664 120.755C139.116 120.559 139.623 120.462 140.186 120.462C141.039 120.462 141.714 120.676 142.212 121.107C142.715 121.534 142.967 122.135 142.967 122.91V125.909C142.972 126.565 143.063 127.062 143.242 127.398V127.507H141.375ZM139.847 126.222C140.12 126.222 140.371 126.162 140.602 126.043C140.832 125.92 141.003 125.756 141.113 125.551V124.361H140.423C139.498 124.361 139.005 124.682 138.945 125.321L138.939 125.429C138.939 125.659 139.02 125.849 139.182 125.998C139.344 126.148 139.566 126.222 139.847 126.222ZM144.099 123.997C144.099 122.918 144.34 122.06 144.822 121.42C145.307 120.781 145.97 120.462 146.81 120.462C147.483 120.462 148.04 120.713 148.478 121.216V117.686H150.333V127.507H148.664L148.575 126.772C148.114 127.347 147.522 127.635 146.798 127.635C145.983 127.635 145.328 127.315 144.834 126.676C144.344 126.032 144.099 125.139 144.099 123.997ZM145.947 124.131C145.947 124.779 146.06 125.276 146.286 125.621C146.511 125.966 146.84 126.139 147.271 126.139C147.841 126.139 148.244 125.898 148.478 125.417V122.686C148.248 122.205 147.85 121.964 147.283 121.964C146.393 121.964 145.947 122.686 145.947 124.131Z" fill="white"/>
<path fill-rule="evenodd" clip-rule="evenodd" d="M85.9459 121.099H88.701L83.8796 126.085L79.0582 121.099H81.8133V116.826H85.9459V121.099ZM88.7006 128.933H79.0579V127.508H88.7006V128.933Z" fill="white"/>
<g filter="url(#filter0_dd_103_342)">
<path fill-rule="evenodd" clip-rule="evenodd" d="M185.26 118.468C185.777 118.468 186.196 118.048 186.196 117.531V114.589C186.196 114.071 185.777 113.652 185.26 113.652C184.743 113.652 184.323 114.071 184.323 114.589V117.531C184.323 118.048 184.742 118.468 185.26 118.468ZM178.787 116.438C179.153 116.073 179.745 116.073 180.111 116.438L182.192 118.519C182.557 118.885 182.557 119.477 182.192 119.843C182.009 120.026 181.769 120.117 181.53 120.117C181.29 120.117 181.05 120.026 180.867 119.843L178.787 117.763C178.421 117.397 178.421 116.804 178.787 116.438ZM198.152 131.762L203.724 137.334C204.09 137.7 204.09 138.293 203.724 138.658L201.005 141.378C200.83 141.553 200.591 141.652 200.343 141.652C200.095 141.652 199.856 141.553 199.681 141.378L194.109 135.805L191.813 139.781C191.634 140.091 191.293 140.272 190.935 140.246C190.577 140.22 190.265 139.992 190.132 139.659L183.062 121.93C182.924 121.583 183.005 121.186 183.27 120.921C183.535 120.657 183.931 120.575 184.279 120.714L202.006 127.785C202.339 127.918 202.567 128.229 202.593 128.587C202.619 128.945 202.438 129.286 202.127 129.465L198.152 131.762ZM180.816 122.911C180.816 122.394 180.397 121.975 179.88 121.975H176.937C176.42 121.975 176.001 122.394 176.001 122.911C176.001 123.428 176.42 123.848 176.937 123.848H179.88C180.397 123.848 180.816 123.428 180.816 122.911ZM178.356 127.882L180.437 125.801C180.802 125.436 181.395 125.436 181.761 125.801C182.126 126.167 182.126 126.76 181.761 127.126L179.68 129.206C179.497 129.389 179.257 129.48 179.018 129.48C178.778 129.48 178.539 129.389 178.356 129.206C177.99 128.841 177.99 128.248 178.356 127.882ZM189.473 119.412C189.291 119.595 189.051 119.686 188.811 119.686C188.572 119.686 188.332 119.595 188.149 119.412C187.784 119.047 187.784 118.454 188.149 118.088L190.23 116.007C190.595 115.642 191.188 115.642 191.554 116.007C191.92 116.373 191.92 116.966 191.554 117.332L189.473 119.412Z" fill="white"/>
<path d="M198.152 131.762L198.102 131.675L197.989 131.74L198.081 131.832L198.152 131.762ZM194.109 135.805L194.18 135.735L194.088 135.642L194.022 135.755L194.109 135.805ZM186.096 117.531C186.096 117.993 185.721 118.368 185.26 118.368V118.568C185.832 118.568 186.296 118.104 186.296 117.531H186.096ZM186.096 114.589V117.531H186.296V114.589H186.096ZM185.26 113.752C185.722 113.752 186.096 114.127 186.096 114.589H186.296C186.296 114.016 185.832 113.552 185.26 113.552V113.752ZM184.423 114.589C184.423 114.127 184.798 113.752 185.26 113.752V113.552C184.687 113.552 184.223 114.016 184.223 114.589H184.423ZM184.423 117.531V114.589H184.223V117.531H184.423ZM185.26 118.368C184.798 118.368 184.423 117.993 184.423 117.531H184.223C184.223 118.104 184.687 118.568 185.26 118.568V118.368ZM180.182 116.368C179.777 115.963 179.121 115.963 178.716 116.368L178.858 116.509C179.184 116.183 179.714 116.183 180.041 116.509L180.182 116.368ZM182.262 118.448L180.182 116.368L180.04 116.509L182.121 118.59L182.262 118.448ZM182.262 119.914C182.667 119.509 182.667 118.853 182.262 118.448L182.121 118.59C182.448 118.916 182.448 119.446 182.121 119.772L182.262 119.914ZM181.53 120.217C181.795 120.217 182.06 120.116 182.262 119.914L182.121 119.772C181.958 119.936 181.744 120.017 181.53 120.017V120.217ZM180.797 119.914C180.999 120.116 181.264 120.217 181.53 120.217V120.017C181.315 120.017 181.101 119.936 180.938 119.772L180.797 119.914ZM178.716 117.833L180.797 119.914L180.938 119.772L178.858 117.692L178.716 117.833ZM178.716 116.368C178.312 116.772 178.312 117.429 178.716 117.833L178.858 117.692C178.531 117.365 178.531 116.836 178.858 116.509L178.716 116.368ZM203.795 137.263L198.223 131.691L198.081 131.832L203.653 137.405L203.795 137.263ZM203.795 138.729C204.199 138.324 204.199 137.668 203.795 137.263L203.653 137.405C203.98 137.731 203.98 138.261 203.653 138.588L203.795 138.729ZM201.076 141.448L203.795 138.729L203.653 138.588L200.934 141.307L201.076 141.448ZM200.343 141.752C200.618 141.752 200.882 141.643 201.076 141.448L200.934 141.307C200.778 141.464 200.565 141.552 200.343 141.552V141.752ZM199.61 141.448C199.804 141.643 200.068 141.752 200.343 141.752V141.552C200.121 141.552 199.908 141.464 199.752 141.307L199.61 141.448ZM194.038 135.876L199.61 141.448L199.752 141.307L194.18 135.735L194.038 135.876ZM191.9 139.831L194.196 135.855L194.022 135.755L191.726 139.731L191.9 139.831ZM190.928 140.346C191.324 140.375 191.701 140.175 191.9 139.831L191.726 139.731C191.566 140.008 191.262 140.17 190.942 140.146L190.928 140.346ZM190.04 139.696C190.187 140.065 190.531 140.317 190.928 140.346L190.942 140.146C190.622 140.123 190.344 139.92 190.225 139.622L190.04 139.696ZM182.969 121.967L190.04 139.696L190.225 139.622L183.155 121.893L182.969 121.967ZM183.199 120.851C182.906 121.144 182.816 121.583 182.969 121.967L183.155 121.893C183.031 121.583 183.104 121.228 183.341 120.992L183.199 120.851ZM184.316 120.621C183.931 120.467 183.492 120.558 183.199 120.851L183.341 120.992C183.577 120.756 183.931 120.683 184.242 120.807L184.316 120.621ZM202.043 127.692L184.316 120.621L184.242 120.807L201.969 127.878L202.043 127.692ZM202.692 128.58C202.664 128.184 202.412 127.839 202.043 127.692L201.969 127.878C202.266 127.997 202.47 128.275 202.493 128.595L202.692 128.58ZM202.177 129.552C202.521 129.354 202.721 128.976 202.692 128.58L202.493 128.595C202.516 128.914 202.355 129.219 202.077 129.379L202.177 129.552ZM198.202 131.848L202.177 129.552L202.077 129.379L198.102 131.675L198.202 131.848ZM179.88 122.075C180.342 122.075 180.716 122.45 180.716 122.911H180.916C180.916 122.339 180.452 121.875 179.88 121.875V122.075ZM176.937 122.075H179.88V121.875H176.937V122.075ZM176.101 122.911C176.101 122.449 176.476 122.075 176.937 122.075V121.875C176.365 121.875 175.901 122.339 175.901 122.911H176.101ZM176.937 123.748C176.475 123.748 176.101 123.373 176.101 122.911H175.901C175.901 123.484 176.365 123.948 176.937 123.948V123.748ZM179.88 123.748H176.937V123.948H179.88V123.748ZM180.716 122.911C180.716 123.373 180.342 123.748 179.88 123.748V123.948C180.452 123.948 180.916 123.484 180.916 122.911H180.716ZM180.366 125.731L178.285 127.811L178.426 127.953L180.507 125.872L180.366 125.731ZM181.831 125.731C181.427 125.326 180.771 125.326 180.366 125.731L180.507 125.872C180.834 125.546 181.363 125.546 181.69 125.872L181.831 125.731ZM181.831 127.196C182.236 126.792 182.236 126.135 181.831 125.731L181.69 125.872C182.017 126.199 182.017 126.728 181.69 127.055L181.831 127.196ZM179.751 129.277L181.831 127.196L181.69 127.055L179.609 129.136L179.751 129.277ZM179.018 129.58C179.283 129.58 179.548 129.479 179.751 129.277L179.609 129.136C179.446 129.299 179.232 129.38 179.018 129.38V129.58ZM178.285 129.277C178.487 129.479 178.753 129.58 179.018 129.58V129.38C178.804 129.38 178.59 129.299 178.426 129.136L178.285 129.277ZM178.285 127.811C177.88 128.216 177.88 128.872 178.285 129.277L178.426 129.136C178.1 128.809 178.1 128.279 178.426 127.953L178.285 127.811ZM188.811 119.786C189.077 119.786 189.342 119.685 189.544 119.483L189.403 119.342C189.239 119.505 189.026 119.586 188.811 119.586V119.786ZM188.079 119.483C188.281 119.685 188.546 119.786 188.811 119.786V119.586C188.597 119.586 188.383 119.505 188.22 119.342L188.079 119.483ZM188.079 118.017C187.674 118.422 187.674 119.078 188.079 119.483L188.22 119.342C187.893 119.015 187.893 118.485 188.22 118.159L188.079 118.017ZM190.159 115.937L188.079 118.017L188.22 118.159L190.3 116.078L190.159 115.937ZM191.625 115.937C191.22 115.532 190.564 115.532 190.159 115.937L190.3 116.078C190.627 115.752 191.157 115.752 191.483 116.078L191.625 115.937ZM191.625 117.402C192.029 116.998 192.029 116.341 191.625 115.937L191.483 116.078C191.81 116.405 191.81 116.934 191.483 117.261L191.625 117.402ZM189.544 119.483L191.625 117.402L191.483 117.261L189.403 119.342L189.544 119.483Z" fill="#FFD9D9"/>
</g>
<path fill-rule="evenodd" clip-rule="evenodd" d="M212.547 80.9658H16.6211C16.2592 80.9658 15.9658 81.2592 15.9658 81.6211V99.3134C15.9658 99.6753 16.2592 99.9687 16.6211 99.9687H212.547C212.909 99.9687 213.202 99.6753 213.202 99.3134V81.6211C213.202 81.2592 212.909 80.9658 212.547 80.9658ZM16.6211 79C15.1735 79 14 80.1735 14 81.6211V99.3134C14 100.761 15.1735 101.935 16.6211 101.935H212.547C213.995 101.935 215.168 100.761 215.168 99.3134V81.6211C215.168 80.1735 213.995 79 212.547 79H16.6211Z" fill="#E7E7E7"/>
<path d="M19.9102 94.5128V84.6988H21.9682V87.1068L21.8702 88.3528C22.1315 88.1195 22.4349 87.9048 22.7802 87.7088C23.1255 87.5035 23.5362 87.4008 24.0122 87.4008C24.7682 87.4008 25.3142 87.6481 25.6502 88.1428C25.9955 88.6375 26.1682 89.3235 26.1682 90.2008V94.5128H24.1102V90.4668C24.1102 89.9628 24.0402 89.6175 23.9002 89.4308C23.7695 89.2441 23.5549 89.1508 23.2562 89.1508C22.9949 89.1508 22.7709 89.2115 22.5842 89.3328C22.3975 89.4448 22.1922 89.6081 21.9682 89.8228V94.5128H19.9102ZM30.5822 94.6808C30.1529 94.6808 29.7842 94.6155 29.4762 94.4848C29.1776 94.3541 28.9302 94.1721 28.7342 93.9388C28.5476 93.7055 28.4076 93.4255 28.3142 93.0988C28.2302 92.7628 28.1882 92.3941 28.1882 91.9928V89.1788H27.2362V87.6528L28.3002 87.5688L28.5382 85.7208H30.2462V87.5688H31.9122V89.1788H30.2462V91.9648C30.2462 92.3568 30.3256 92.6415 30.4842 92.8188C30.6522 92.9868 30.8716 93.0708 31.1422 93.0708C31.2542 93.0708 31.3662 93.0568 31.4782 93.0288C31.5996 93.0008 31.7069 92.9681 31.8002 92.9308L32.1222 94.4288C31.9356 94.4848 31.7162 94.5408 31.4642 94.5968C31.2122 94.6528 30.9182 94.6808 30.5822 94.6808ZM35.6682 94.6808C35.2389 94.6808 34.8702 94.6155 34.5622 94.4848C34.2635 94.3541 34.0162 94.1721 33.8202 93.9388C33.6335 93.7055 33.4935 93.4255 33.4002 93.0988C33.3162 92.7628 33.2742 92.3941 33.2742 91.9928V89.1788H32.3222V87.6528L33.3862 87.5688L33.6242 85.7208H35.3322V87.5688H36.9982V89.1788H35.3322V91.9648C35.3322 92.3568 35.4115 92.6415 35.5702 92.8188C35.7382 92.9868 35.9575 93.0708 36.2282 93.0708C36.3402 93.0708 36.4522 93.0568 36.5642 93.0288C36.6855 93.0008 36.7929 92.9681 36.8862 92.9308L37.2082 94.4288C37.0215 94.4848 36.8022 94.5408 36.5502 94.5968C36.2982 94.6528 36.0042 94.6808 35.6682 94.6808ZM38.3536 97.0888V87.5688H40.0336L40.1736 88.2548H40.2296C40.5002 88.0121 40.8036 87.8115 41.1396 87.6528C41.4849 87.4848 41.8396 87.4008 42.2036 87.4008C42.6236 87.4008 43.0016 87.4848 43.3376 87.6528C43.6736 87.8208 43.9582 88.0588 44.1916 88.3668C44.4249 88.6748 44.6022 89.0481 44.7236 89.4868C44.8542 89.9161 44.9196 90.3968 44.9196 90.9288C44.9196 91.5261 44.8356 92.0581 44.6676 92.5248C44.5089 92.9821 44.2896 93.3741 44.0096 93.7008C43.7389 94.0181 43.4262 94.2608 43.0716 94.4288C42.7262 94.5968 42.3669 94.6808 41.9936 94.6808C41.6949 94.6808 41.4056 94.6201 41.1256 94.4988C40.8456 94.3681 40.5842 94.1861 40.3416 93.9528L40.4116 95.0588V97.0888H38.3536ZM41.5176 93.0008C41.8722 93.0008 42.1756 92.8421 42.4276 92.5248C42.6796 92.1981 42.8056 91.6755 42.8056 90.9568C42.8056 89.7061 42.4042 89.0808 41.6016 89.0808C41.2002 89.0808 40.8036 89.2908 40.4116 89.7108V92.5528C40.5982 92.7208 40.7849 92.8375 40.9716 92.9028C41.1582 92.9681 41.3402 93.0008 41.5176 93.0008ZM48.3546 94.6808C47.8973 94.6808 47.4259 94.5921 46.9406 94.4148C46.4646 94.2375 46.0493 94.0041 45.6946 93.7148L46.6186 92.4268C46.9359 92.6695 47.2393 92.8515 47.5286 92.9728C47.8179 93.0941 48.1119 93.1548 48.4106 93.1548C48.7186 93.1548 48.9426 93.1035 49.0826 93.0008C49.2226 92.8981 49.2926 92.7535 49.2926 92.5668C49.2926 92.4548 49.2506 92.3568 49.1666 92.2728C49.0919 92.1795 48.9846 92.0955 48.8446 92.0208C48.7139 91.9461 48.5646 91.8808 48.3966 91.8248C48.2286 91.7595 48.0559 91.6895 47.8786 91.6148C47.6639 91.5308 47.4493 91.4328 47.2346 91.3208C47.0199 91.2088 46.8239 91.0735 46.6466 90.9148C46.4693 90.7468 46.3246 90.5555 46.2126 90.3408C46.1006 90.1168 46.0446 89.8601 46.0446 89.5708C46.0446 89.2535 46.1053 88.9595 46.2266 88.6888C46.3573 88.4181 46.5393 88.1895 46.7726 88.0028C47.0059 87.8161 47.2859 87.6715 47.6126 87.5688C47.9393 87.4568 48.3033 87.4008 48.7046 87.4008C49.2366 87.4008 49.7033 87.4941 50.1046 87.6808C50.5059 87.8581 50.8559 88.0588 51.1546 88.2828L50.2306 89.5148C49.9786 89.3281 49.7313 89.1835 49.4886 89.0808C49.2459 88.9781 49.0033 88.9268 48.7606 88.9268C48.2379 88.9268 47.9766 89.1088 47.9766 89.4728C47.9766 89.5848 48.0139 89.6828 48.0886 89.7668C48.1633 89.8415 48.2613 89.9115 48.3826 89.9768C48.5133 90.0421 48.6579 90.1075 48.8166 90.1728C48.9846 90.2288 49.1573 90.2895 49.3346 90.3548C49.5586 90.4388 49.7779 90.5368 49.9926 90.6488C50.2166 90.7515 50.4173 90.8821 50.5946 91.0408C50.7813 91.1995 50.9306 91.3955 51.0426 91.6288C51.1546 91.8528 51.2106 92.1235 51.2106 92.4408C51.2106 92.7581 51.1499 93.0521 51.0286 93.3228C50.9073 93.5935 50.7253 93.8315 50.4826 94.0368C50.2399 94.2328 49.9413 94.3915 49.5866 94.5128C49.2319 94.6248 48.8213 94.6808 48.3546 94.6808ZM53.7076 90.1448C53.353 90.1448 53.0543 90.0235 52.8116 89.7808C52.5783 89.5288 52.4616 89.2208 52.4616 88.8568C52.4616 88.4835 52.5783 88.1755 52.8116 87.9328C53.0543 87.6808 53.353 87.5548 53.7076 87.5548C54.0623 87.5548 54.3563 87.6808 54.5896 87.9328C54.8323 88.1755 54.9536 88.4835 54.9536 88.8568C54.9536 89.2208 54.8323 89.5288 54.5896 89.7808C54.3563 90.0235 54.0623 90.1448 53.7076 90.1448ZM53.7076 94.6808C53.353 94.6808 53.0543 94.5595 52.8116 94.3168C52.5783 94.0648 52.4616 93.7568 52.4616 93.3928C52.4616 93.0195 52.5783 92.7115 52.8116 92.4688C53.0543 92.2168 53.353 92.0908 53.7076 92.0908C54.0623 92.0908 54.3563 92.2168 54.5896 92.4688C54.8323 92.7115 54.9536 93.0195 54.9536 93.3928C54.9536 93.7568 54.8323 94.0648 54.5896 94.3168C54.3563 94.5595 54.0623 94.6808 53.7076 94.6808ZM55.9869 96.7528L58.8009 84.5728H60.1449L57.3309 96.7528H55.9869ZM60.731 96.7528L63.545 84.5728H64.889L62.075 96.7528H60.731ZM67.3652 94.5128L65.6292 87.5688H67.6732L68.3452 90.7888C68.4012 91.1341 68.4525 91.4748 68.4992 91.8108C68.5458 92.1468 68.5972 92.4921 68.6532 92.8468H68.7092C68.7745 92.4921 68.8352 92.1421 68.8912 91.7968C68.9565 91.4515 69.0312 91.1155 69.1152 90.7888L69.8852 87.5688H71.6632L72.4472 90.7888C72.5312 91.1341 72.6058 91.4748 72.6712 91.8108C72.7365 92.1468 72.8065 92.4921 72.8812 92.8468H72.9372C73.0025 92.4921 73.0538 92.1468 73.0912 91.8108C73.1378 91.4748 73.1938 91.1341 73.2592 90.7888L73.9172 87.5688H75.8212L74.1552 94.5128H71.7472L71.1172 91.7408C71.0425 91.4141 70.9772 91.0875 70.9212 90.7608C70.8652 90.4341 70.8045 90.0841 70.7392 89.7108H70.6832C70.6178 90.0841 70.5572 90.4341 70.5012 90.7608C70.4545 91.0875 70.3985 91.4141 70.3332 91.7408L69.7172 94.5128H67.3652ZM78.2343 94.5128L76.4983 87.5688H78.5423L79.2143 90.7888C79.2703 91.1341 79.3216 91.4748 79.3683 91.8108C79.415 92.1468 79.4663 92.4921 79.5223 92.8468H79.5783C79.6436 92.4921 79.7043 92.1421 79.7603 91.7968C79.8256 91.4515 79.9003 91.1155 79.9843 90.7888L80.7543 87.5688H82.5323L83.3163 90.7888C83.4003 91.1341 83.475 91.4748 83.5403 91.8108C83.6056 92.1468 83.6756 92.4921 83.7503 92.8468H83.8063C83.8716 92.4921 83.923 92.1468 83.9603 91.8108C84.007 91.4748 84.063 91.1341 84.1283 90.7888L84.7863 87.5688H86.6903L85.0243 94.5128H82.6163L81.9863 91.7408C81.9116 91.4141 81.8463 91.0875 81.7903 90.7608C81.7343 90.4341 81.6736 90.0841 81.6083 89.7108H81.5523C81.487 90.0841 81.4263 90.4341 81.3703 90.7608C81.3236 91.0875 81.2676 91.4141 81.2023 91.7408L80.5863 94.5128H78.2343ZM89.1035 94.5128L87.3675 87.5688H89.4115L90.0835 90.7888C90.1395 91.1341 90.1908 91.4748 90.2375 91.8108C90.2841 92.1468 90.3354 92.4921 90.3914 92.8468H90.4475C90.5128 92.4921 90.5735 92.1421 90.6294 91.7968C90.6948 91.4515 90.7694 91.1155 90.8535 90.7888L91.6235 87.5688H93.4015L94.1855 90.7888C94.2695 91.1341 94.3441 91.4748 94.4095 91.8108C94.4748 92.1468 94.5448 92.4921 94.6195 92.8468H94.6755C94.7408 92.4921 94.7921 92.1468 94.8295 91.8108C94.8761 91.4748 94.9321 91.1341 94.9975 90.7888L95.6555 87.5688H97.5595L95.8935 94.5128H93.4855L92.8555 91.7408C92.7808 91.4141 92.7155 91.0875 92.6595 90.7608C92.6035 90.4341 92.5428 90.0841 92.4775 89.7108H92.4215C92.3561 90.0841 92.2955 90.4341 92.2395 90.7608C92.1928 91.0875 92.1368 91.4141 92.0715 91.7408L91.4555 94.5128H89.1035ZM98.8385 94.6808C98.4838 94.6808 98.1851 94.5595 97.9425 94.3168C97.7091 94.0648 97.5925 93.7568 97.5925 93.3928C97.5925 93.0195 97.7091 92.7115 97.9425 92.4688C98.1851 92.2168 98.4838 92.0908 98.8385 92.0908C99.1931 92.0908 99.4871 92.2168 99.7205 92.4688C99.9631 92.7115 100.084 93.0195 100.084 93.3928C100.084 93.7568 99.9631 94.0648 99.7205 94.3168C99.4871 94.5595 99.1931 94.6808 98.8385 94.6808ZM102.342 97.2288C102.127 97.2288 101.945 97.2148 101.796 97.1868C101.647 97.1681 101.502 97.1355 101.362 97.0888L101.726 95.5208C101.791 95.5395 101.866 95.5581 101.95 95.5768C102.034 95.5955 102.113 95.6048 102.188 95.6048C102.533 95.6048 102.799 95.5208 102.986 95.3528C103.173 95.1848 103.313 94.9655 103.406 94.6948L103.504 94.3308L100.83 87.5688H102.902L103.896 90.5508C103.999 90.8681 104.092 91.1901 104.176 91.5168C104.26 91.8435 104.349 92.1795 104.442 92.5248H104.498C104.573 92.1981 104.647 91.8715 104.722 91.5448C104.806 91.2088 104.89 90.8775 104.974 90.5508L105.814 87.5688H107.788L105.38 94.5828C105.212 95.0215 105.035 95.4041 104.848 95.7308C104.671 96.0668 104.461 96.3421 104.218 96.5568C103.985 96.7808 103.714 96.9488 103.406 97.0608C103.107 97.1728 102.753 97.2288 102.342 97.2288ZM111.746 94.6808C111.307 94.6808 110.882 94.6015 110.472 94.4428C110.061 94.2748 109.697 94.0368 109.38 93.7288C109.072 93.4208 108.824 93.0428 108.638 92.5948C108.451 92.1375 108.358 91.6195 108.358 91.0408C108.358 90.4621 108.451 89.9488 108.638 89.5008C108.824 89.0435 109.072 88.6608 109.38 88.3528C109.697 88.0448 110.061 87.8115 110.472 87.6528C110.882 87.4848 111.307 87.4008 111.746 87.4008C112.184 87.4008 112.604 87.4848 113.006 87.6528C113.416 87.8115 113.776 88.0448 114.084 88.3528C114.401 88.6608 114.653 89.0435 114.84 89.5008C115.026 89.9488 115.12 90.4621 115.12 91.0408C115.12 91.6195 115.026 92.1375 114.84 92.5948C114.653 93.0428 114.401 93.4208 114.084 93.7288C113.776 94.0368 113.416 94.2748 113.006 94.4428C112.604 94.6015 112.184 94.6808 111.746 94.6808ZM111.746 93.0148C112.166 93.0148 112.483 92.8375 112.698 92.4828C112.912 92.1281 113.02 91.6475 113.02 91.0408C113.02 90.4341 112.912 89.9535 112.698 89.5988C112.483 89.2441 112.166 89.0668 111.746 89.0668C111.316 89.0668 110.994 89.2441 110.78 89.5988C110.574 89.9535 110.472 90.4341 110.472 91.0408C110.472 91.6475 110.574 92.1281 110.78 92.4828C110.994 92.8375 111.316 93.0148 111.746 93.0148ZM118.615 94.6808C117.859 94.6808 117.308 94.4335 116.963 93.9388C116.627 93.4441 116.459 92.7581 116.459 91.8808V87.5688H118.517V91.6148C118.517 92.1188 118.587 92.4641 118.727 92.6508C118.867 92.8375 119.086 92.9308 119.385 92.9308C119.646 92.9308 119.866 92.8701 120.043 92.7488C120.22 92.6275 120.412 92.4315 120.617 92.1608V87.5688H122.675V94.5128H120.995L120.841 93.5468H120.799C120.5 93.9015 120.178 94.1815 119.833 94.3868C119.497 94.5828 119.091 94.6808 118.615 94.6808ZM127.16 94.6808C126.731 94.6808 126.362 94.6155 126.054 94.4848C125.756 94.3541 125.508 94.1721 125.312 93.9388C125.126 93.7055 124.986 93.4255 124.892 93.0988C124.808 92.7628 124.766 92.3941 124.766 91.9928V89.1788H123.814V87.6528L124.878 87.5688L125.116 85.7208H126.824V87.5688H128.49V89.1788H126.824V91.9648C126.824 92.3568 126.904 92.6415 127.062 92.8188C127.23 92.9868 127.45 93.0708 127.72 93.0708C127.832 93.0708 127.944 93.0568 128.056 93.0288C128.178 93.0008 128.285 92.9681 128.378 92.9308L128.7 94.4288C128.514 94.4848 128.294 94.5408 128.042 94.5968C127.79 94.6528 127.496 94.6808 127.16 94.6808ZM131.932 94.6808C131.176 94.6808 130.625 94.4335 130.28 93.9388C129.944 93.4441 129.776 92.7581 129.776 91.8808V87.5688H131.834V91.6148C131.834 92.1188 131.904 92.4641 132.044 92.6508C132.184 92.8375 132.403 92.9308 132.702 92.9308C132.963 92.9308 133.182 92.8701 133.36 92.7488C133.537 92.6275 133.728 92.4315 133.934 92.1608V87.5688H135.992V94.5128H134.312L134.158 93.5468H134.116C133.817 93.9015 133.495 94.1815 133.15 94.3868C132.814 94.5828 132.408 94.6808 131.932 94.6808ZM141.443 94.6808C141.135 94.6808 140.822 94.6061 140.505 94.4568C140.197 94.2981 139.907 94.0695 139.637 93.7708H139.581L139.413 94.5128H137.803V84.6988H139.861V87.1068L139.805 88.1708C140.075 87.9281 140.365 87.7415 140.673 87.6108C140.99 87.4708 141.312 87.4008 141.639 87.4008C142.059 87.4008 142.437 87.4848 142.773 87.6528C143.109 87.8208 143.393 88.0588 143.627 88.3668C143.869 88.6655 144.051 89.0341 144.173 89.4728C144.303 89.9021 144.369 90.3828 144.369 90.9148C144.369 91.5121 144.285 92.0441 144.117 92.5108C143.958 92.9775 143.739 93.3741 143.459 93.7008C143.188 94.0181 142.875 94.2608 142.521 94.4288C142.175 94.5968 141.816 94.6808 141.443 94.6808ZM140.967 93.0008C141.321 93.0008 141.625 92.8421 141.877 92.5248C142.129 92.1981 142.255 91.6755 142.255 90.9568C142.255 89.7061 141.853 89.0808 141.051 89.0808C140.64 89.0808 140.243 89.2908 139.861 89.7108V92.5528C140.047 92.7208 140.234 92.8375 140.421 92.9028C140.607 92.9681 140.789 93.0008 140.967 93.0008ZM148.936 94.6808C148.441 94.6808 147.979 94.6015 147.55 94.4428C147.121 94.2748 146.747 94.0368 146.43 93.7288C146.113 93.4115 145.865 93.0288 145.688 92.5808C145.511 92.1328 145.422 91.6195 145.422 91.0408C145.422 90.4808 145.515 89.9768 145.702 89.5288C145.889 89.0715 146.131 88.6888 146.43 88.3808C146.738 88.0635 147.088 87.8208 147.48 87.6528C147.872 87.4848 148.278 87.4008 148.698 87.4008C149.193 87.4008 149.622 87.4848 149.986 87.6528C150.359 87.8208 150.667 88.0541 150.91 88.3528C151.162 88.6515 151.349 89.0061 151.47 89.4168C151.591 89.8181 151.652 90.2568 151.652 90.7328C151.652 90.9195 151.643 91.0968 151.624 91.2648C151.605 91.4328 151.587 91.5588 151.568 91.6428H147.41C147.503 92.1468 147.709 92.5201 148.026 92.7628C148.353 92.9961 148.749 93.1128 149.216 93.1128C149.711 93.1128 150.21 92.9588 150.714 92.6508L151.4 93.8968C151.045 94.1395 150.649 94.3308 150.21 94.4708C149.781 94.6108 149.356 94.6808 148.936 94.6808ZM147.396 90.2848H149.902C149.902 89.8928 149.813 89.5755 149.636 89.3328C149.459 89.0901 149.16 88.9688 148.74 88.9688C148.413 88.9688 148.124 89.0761 147.872 89.2908C147.629 89.5055 147.471 89.8368 147.396 90.2848ZM154.264 94.6808C153.909 94.6808 153.611 94.5595 153.368 94.3168C153.135 94.0648 153.018 93.7568 153.018 93.3928C153.018 93.0195 153.135 92.7115 153.368 92.4688C153.611 92.2168 153.909 92.0908 154.264 92.0908C154.619 92.0908 154.913 92.2168 155.146 92.4688C155.389 92.7115 155.51 93.0195 155.51 93.3928C155.51 93.7568 155.389 94.0648 155.146 94.3168C154.913 94.5595 154.619 94.6808 154.264 94.6808ZM160.159 94.6808C159.673 94.6808 159.221 94.6015 158.801 94.4428C158.39 94.2748 158.031 94.0368 157.723 93.7288C157.415 93.4208 157.172 93.0428 156.995 92.5948C156.817 92.1375 156.729 91.6195 156.729 91.0408C156.729 90.4621 156.827 89.9488 157.023 89.5008C157.219 89.0435 157.48 88.6608 157.807 88.3528C158.143 88.0448 158.53 87.8115 158.969 87.6528C159.407 87.4848 159.865 87.4008 160.341 87.4008C160.77 87.4008 161.148 87.4708 161.475 87.6108C161.811 87.7508 162.109 87.9281 162.371 88.1428L161.405 89.4728C161.078 89.2021 160.765 89.0668 160.467 89.0668C159.963 89.0668 159.566 89.2441 159.277 89.5988C158.987 89.9535 158.843 90.4341 158.843 91.0408C158.843 91.6475 158.987 92.1281 159.277 92.4828C159.575 92.8375 159.949 93.0148 160.397 93.0148C160.621 93.0148 160.835 92.9681 161.041 92.8748C161.255 92.7721 161.456 92.6508 161.643 92.5108L162.455 93.8548C162.109 94.1535 161.736 94.3681 161.335 94.4988C160.933 94.6201 160.541 94.6808 160.159 94.6808ZM166.255 94.6808C165.817 94.6808 165.392 94.6015 164.981 94.4428C164.571 94.2748 164.207 94.0368 163.889 93.7288C163.581 93.4208 163.334 93.0428 163.147 92.5948C162.961 92.1375 162.867 91.6195 162.867 91.0408C162.867 90.4621 162.961 89.9488 163.147 89.5008C163.334 89.0435 163.581 88.6608 163.889 88.3528C164.207 88.0448 164.571 87.8115 164.981 87.6528C165.392 87.4848 165.817 87.4008 166.255 87.4008C166.694 87.4008 167.114 87.4848 167.515 87.6528C167.926 87.8115 168.285 88.0448 168.593 88.3528C168.911 88.6608 169.163 89.0435 169.349 89.5008C169.536 89.9488 169.629 90.4621 169.629 91.0408C169.629 91.6195 169.536 92.1375 169.349 92.5948C169.163 93.0428 168.911 93.4208 168.593 93.7288C168.285 94.0368 167.926 94.2748 167.515 94.4428C167.114 94.6015 166.694 94.6808 166.255 94.6808ZM166.255 93.0148C166.675 93.0148 166.993 92.8375 167.207 92.4828C167.422 92.1281 167.529 91.6475 167.529 91.0408C167.529 90.4341 167.422 89.9535 167.207 89.5988C166.993 89.2441 166.675 89.0668 166.255 89.0668C165.826 89.0668 165.504 89.2441 165.289 89.5988C165.084 89.9535 164.981 90.4341 164.981 91.0408C164.981 91.6475 165.084 92.1281 165.289 92.4828C165.504 92.8375 165.826 93.0148 166.255 93.0148ZM171.039 94.5128V87.5688H172.719L172.859 88.4648H172.915C173.204 88.1755 173.512 87.9281 173.839 87.7228C174.166 87.5081 174.558 87.4008 175.015 87.4008C175.51 87.4008 175.906 87.5035 176.205 87.7088C176.513 87.9048 176.756 88.1895 176.933 88.5628C177.241 88.2455 177.563 87.9748 177.899 87.7508C178.244 87.5175 178.65 87.4008 179.117 87.4008C179.864 87.4008 180.41 87.6528 180.755 88.1568C181.11 88.6515 181.287 89.3328 181.287 90.2008V94.5128H179.229V90.4668C179.229 89.9628 179.159 89.6175 179.019 89.4308C178.888 89.2441 178.674 89.1508 178.375 89.1508C178.03 89.1508 177.633 89.3748 177.185 89.8228V94.5128H175.127V90.4668C175.127 89.9628 175.057 89.6175 174.917 89.4308C174.786 89.2441 174.572 89.1508 174.273 89.1508C173.918 89.1508 173.526 89.3748 173.097 89.8228V94.5128H171.039ZM182.315 96.7528L185.129 84.5728H186.473L183.659 96.7528H182.315ZM188.949 94.5128L187.213 87.5688H189.257L189.929 90.7888C189.985 91.1341 190.036 91.4748 190.083 91.8108C190.13 92.1468 190.181 92.4921 190.237 92.8468H190.293C190.358 92.4921 190.419 92.1421 190.475 91.7968C190.54 91.4515 190.615 91.1155 190.699 90.7888L191.469 87.5688H193.247L194.031 90.7888C194.115 91.1341 194.19 91.4748 194.255 91.8108C194.32 92.1468 194.39 92.4921 194.465 92.8468H194.521C194.586 92.4921 194.638 92.1468 194.675 91.8108C194.722 91.4748 194.778 91.1341 194.843 90.7888L195.501 87.5688H197.405L195.739 94.5128H193.331L192.701 91.7408C192.626 91.4141 192.561 91.0875 192.505 90.7608C192.449 90.4341 192.388 90.0841 192.323 89.7108H192.267C192.202 90.0841 192.141 90.4341 192.085 90.7608C192.038 91.0875 191.982 91.4141 191.917 91.7408L191.301 94.5128H188.949ZM200.269 94.6808C199.952 94.6808 199.663 94.6248 199.401 94.5128C199.149 94.4101 198.935 94.2655 198.757 94.0788C198.58 93.8828 198.44 93.6588 198.337 93.4068C198.244 93.1548 198.197 92.8795 198.197 92.5808C198.197 91.8528 198.505 91.2835 199.121 90.8728C199.737 90.4621 200.731 90.1868 202.103 90.0468C202.085 89.7388 201.991 89.4961 201.823 89.3188C201.665 89.1321 201.394 89.0388 201.011 89.0388C200.713 89.0388 200.414 89.0948 200.115 89.2068C199.826 89.3188 199.513 89.4728 199.177 89.6688L198.435 88.3108C198.883 88.0401 199.35 87.8208 199.835 87.6528C200.33 87.4848 200.853 87.4008 201.403 87.4008C202.299 87.4008 202.981 87.6575 203.447 88.1708C203.923 88.6748 204.161 89.4635 204.161 90.5368V94.5128H202.481L202.341 93.7988H202.285C201.987 94.0601 201.674 94.2748 201.347 94.4428C201.021 94.6015 200.661 94.6808 200.269 94.6808ZM200.969 93.0848C201.203 93.0848 201.403 93.0335 201.571 92.9308C201.739 92.8281 201.917 92.6835 202.103 92.4968V91.2788C201.375 91.3815 200.871 91.5308 200.591 91.7268C200.311 91.9228 200.171 92.1561 200.171 92.4268C200.171 92.6508 200.241 92.8188 200.381 92.9308C200.531 93.0335 200.727 93.0848 200.969 93.0848ZM208.33 94.6808C207.901 94.6808 207.532 94.6155 207.224 94.4848C206.925 94.3541 206.678 94.1721 206.482 93.9388C206.295 93.7055 206.155 93.4255 206.062 93.0988C205.978 92.7628 205.936 92.3941 205.936 91.9928V89.1788H204.984V87.6528L206.048 87.5688L206.286 85.7208H207.994V87.5688H209.66V89.1788H207.994V91.9648C207.994 92.3568 208.073 92.6415 208.232 92.8188C208.4 92.9868 208.619 93.0708 208.89 93.0708C209.002 93.0708 209.114 93.0568 209.226 93.0288C209.347 93.0008 209.455 92.9681 209.548 92.9308L209.87 94.4288C209.683 94.4848 209.464 94.5408 209.212 94.5968C208.96 94.6528 208.666 94.6808 208.33 94.6808Z" fill="#E7E7E7"/>
<path d="M212 11H125C122.791 11 121 12.7909 121 15C121 17.2091 122.791 19 125 19H212C214.209 19 216 17.2091 216 15C216 12.7909 214.209 11 212 11Z" fill="#E7E7E7"/>
<path d="M22 20H16C14.8954 20 14 19.1046 14 18V12C14 10.8954 14.8954 10 16 10H22C23.1046 10 24 10.8954 24 12V18C24 19.1046 23.1046 20 22 20Z" fill="#E7E7E7"/>
<path d="M56.7243 54.8181L59.1853 62.5539H59.2797L61.7457 54.8181H64.132L60.6221 64.9999H57.8479L54.333 54.8181H56.7243Z" fill="#D7D7D7"/>
<path d="M65.3177 64.9999V57.3636H67.4356V64.9999H65.3177ZM66.3817 56.3792C66.0668 56.3792 65.7967 56.2748 65.5713 56.066C65.3492 55.8539 65.2382 55.6003 65.2382 55.3053C65.2382 55.0137 65.3492 54.7634 65.5713 54.5546C65.7967 54.3425 66.0668 54.2365 66.3817 54.2365C66.6965 54.2365 66.965 54.3425 67.1871 54.5546C67.4124 54.7634 67.5251 55.0137 67.5251 55.3053C67.5251 55.6003 67.4124 55.8539 67.1871 56.066C66.965 56.2748 66.6965 56.3792 66.3817 56.3792Z" fill="#D7D7D7"/>
<path d="M71.9461 65.1242C71.3661 65.1242 70.8408 64.9751 70.3701 64.6768C69.9028 64.3752 69.5316 63.9327 69.2565 63.3494C68.9847 62.7627 68.8488 62.0435 68.8488 61.1917C68.8488 60.3167 68.9897 59.5892 69.2714 59.0092C69.5531 58.4258 69.9276 57.99 70.395 57.7016C70.8656 57.41 71.381 57.2641 71.9411 57.2641C72.3687 57.2641 72.725 57.3371 73.01 57.4829C73.2984 57.6254 73.5304 57.8044 73.7061 58.0198C73.885 58.232 74.0209 58.4408 74.1137 58.6463H74.1784V54.8181H76.2913V64.9999H74.2032V63.7769H74.1137C74.0143 63.9891 73.8734 64.1995 73.6911 64.4083C73.5122 64.6138 73.2785 64.7845 72.9901 64.9204C72.7051 65.0563 72.3571 65.1242 71.9461 65.1242ZM72.6173 63.4389C72.9587 63.4389 73.247 63.3461 73.4823 63.1605C73.721 62.9715 73.9033 62.708 74.0292 62.37C74.1585 62.0319 74.2231 61.6358 74.2231 61.1818C74.2231 60.7277 74.1601 60.3333 74.0342 59.9985C73.9082 59.6638 73.7259 59.4052 73.4873 59.223C73.2487 59.0407 72.9587 58.9495 72.6173 58.9495C72.2693 58.9495 71.9759 59.044 71.7373 59.2329C71.4987 59.4218 71.318 59.6837 71.1954 60.0184C71.0728 60.3532 71.0115 60.7409 71.0115 61.1818C71.0115 61.6259 71.0728 62.0186 71.1954 62.36C71.3213 62.6981 71.502 62.9633 71.7373 63.1555C71.9759 63.3444 72.2693 63.4389 72.6173 63.4389Z" fill="#D7D7D7"/>
<path d="M78.0326 64.9999V57.3636H80.1505V64.9999H78.0326ZM79.0965 56.3792C78.7816 56.3792 78.5115 56.2748 78.2861 56.066C78.0641 55.8539 77.953 55.6003 77.953 55.3053C77.953 55.0137 78.0641 54.7634 78.2861 54.5546C78.5115 54.3425 78.7816 54.2365 79.0965 54.2365C79.4114 54.2365 79.6798 54.3425 79.9019 54.5546C80.1273 54.7634 80.24 55.0137 80.24 55.3053C80.24 55.6003 80.1273 55.8539 79.9019 56.066C79.6798 56.2748 79.4114 56.3792 79.0965 56.3792Z" fill="#D7D7D7"/>
<path d="M85.2973 65.1491C84.5251 65.1491 83.8572 64.985 83.2938 64.6569C82.7336 64.3255 82.3011 63.8648 81.9962 63.2748C81.6913 62.6815 81.5388 61.9938 81.5388 61.2116C81.5388 60.4228 81.6913 59.7334 81.9962 59.1434C82.3011 58.5501 82.7336 58.0894 83.2938 57.7613C83.8572 57.4299 84.5251 57.2641 85.2973 57.2641C86.0696 57.2641 86.7358 57.4299 87.2959 57.7613C87.8593 58.0894 88.2935 58.5501 88.5985 59.1434C88.9034 59.7334 89.0558 60.4228 89.0558 61.2116C89.0558 61.9938 88.9034 62.6815 88.5985 63.2748C88.2935 63.8648 87.8593 64.3255 87.2959 64.6569C86.7358 64.985 86.0696 65.1491 85.2973 65.1491ZM85.3073 63.5085C85.6586 63.5085 85.9519 63.409 86.1872 63.2102C86.4226 63.008 86.5999 62.7329 86.7192 62.3849C86.8418 62.0369 86.9031 61.6408 86.9031 61.1967C86.9031 60.7525 86.8418 60.3565 86.7192 60.0085C86.5999 59.6605 86.4226 59.3854 86.1872 59.1832C85.9519 58.981 85.6586 58.8799 85.3073 58.8799C84.9526 58.8799 84.6543 58.981 84.4124 59.1832C84.1737 59.3854 83.9931 59.6605 83.8705 60.0085C83.7512 60.3565 83.6915 60.7525 83.6915 61.1967C83.6915 61.6408 83.7512 62.0369 83.8705 62.3849C83.9931 62.7329 84.1737 63.008 84.4124 63.2102C84.6543 63.409 84.9526 63.5085 85.3073 63.5085Z" fill="#D7D7D7"/>
<path d="M97.3224 64.9999H93.713V54.8181H97.3522C98.3763 54.8181 99.258 55.022 99.9971 55.4296C100.736 55.834 101.305 56.4157 101.702 57.1747C102.103 57.9337 102.304 58.8418 102.304 59.8991C102.304 60.9597 102.103 61.8712 101.702 62.6335C101.305 63.3958 100.733 63.9808 99.9871 64.3884C99.2447 64.7961 98.3564 64.9999 97.3224 64.9999ZM95.8657 63.1555H97.2329C97.8692 63.1555 98.4045 63.0428 98.8387 62.8174C99.2762 62.5887 99.6043 62.2357 99.8231 61.7585C100.045 61.2779 100.156 60.6581 100.156 59.8991C100.156 59.1467 100.045 58.5319 99.8231 58.0546C99.6043 57.5774 99.2778 57.226 98.8437 57.0007C98.4095 56.7753 97.8742 56.6626 97.2378 56.6626H95.8657V63.1555Z" fill="#D7D7D7"/>
<path d="M107.309 65.1491C106.537 65.1491 105.869 64.985 105.305 64.6569C104.745 64.3255 104.313 63.8648 104.008 63.2748C103.703 62.6815 103.551 61.9938 103.551 61.2116C103.551 60.4228 103.703 59.7334 104.008 59.1434C104.313 58.5501 104.745 58.0894 105.305 57.7613C105.869 57.4299 106.537 57.2641 107.309 57.2641C108.081 57.2641 108.747 57.4299 109.308 57.7613C109.871 58.0894 110.305 58.5501 110.61 59.1434C110.915 59.7334 111.068 60.4228 111.068 61.2116C111.068 61.9938 110.915 62.6815 110.61 63.2748C110.305 63.8648 109.871 64.3255 109.308 64.6569C108.747 64.985 108.081 65.1491 107.309 65.1491ZM107.319 63.5085C107.67 63.5085 107.964 63.409 108.199 63.2102C108.434 63.008 108.612 62.7329 108.731 62.3849C108.854 62.0369 108.915 61.6408 108.915 61.1967C108.915 60.7525 108.854 60.3565 108.731 60.0085C108.612 59.6605 108.434 59.3854 108.199 59.1832C107.964 58.981 107.67 58.8799 107.319 58.8799C106.964 58.8799 106.666 58.981 106.424 59.1832C106.185 59.3854 106.005 59.6605 105.882 60.0085C105.763 60.3565 105.703 60.7525 105.703 61.1967C105.703 61.6408 105.763 62.0369 105.882 62.3849C106.005 62.7329 106.185 63.008 106.424 63.2102C106.666 63.409 106.964 63.5085 107.319 63.5085Z" fill="#D7D7D7"/>
<path d="M113.76 64.9999L111.682 57.3636H113.824L115.008 62.4943H115.077L116.31 57.3636H118.413L119.666 62.4644H119.731L120.894 57.3636H123.032L120.959 64.9999H118.716L117.404 60.1974H117.309L115.997 64.9999H113.76Z" fill="#D7D7D7"/>
<path d="M126.279 60.5852V64.9999H124.161V57.3636H126.18V58.7109H126.269C126.438 58.2668 126.722 57.9154 127.12 57.6569C127.517 57.3951 128 57.2641 128.566 57.2641C129.097 57.2641 129.559 57.3802 129.953 57.6122C130.348 57.8442 130.654 58.1756 130.873 58.6065C131.092 59.034 131.201 59.5445 131.201 60.1377V64.9999H129.083V60.5156C129.087 60.0482 128.967 59.6837 128.725 59.4218C128.483 59.1567 128.15 59.0241 127.726 59.0241C127.441 59.0241 127.189 59.0854 126.97 59.208C126.755 59.3307 126.586 59.5097 126.463 59.745C126.344 59.977 126.283 60.257 126.279 60.5852Z" fill="#D7D7D7"/>
<path d="M134.988 54.8181V64.9999H132.87V54.8181H134.988Z" fill="#D7D7D7"/>
<path d="M140.135 65.1491C139.363 65.1491 138.695 64.985 138.132 64.6569C137.572 64.3255 137.139 63.8648 136.834 63.2748C136.529 62.6815 136.377 61.9938 136.377 61.2116C136.377 60.4228 136.529 59.7334 136.834 59.1434C137.139 58.5501 137.572 58.0894 138.132 57.7613C138.695 57.4299 139.363 57.2641 140.135 57.2641C140.907 57.2641 141.574 57.4299 142.134 57.7613C142.697 58.0894 143.131 58.5501 143.436 59.1434C143.741 59.7334 143.894 60.4228 143.894 61.2116C143.894 61.9938 143.741 62.6815 143.436 63.2748C143.131 63.8648 142.697 64.3255 142.134 64.6569C141.574 64.985 140.907 65.1491 140.135 65.1491ZM140.145 63.5085C140.496 63.5085 140.79 63.409 141.025 63.2102C141.26 63.008 141.438 62.7329 141.557 62.3849C141.68 62.0369 141.741 61.6408 141.741 61.1967C141.741 60.7525 141.68 60.3565 141.557 60.0085C141.438 59.6605 141.26 59.3854 141.025 59.1832C140.79 58.981 140.496 58.8799 140.145 58.8799C139.791 58.8799 139.492 58.981 139.25 59.1832C139.012 59.3854 138.831 59.6605 138.708 60.0085C138.589 60.3565 138.529 60.7525 138.529 61.1967C138.529 61.6408 138.589 62.0369 138.708 62.3849C138.831 62.7329 139.012 63.008 139.25 63.2102C139.492 63.409 139.791 63.5085 140.145 63.5085Z" fill="#D7D7D7"/>
<path d="M147.448 65.1441C146.961 65.1441 146.527 65.0596 146.146 64.8906C145.765 64.7182 145.463 64.4647 145.241 64.1299C145.022 63.7918 144.913 63.3709 144.913 62.8671C144.913 62.4429 144.991 62.0866 145.147 61.7982C145.302 61.5099 145.514 61.2779 145.783 61.1022C146.051 60.9266 146.356 60.794 146.698 60.7045C147.042 60.615 147.404 60.552 147.782 60.5156C148.226 60.4692 148.584 60.4261 148.855 60.3863C149.127 60.3432 149.324 60.2802 149.447 60.1974C149.57 60.1145 149.631 59.9919 149.631 59.8295V59.7997C149.631 59.4848 149.532 59.2412 149.333 59.0688C149.137 58.8965 148.859 58.8103 148.497 58.8103C148.116 58.8103 147.813 58.8948 147.588 59.0639C147.362 59.2296 147.213 59.4384 147.14 59.6903L145.181 59.5312C145.281 59.0672 145.476 58.6661 145.768 58.3281C146.06 57.9867 146.436 57.7248 146.897 57.5426C147.361 57.357 147.898 57.2641 148.507 57.2641C148.932 57.2641 149.338 57.3139 149.725 57.4133C150.117 57.5127 150.463 57.6668 150.764 57.8757C151.069 58.0845 151.31 58.3529 151.485 58.6811C151.661 59.0059 151.749 59.3953 151.749 59.8494V64.9999H149.74V63.941H149.681C149.558 64.1796 149.394 64.3901 149.188 64.5724C148.983 64.7514 148.736 64.8922 148.448 64.995C148.159 65.0944 147.826 65.1441 147.448 65.1441ZM148.055 63.6825C148.367 63.6825 148.642 63.6212 148.88 63.4985C149.119 63.3726 149.306 63.2035 149.442 62.9914C149.578 62.7793 149.646 62.539 149.646 62.2705V61.4602C149.58 61.5033 149.488 61.543 149.372 61.5795C149.26 61.6126 149.132 61.6441 148.99 61.674C148.847 61.7005 148.705 61.7253 148.562 61.7485C148.42 61.7684 148.29 61.7866 148.174 61.8032C147.926 61.8397 147.709 61.8977 147.523 61.9772C147.337 62.0568 147.193 62.1645 147.09 62.3004C146.988 62.4329 146.936 62.5987 146.936 62.7975C146.936 63.0859 147.041 63.3063 147.25 63.4588C147.462 63.6079 147.73 63.6825 148.055 63.6825Z" fill="#D7D7D7"/>
<path d="M156.206 65.1242C155.626 65.1242 155.101 64.9751 154.63 64.6768C154.163 64.3752 153.791 63.9327 153.516 63.3494C153.244 62.7627 153.109 62.0435 153.109 61.1917C153.109 60.3167 153.249 59.5892 153.531 59.0092C153.813 58.4258 154.187 57.99 154.655 57.7016C155.125 57.41 155.641 57.2641 156.201 57.2641C156.628 57.2641 156.985 57.3371 157.27 57.4829C157.558 57.6254 157.79 57.8044 157.966 58.0198C158.145 58.232 158.281 58.4408 158.373 58.6463H158.438V54.8181H160.551V64.9999H158.463V63.7769H158.373C158.274 63.9891 158.133 64.1995 157.951 64.4083C157.772 64.6138 157.538 64.7845 157.25 64.9204C156.965 65.0563 156.617 65.1242 156.206 65.1242ZM156.877 63.4389C157.218 63.4389 157.507 63.3461 157.742 63.1605C157.981 62.9715 158.163 62.708 158.289 62.37C158.418 62.0319 158.483 61.6358 158.483 61.1818C158.483 60.7277 158.42 60.3333 158.294 59.9985C158.168 59.6638 157.986 59.4052 157.747 59.223C157.508 59.0407 157.218 58.9495 156.877 58.9495C156.529 58.9495 156.236 59.044 155.997 59.2329C155.758 59.4218 155.578 59.6837 155.455 60.0184C155.333 60.3532 155.271 60.7409 155.271 61.1818C155.271 61.6259 155.333 62.0186 155.455 62.36C155.581 62.6981 155.762 62.9633 155.997 63.1555C156.236 63.3444 156.529 63.4389 156.877 63.4389Z" fill="#D7D7D7"/>
<path d="M165.772 65.1491C164.987 65.1491 164.311 64.99 163.744 64.6718C163.181 64.3503 162.746 63.8963 162.441 63.3096C162.137 62.7196 161.984 62.022 161.984 61.2166C161.984 60.4311 162.137 59.7417 162.441 59.1484C162.746 58.5551 163.176 58.0927 163.729 57.7613C164.286 57.4299 164.939 57.2641 165.688 57.2641C166.192 57.2641 166.661 57.3454 167.095 57.5078C167.532 57.6668 167.914 57.9071 168.238 58.2286C168.566 58.5501 168.822 58.9545 169.004 59.4417C169.186 59.9256 169.277 60.4924 169.277 61.142V61.7237H162.829V60.4112H167.284C167.284 60.1062 167.218 59.8361 167.085 59.6008C166.952 59.3655 166.768 59.1815 166.533 59.049C166.301 58.9131 166.031 58.8451 165.723 58.8451C165.401 58.8451 165.116 58.9197 164.868 59.0688C164.622 59.2147 164.43 59.4119 164.291 59.6605C164.152 59.9057 164.08 60.1792 164.077 60.4808V61.7286C164.077 62.1065 164.147 62.4329 164.286 62.708C164.428 62.9831 164.629 63.1953 164.888 63.3444C165.146 63.4936 165.453 63.5681 165.807 63.5681C166.043 63.5681 166.258 63.535 166.454 63.4687C166.649 63.4024 166.816 63.303 166.956 63.1704C167.095 63.0378 167.201 62.8754 167.274 62.6832L169.233 62.8124C169.133 63.2831 168.929 63.6941 168.621 64.0454C168.316 64.3934 167.922 64.6652 167.438 64.8607C166.957 65.053 166.402 65.1491 165.772 65.1491Z" fill="#D7D7D7"/>
<path d="M170.66 64.9999V57.3636H172.713V58.696H172.792C172.932 58.222 173.165 57.8641 173.493 57.6221C173.821 57.3768 174.199 57.2542 174.627 57.2542C174.733 57.2542 174.847 57.2608 174.97 57.2741C175.093 57.2874 175.2 57.3056 175.293 57.3288V59.208C175.194 59.1782 175.056 59.1517 174.88 59.1285C174.705 59.1053 174.544 59.0937 174.398 59.0937C174.087 59.0937 173.808 59.1616 173.563 59.2975C173.321 59.4301 173.129 59.6157 172.986 59.8543C172.847 60.093 172.777 60.3681 172.777 60.6796V64.9999H170.66Z" fill="#D7D7D7"/>
<defs>
<filter id="filter0_dd_103_342" x="140.901" y="75.5522" width="108.197" height="108.2" filterUnits="userSpaceOnUse" color-interpolation-filters="sRGB">
<feFlood flood-opacity="0" result="BackgroundImageFix"/>
<feColorMatrix in="SourceAlpha" type="matrix" values="0 0 0 0 0 0 0 0 0 0 0 0 0 0 0 0 0 0 127 0" result="hardAlpha"/>
<feOffset dx="5" dy="2"/>
<feGaussianBlur stdDeviation="20"/>
<feColorMatrix type="matrix" values="0 0 0 0 1 0 0 0 0 0.172549 0 0 0 0 0.172549 0 0 0 1 0"/>
<feBlend mode="normal" in2="BackgroundImageFix" result="effect1_dropShadow_103_342"/>
<feColorMatrix in="SourceAlpha" type="matrix" values="0 0 0 0 0 0 0 0 0 0 0 0 0 0 0 0 0 0 127 0" result="hardAlpha"/>
<feOffset dx="5" dy="5"/>
<feGaussianBlur stdDeviation="5"/>
<feColorMatrix type="matrix" values="0 0 0 0 1 0 0 0 0 0.170833 0 0 0 0 0.170833 0 0 0 0.08 0"/>
<feBlend mode="normal" in2="effect1_dropShadow_103_342" result="effect2_dropShadow_103_342"/>
<feBlend mode="normal" in="SourceGraphic" in2="effect2_dropShadow_103_342" result="shape"/>
</filter>
</defs>
</svg>
