<svg width="400" height="414" viewBox="0 0 400 414" fill="none" xmlns="http://www.w3.org/2000/svg">
<path d="M398.676 72.5534L210.776 408.551C206.897 415.489 196.93 415.529 192.992 408.626L1.3663 72.5858C-2.92362 65.0629 3.5093 55.9506 12.0342 57.4743L200.135 91.0963C201.335 91.3108 202.564 91.3087 203.764 91.0901L387.931 57.5225C396.428 55.9739 402.891 65.0157 398.676 72.5534Z" fill="url(#paint0_linear_1_46)"/>
<path d="M123.597 0.0985998L262.648 27.3452C264.934 27.793 266.626 29.7298 266.764 32.0542L275.317 176.518C275.519 179.921 272.394 182.561 269.073 181.795L230.359 172.861C226.736 172.026 223.464 175.216 224.208 178.858L235.71 235.181C236.484 238.972 232.925 242.213 229.223 241.089L205.312 233.824C201.605 232.699 198.043 235.949 198.827 239.743L217.105 328.213C218.249 333.747 210.888 336.765 207.819 332.02L205.768 328.851L92.461 102.727C90.5636 98.9413 93.8355 94.6242 97.9939 95.4266L137.843 103.118C141.588 103.84 144.774 100.352 143.717 96.6884L117.708 6.52454C116.65 2.85457 119.848 -0.635872 123.597 0.0985998Z" fill="url(#paint1_linear_1_46)"/>
<defs>
<linearGradient id="paint0_linear_1_46" x1="-3.31239" y1="45.4662" x2="230.544" y2="363.062" gradientUnits="userSpaceOnUse">
<stop stop-color="#FF0000"/>
<stop offset="1" stop-color="#D70000"/>
</linearGradient>
<linearGradient id="paint1_linear_1_46" x1="223.996" y1="7.496" x2="181.692" y2="297.693" gradientUnits="userSpaceOnUse">
<stop stop-color="#FFEA83"/>
<stop offset="0.0833333" stop-color="#FFDD35"/>
<stop offset="1" stop-color="#FFA800"/>
</linearGradient>
</defs>
</svg>
